  0
SECTION
  2
HEADER
  9
$ACADVER
  1
AC1015
  9
$ACADMAINTVER
 70
     6
  9
$DWGCODEPAGE
  3
ANSI_1252
  9
$INSBASE
 10
0.0
 20
0.0
 30
0.0
  9
$EXTMIN
 10
-1438.3178982202
 20
-148.3518421679
 30
0.0
  9
$EXTMAX
 10
26.8990570169
 20
71.4419311165
 30
0.0
  9
$LIMMIN
 10
0.0
 20
0.0
  9
$LIMMAX
 10
420.0
 20
297.0
  9
$ORTHOMODE
 70
     0
  9
$REGENMODE
 70
     1
  9
$FILLMODE
 70
     1
  9
$QTEXTMODE
 70
     0
  9
$MIRRTEXT
 70
     1
  9
$LTSCALE
 40
1.0
  9
$ATTMODE
 70
     1
  9
$TEXTSIZE
 40
3.5
  9
$TRACEWID
 40
1.0
  9
$TEXTSTYLE
  7
Standard
  9
$CLAYER
  8
0
  9
$CELTYPE
  6
ByLayer
  9
$CECOLOR
 62
   256
  9
$CELTSCALE
 40
1.0
  9
$DISPSILH
 70
     0
  9
$DIMSCALE
 40
1.0
  9
$DIMASZ
 40
3.302
  9
$DIMEXO
 40
0.0
  9
$DIMDLI
 40
3.75
  9
$DIMRND
 40
0.0
  9
$DIMDLE
 40
0.0
  9
$DIMEXE
 40
1.0
  9
$DIMTP
 40
0.0
  9
$DIMTM
 40
0.0
  9
$DIMTXT
 40
3.5
  9
$DIMCEN
 40
2.5
  9
$DIMTSZ
 40
0.0
  9
$DIMTOL
 70
     0
  9
$DIMLIM
 70
     0
  9
$DIMTIH
 70
     1
  9
$DIMTOH
 70
     1
  9
$DIMSE1
 70
     0
  9
$DIMSE2
 70
     0
  9
$DIMTAD
 70
     1
  9
$DIMZIN
 70
     1
  9
$DIMBLK
  1

  9
$DIMASO
 70
     1
  9
$DIMSHO
 70
     1
  9
$DIMPOST
  1

  9
$DIMAPOST
  1

  9
$DIMALT
 70
     0
  9
$DIMALTD
 70
     3
  9
$DIMALTF
 40
0.0393700787
  9
$DIMLFAC
 40
1.0
  9
$DIMTOFL
 70
     1
  9
$DIMTVP
 40
0.0
  9
$DIMTIX
 70
     0
  9
$DIMSOXD
 70
     0
  9
$DIMSAH
 70
     0
  9
$DIMBLK1
  1

  9
$DIMBLK2
  1

  9
$DIMSTYLE
  2
ISO-25
  9
$DIMCLRD
 70
     0
  9
$DIMCLRE
 70
     0
  9
$DIMCLRT
 70
     0
  9
$DIMTFAC
 40
1.0
  9
$DIMGAP
 40
1.524
  9
$DIMJUST
 70
     0
  9
$DIMSD1
 70
     0
  9
$DIMSD2
 70
     0
  9
$DIMTOLJ
 70
     0
  9
$DIMTZIN
 70
     1
  9
$DIMALTZ
 70
     0
  9
$DIMALTTZ
 70
     0
  9
$DIMUPT
 70
     0
  9
$DIMDEC
 70
     2
  9
$DIMTDEC
 70
     2
  9
$DIMALTU
 70
     2
  9
$DIMALTTD
 70
     3
  9
$DIMTXSTY
  7
Standard
  9
$DIMAUNIT
 70
     0
  9
$DIMADEC
 70
     2
  9
$DIMALTRND
 40
0.0
  9
$DIMAZIN
 70
     0
  9
$DIMDSEP
 70
    44
  9
$DIMATFIT
 70
     3
  9
$DIMFRAC
 70
     0
  9
$DIMLDRBLK
  1

  9
$DIMLUNIT
 70
     2
  9
$DIMLWD
 70
    -2
  9
$DIMLWE
 70
    -2
  9
$DIMTMOVE
 70
     0
  9
$LUNITS
 70
     2
  9
$LUPREC
 70
     2
  9
$SKETCHINC
 40
1.0
  9
$FILLETRAD
 40
10.0
  9
$AUNITS
 70
     0
  9
$AUPREC
 70
     2
  9
$MENU
  1
.
  9
$ELEVATION
 40
0.0
  9
$PELEVATION
 40
0.0
  9
$THICKNESS
 40
0.0
  9
$LIMCHECK
 70
     0
  9
$CHAMFERA
 40
0.0
  9
$CHAMFERB
 40
0.0
  9
$CHAMFERC
 40
0.0
  9
$CHAMFERD
 40
0.0
  9
$SKPOLY
 70
     0
  9
$TDCREATE
 40
2459255.382688299
  9
$TDUCREATE
 40
2459255.299354965
  9
$TDUPDATE
 40
2459255.383414931
  9
$TDUUPDATE
 40
2459255.300081597
  9
$TDINDWG
 40
0.0000000116
  9
$TDUSRTIMER
 40
0.0000000116
  9
$USRTIMER
 70
     1
  9
$ANGBASE
 50
0.0
  9
$ANGDIR
 70
     0
  9
$PDMODE
 70
     0
  9
$PDSIZE
 40
-1.0
  9
$PLINEWID
 40
0.0
  9
$SPLFRAME
 70
     0
  9
$SPLINETYPE
 70
     6
  9
$SPLINESEGS
 70
     8
  9
$HANDSEED
  5
176
  9
$SURFTAB1
 70
     6
  9
$SURFTAB2
 70
     6
  9
$SURFTYPE
 70
     6
  9
$SURFU
 70
     6
  9
$SURFV
 70
     6
  9
$UCSBASE
  2

  9
$UCSNAME
  2

  9
$UCSORG
 10
0.0
 20
0.0
 30
0.0
  9
$UCSXDIR
 10
1.0
 20
0.0
 30
0.0
  9
$UCSYDIR
 10
0.0
 20
1.0
 30
0.0
  9
$UCSORTHOREF
  2

  9
$UCSORTHOVIEW
 70
     0
  9
$UCSORGTOP
 10
0.0
 20
0.0
 30
0.0
  9
$UCSORGBOTTOM
 10
0.0
 20
0.0
 30
0.0
  9
$UCSORGLEFT
 10
0.0
 20
0.0
 30
0.0
  9
$UCSORGRIGHT
 10
0.0
 20
0.0
 30
0.0
  9
$UCSORGFRONT
 10
0.0
 20
0.0
 30
0.0
  9
$UCSORGBACK
 10
0.0
 20
0.0
 30
0.0
  9
$PUCSBASE
  2

  9
$PUCSNAME
  2

  9
$PUCSORG
 10
0.0
 20
0.0
 30
0.0
  9
$PUCSXDIR
 10
1.0
 20
0.0
 30
0.0
  9
$PUCSYDIR
 10
0.0
 20
1.0
 30
0.0
  9
$PUCSORTHOREF
  2

  9
$PUCSORTHOVIEW
 70
     0
  9
$PUCSORGTOP
 10
0.0
 20
0.0
 30
0.0
  9
$PUCSORGBOTTOM
 10
0.0
 20
0.0
 30
0.0
  9
$PUCSORGLEFT
 10
0.0
 20
0.0
 30
0.0
  9
$PUCSORGRIGHT
 10
0.0
 20
0.0
 30
0.0
  9
$PUCSORGFRONT
 10
0.0
 20
0.0
 30
0.0
  9
$PUCSORGBACK
 10
0.0
 20
0.0
 30
0.0
  9
$USERI1
 70
     0
  9
$USERI2
 70
     0
  9
$USERI3
 70
     0
  9
$USERI4
 70
     0
  9
$USERI5
 70
     0
  9
$USERR1
 40
0.0
  9
$USERR2
 40
0.0
  9
$USERR3
 40
0.0
  9
$USERR4
 40
0.0
  9
$USERR5
 40
0.0
  9
$WORLDVIEW
 70
     1
  9
$SHADEDGE
 70
     3
  9
$SHADEDIF
 70
    70
  9
$TILEMODE
 70
     0
  9
$MAXACTVP
 70
    64
  9
$PINSBASE
 10
0.0
 20
0.0
 30
0.0
  9
$PLIMCHECK
 70
     0
  9
$PEXTMIN
 10
-1438.3178982202
 20
-148.3518421679
 30
0.0
  9
$PEXTMAX
 10
26.8990570169
 20
71.4419311165
 30
0.0
  9
$PLIMMIN
 10
0.0
 20
0.0
  9
$PLIMMAX
 10
0.0
 20
0.0
  9
$UNITMODE
 70
     0
  9
$VISRETAIN
 70
     1
  9
$PLINEGEN
 70
     0
  9
$PSLTSCALE
 70
     1
  9
$TREEDEPTH
 70
  3020
  9
$CMLSTYLE
  2
Standard
  9
$CMLJUST
 70
     0
  9
$CMLSCALE
 40
20.0
  9
$PROXYGRAPHICS
 70
     1
  9
$MEASUREMENT
 70
     1
  9
$CELWEIGHT
370
    -1
  9
$ENDCAPS
280
     0
  9
$JOINSTYLE
280
     0
  9
$LWDISPLAY
290
     1
  9
$INSUNITS
 70
     4
  9
$HYPERLINKBASE
  1

  9
$STYLESHEET
  1

  9
$XEDIT
290
     1
  9
$CEPSNTYPE
380
     0
  9
$PSTYLEMODE
290
     1
  9
$FINGERPRINTGUID
  2
{0c91217c-fe5b-42a6-8e46-3bbab2ef3c2b}
  9
$VERSIONGUID
  2
{FAEB1C32-E019-11D5-929B-00C0DF256EC4}
  9
$EXTNAMES
290
     1
  9
$PSVPSCALE
 40
0.0
  9
$OLESTARTUP
290
     0
  0
ENDSEC
  0
SECTION
  2
CLASSES
  0
CLASS
  1
ACDBDICTIONARYWDFLT
  2
AcDbDictionaryWithDefault
  3
ObjectDBX Classes
 90
        0
280
     0
281
     0
  0
CLASS
  1
VISUALSTYLE
  2
AcDbVisualStyle
  3
ObjectDBX Classes
 90
     4095
280
     0
281
     0
  0
CLASS
  1
MATERIAL
  2
AcDbMaterial
  3
ObjectDBX Classes
 90
     1153
280
     0
281
     0
  0
CLASS
  1
SCALE
  2
AcDbScale
  3
ObjectDBX Classes
 90
     1153
280
     0
281
     0
  0
CLASS
  1
TABLESTYLE
  2
AcDbTableStyle
  3
ObjectDBX Classes
 90
     4095
280
     0
281
     0
  0
CLASS
  1
MLEADERSTYLE
  2
AcDbMLeaderStyle
  3
ACDB_MLEADERSTYLE_CLASS
 90
     4095
280
     0
281
     0
  0
CLASS
  1
SUN
  2
AcDbSun
  3
SCENEOE
 90
     1153
280
     0
281
     0
  0
CLASS
  1
ACDBPLACEHOLDER
  2
AcDbPlaceHolder
  3
ObjectDBX Classes
 90
        0
280
     0
281
     0
  0
CLASS
  1
LAYOUT
  2
AcDbLayout
  3
ObjectDBX Classes
 90
        0
280
     0
281
     0
  0
ENDSEC
  0
SECTION
  2
TABLES
  0
TABLE
  2
VPORT
  5
8
330
0
100
AcDbSymbolTable
 70
     1
  0
VPORT
  5
29
330
8
100
AcDbSymbolTableRecord
100
AcDbViewportTableRecord
  2
*Active
 70
     0
 10
0.0
 20
0.0
 11
1.0
 21
1.0
 12
-705.7094206017
 22
-38.4549555257
 13
0.0
 23
0.0
 14
10.0
 24
10.0
 15
10.0
 25
10.0
 16
0.0
 26
0.0
 36
1.0
 17
0.0
 27
0.0
 37
0.0
 40
224.18964875
 41
6.6663260444
 42
50.0
 43
0.0
 44
0.0
 50
0.0
 51
0.0
 71
     0
 72
   100
 73
     1
 74
     3
 75
     0
 76
     0
 77
     0
 78
     0
281
     0
 65
     1
110
0.0
120
0.0
130
0.0
111
1.0
121
0.0
131
0.0
112
0.0
122
1.0
132
0.0
 79
     0
146
0.0
  0
ENDTAB
  0
TABLE
  2
LTYPE
  5
5
330
0
100
AcDbSymbolTable
 70
     6
  0
LTYPE
  5
14
330
5
100
AcDbSymbolTableRecord
100
AcDbLinetypeTableRecord
  2
ByBlock
 70
     0
  3

 72
    65
 73
     0
 40
0.0
  0
LTYPE
  5
15
330
5
100
AcDbSymbolTableRecord
100
AcDbLinetypeTableRecord
  2
ByLayer
 70
     0
  3

 72
    65
 73
     0
 40
0.0
  0
LTYPE
  5
16
330
5
100
AcDbSymbolTableRecord
100
AcDbLinetypeTableRecord
  2
Continuous
 70
     0
  3
Solid line
 72
    65
 73
     0
 40
0.0
  0
LTYPE
  5
6E
330
5
100
AcDbSymbolTableRecord
100
AcDbLinetypeTableRecord
  2
HIDDEN
 70
     0
  3
Hidden __ __ __ __ __ __ __ __ __ __ __ __ __ __
 72
    65
 73
     2
 40
1.905
 49
1.27
 74
     0
 49
-0.635
 74
     0
  0
LTYPE
  5
6F
330
5
100
AcDbSymbolTableRecord
100
AcDbLinetypeTableRecord
  2
PHANTOM
 70
     0
  3
Phantom ______  __  __  ______  __  __  ______
 72
    65
 73
     6
 40
12.7
 49
6.35
 74
     0
 49
-1.27
 74
     0
 49
1.27
 74
     0
 49
-1.27
 74
     0
 49
1.27
 74
     0
 49
-1.27
 74
     0
  0
LTYPE
  5
70
330
5
100
AcDbSymbolTableRecord
100
AcDbLinetypeTableRecord
  2
CENTER
 70
     0
  3
Center ____ _ ____ _ ____ _ ____ _ ____ _ ____
 72
    65
 73
     4
 40
10.16
 49
6.35
 74
     0
 49
-1.27
 74
     0
 49
1.27
 74
     0
 49
-1.27
 74
     0
  0
LTYPE
  5
71
330
5
100
AcDbSymbolTableRecord
100
AcDbLinetypeTableRecord
  2
CENTERX2
 70
     0
  3
Center (2x) ________  __  ________  __  _____
 72
    65
 73
     4
 40
20.32
 49
12.7
 74
     0
 49
-2.54
 74
     0
 49
2.54
 74
     0
 49
-2.54
 74
     0
  0
LTYPE
  5
72
330
5
100
AcDbSymbolTableRecord
100
AcDbLinetypeTableRecord
  2
DOT2
 70
     0
  3
Dot (.5x) ........................................
 72
    65
 73
     2
 40
0.635
 49
0.0
 74
     0
 49
-0.635
 74
     0
  0
ENDTAB
  0
TABLE
  2
LAYER
  5
2
330
0
100
AcDbSymbolTable
 70
     1
  0
LAYER
  5
10
330
2
100
AcDbSymbolTableRecord
100
AcDbLayerTableRecord
  2
0
 70
     0
 62
     7
  6
Continuous
370
    -3
390
F
  0
ENDTAB
  0
TABLE
  2
STYLE
  5
3
330
0
100
AcDbSymbolTable
 70
     1
  0
STYLE
  5
11
330
3
100
AcDbSymbolTableRecord
100
AcDbTextStyleTableRecord
  2
Standard
 70
     0
 40
0.0
 41
1.0
 50
0.0
 71
     0
 42
3.5
  3
txt
  4

  0
ENDTAB
  0
TABLE
  2
VIEW
  5
6
330
0
100
AcDbSymbolTable
 70
     0
  0
ENDTAB
  0
TABLE
  2
UCS
  5
7
330
0
100
AcDbSymbolTable
 70
     0
  0
ENDTAB
  0
TABLE
  2
APPID
  5
9
330
0
100
AcDbSymbolTable
 70
     1
  0
APPID
  5
12
330
9
100
AcDbSymbolTableRecord
100
AcDbRegAppTableRecord
  2
ACAD
 70
     0
  0
ENDTAB
  0
TABLE
  2
DIMSTYLE
  5
A
330
0
100
AcDbSymbolTable
 70
     1
100
AcDbDimStyleTable
  0
DIMSTYLE
105
27
330
A
100
AcDbSymbolTableRecord
100
AcDbDimStyleTableRecord
  2
ISO-25
 70
     0
 41
2.5
 42
0.625
 43
3.75
 44
1.25
 73
     0
 74
     0
 77
     1
 78
     8
140
2.5
141
2.5
143
0.0393700787
147
0.625
171
     3
172
     1
178
     0
271
     2
272
     2
274
     3
278
    44
283
     0
284
     8
340
11
  0
ENDTAB
  0
TABLE
  2
BLOCK_RECORD
  5
1
330
0
100
AcDbSymbolTable
 70
     5
  0
BLOCK_RECORD
  5
1F
330
1
100
AcDbSymbolTableRecord
100
AcDbBlockTableRecord
  2
*Model_Space
340
22
  0
BLOCK_RECORD
  5
146
330
1
100
AcDbSymbolTableRecord
100
AcDbBlockTableRecord
  2
*Paper_Space
340
147
  0
BLOCK_RECORD
  5
1B
330
1
100
AcDbSymbolTableRecord
100
AcDbBlockTableRecord
  2
*Paper_Space0
340
1E
  0
BLOCK_RECORD
  5
23
330
1
100
AcDbSymbolTableRecord
100
AcDbBlockTableRecord
  2
*Paper_Space1
340
26
  0
BLOCK_RECORD
  5
E4
330
1
100
AcDbSymbolTableRecord
100
AcDbBlockTableRecord
  2
*Paper_Space2
340
E5
  0
BLOCK_RECORD
  5
104
330
1
100
AcDbSymbolTableRecord
100
AcDbBlockTableRecord
  2
*Paper_Space3
340
105
  0
BLOCK_RECORD
  5
11C
330
1
100
AcDbSymbolTableRecord
100
AcDbBlockTableRecord
  2
*Paper_Space4
340
11D
  0
ENDTAB
  0
ENDSEC
  0
SECTION
  2
BLOCKS
  0
BLOCK
  5
20
330
1F
100
AcDbEntity
  8
0
100
AcDbBlockBegin
  2
*Model_Space
 70
     0
 10
0.0
 20
0.0
 30
0.0
  3
*Model_Space
  1

  0
ENDBLK
  5
21
330
1F
100
AcDbEntity
  8
0
100
AcDbBlockEnd
  0
BLOCK
  5
148
330
146
100
AcDbEntity
 67
     1
  8
0
100
AcDbBlockBegin
  2
*Paper_Space
 70
     0
 10
0.0
 20
0.0
 30
0.0
  3
*Paper_Space
  1

  0
ENDBLK
  5
149
330
146
100
AcDbEntity
 67
     1
  8
0
100
AcDbBlockEnd
  0
BLOCK
  5
1C
330
1B
100
AcDbEntity
  8
0
100
AcDbBlockBegin
  2
*Paper_Space0
 70
     0
 10
0.0
 20
0.0
 30
0.0
  3
*Paper_Space0
  1

  0
LINE
  5
CA
330
1B
100
AcDbEntity
  8
0
  6
Continuous
 62
     7
370
    25
100
AcDbLine
 10
9.8117445888
 20
-1500.0
 30
0.0
 11
9.8117445888
 21
0.0
 31
0.0
  0
LINE
  5
CB
330
1B
100
AcDbEntity
  8
0
  6
Continuous
 62
     7
370
    25
100
AcDbLine
 10
13.8117445888
 20
-1500.0
 30
0.0
 11
-31.1882554112
 21
-1500.0
 31
0.0
  0
LINE
  5
CC
330
1B
100
AcDbEntity
  8
0
  6
Continuous
 62
     7
370
    25
100
AcDbLine
 10
-27.1882554112
 20
0.0
 30
0.0
 11
-27.1882554112
 21
-1500.0
 31
0.0
  0
LINE
  5
CD
330
1B
100
AcDbEntity
  8
0
  6
Continuous
 62
     7
370
    25
100
AcDbLine
 10
13.8117445888
 20
0.0
 30
0.0
 11
-31.1882554112
 21
0.0
 31
0.0
  0
LINE
  5
CE
330
1B
100
AcDbEntity
  8
0
  6
Continuous
 62
     7
370
    25
100
AcDbLine
 10
-31.1882554112
 20
-1500.0
 30
0.0
 11
-31.1882554112
 21
0.0
 31
0.0
  0
LINE
  5
CF
330
1B
100
AcDbEntity
  8
0
  6
Continuous
 62
     7
370
    25
100
AcDbLine
 10
13.8117445888
 20
0.0
 30
0.0
 11
13.8117445888
 21
-1500.0
 31
0.0
  0
VIEWPORT
  5
169
330
1B
100
AcDbEntity
  8
0
100
AcDbViewport
 10
0.0
 20
0.0
 30
0.0
 40
205.6
 41
156.0
 68
     1
 69
     1
 12
-705.7094206017
 22
-38.4549555257
 13
0.0
 23
0.0
 14
10.0
 24
10.0
 15
10.0
 25
10.0
 16
0.0
 26
0.0
 36
1.0
 17
0.0
 27
0.0
 37
0.0
 42
50.0
 43
0.0
 44
0.0
 45
1133.9753011543
 50
0.0
 51
0.0
 72
   100
 90
   557152
  1

281
     0
 71
     1
 74
     0
110
0.0
120
0.0
130
0.0
111
1.0
121
0.0
131
0.0
112
0.0
122
1.0
132
0.0
 79
     0
146
0.0
  0
ENDBLK
  5
1D
330
1B
100
AcDbEntity
  8
0
100
AcDbBlockEnd
  0
BLOCK
  5
24
330
23
100
AcDbEntity
  8
0
100
AcDbBlockBegin
  2
*Paper_Space1
 70
     0
 10
0.0
 20
0.0
 30
0.0
  3
*Paper_Space1
  1

  0
CIRCLE
  5
D4
330
23
100
AcDbEntity
  8
0
  6
Continuous
 62
     7
370
    25
100
AcDbCircle
 10
-8.6882554112
 20
-25.7273151228
 30
0.0
 40
4.024999999999996
  0
CIRCLE
  5
D5
330
23
100
AcDbEntity
  8
0
  6
Continuous
 62
     7
370
    25
100
AcDbCircle
 10
-8.6882554112
 20
94.2726848772
 30
0.0
 40
4.025000000000017
  0
CIRCLE
  5
DA
330
23
100
AcDbEntity
  8
0
  6
Continuous
 62
     7
370
    25
100
AcDbCircle
 10
-8.6882554112
 20
94.2726848772
 30
0.0
 40
3.999999999999996
  0
CIRCLE
  5
DB
330
23
100
AcDbEntity
  8
0
  6
Continuous
 62
     7
370
    25
100
AcDbCircle
 10
-8.6882554112
 20
-25.7273151228
 30
0.0
 40
3.999999999999988
  0
LINE
  5
DC
330
23
100
AcDbEntity
  8
0
  6
Continuous
 62
     7
370
    25
100
AcDbLine
 10
13.8117445888
 20
-61.7273151228
 30
0.0
 11
13.8117445888
 21
130.2726848772
 31
0.0
  0
LINE
  5
DD
330
23
100
AcDbEntity
  8
0
  6
Continuous
 62
     7
370
    25
100
AcDbLine
 10
-27.1882554112
 20
-65.7273151228
 30
0.0
 11
9.8117445888
 21
-65.7273151228
 31
0.0
  0
LINE
  5
DE
330
23
100
AcDbEntity
  8
0
  6
Continuous
 62
     7
370
    25
100
AcDbLine
 10
-31.1882554112
 20
130.2726848772
 30
0.0
 11
-31.1882554112
 21
-61.7273151228
 31
0.0
  0
LINE
  5
DF
330
23
100
AcDbEntity
  8
0
  6
Continuous
 62
     7
370
    25
100
AcDbLine
 10
9.8117445888
 20
134.2726848772
 30
0.0
 11
-27.1882554112
 21
134.2726848772
 31
0.0
  0
ARC
  5
E0
330
23
100
AcDbEntity
  8
0
  6
Continuous
 62
     7
370
    25
100
AcDbCircle
 10
-27.1882554112
 20
130.2726848772
 30
0.0
 40
4.000000000000014
100
AcDbArc
 50
90.0
 51
180.0
  0
ARC
  5
E1
330
23
100
AcDbEntity
  8
0
  6
Continuous
 62
     7
370
    25
100
AcDbCircle
 10
9.8117445888
 20
130.2726848772
 30
0.0
 40
4.000000000000028
100
AcDbArc
 50
0.0
 51
90.0
  0
ARC
  5
E2
330
23
100
AcDbEntity
  8
0
  6
Continuous
 62
     7
370
    25
100
AcDbCircle
 10
9.8117445888
 20
-61.7273151228
 30
0.0
 40
4.000000000000007
100
AcDbArc
 50
270.0
 51
0.0
  0
ARC
  5
E3
330
23
100
AcDbEntity
  8
0
  6
Continuous
 62
     7
370
    25
100
AcDbCircle
 10
-27.1882554112
 20
-61.7273151228
 30
0.0
 40
3.999999999999996
100
AcDbArc
 50
180.0
 51
270.0
  0
VIEWPORT
  5
16B
330
23
100
AcDbEntity
  8
0
100
AcDbViewport
 10
0.0
 20
0.0
 30
0.0
 40
205.6
 41
156.0
 68
     1
 69
     1
 12
-705.7094206017
 22
-38.4549555257
 13
0.0
 23
0.0
 14
10.0
 24
10.0
 15
10.0
 25
10.0
 16
0.0
 26
0.0
 36
1.0
 17
0.0
 27
0.0
 37
0.0
 42
50.0
 43
0.0
 44
0.0
 45
1133.9753011543
 50
0.0
 51
0.0
 72
   100
 90
   557152
  1

281
     0
 71
     1
 74
     0
110
0.0
120
0.0
130
0.0
111
1.0
121
0.0
131
0.0
112
0.0
122
1.0
132
0.0
 79
     0
146
0.0
  0
ENDBLK
  5
25
330
23
100
AcDbEntity
  8
0
100
AcDbBlockEnd
  0
BLOCK
  5
E6
330
E4
100
AcDbEntity
  8
0
100
AcDbBlockBegin
  2
*Paper_Space2
 70
     0
 10
0.0
 20
0.0
 30
0.0
  3
*Paper_Space2
  1

  0
CIRCLE
  5
EC
330
E4
100
AcDbEntity
  8
0
  6
Continuous
 62
     7
370
    25
100
AcDbCircle
 10
-1331.25
 20
-11.7273151228
 30
0.0
 40
7.999999999999318
  0
CIRCLE
  5
ED
330
E4
100
AcDbEntity
  8
0
  6
Continuous
 62
     7
370
    25
100
AcDbCircle
 10
-1331.25
 20
84.2726848772
 30
0.0
 40
7.999999999999318
  0
CIRCLE
  5
EE
330
E4
100
AcDbEntity
  8
0
  6
Continuous
 62
     7
370
    25
100
AcDbCircle
 10
-750.0
 20
-11.7273151228
 30
0.0
 40
8.000000000000227
  0
CIRCLE
  5
EF
330
E4
100
AcDbEntity
  8
0
  6
Continuous
 62
     7
370
    25
100
AcDbCircle
 10
-750.0
 20
84.2726848772
 30
0.0
 40
8.000000000000227
  0
CIRCLE
  5
F0
330
E4
100
AcDbEntity
  8
0
  6
Continuous
 62
     7
370
    25
100
AcDbCircle
 10
-1140.0
 20
-22.7273151228
 30
0.0
 40
4.0
  0
CIRCLE
  5
F1
330
E4
100
AcDbEntity
  8
0
  6
Continuous
 62
     7
370
    25
100
AcDbCircle
 10
-1140.0
 20
34.2726848772
 30
0.0
 40
4.0
  0
CIRCLE
  5
F2
330
E4
100
AcDbEntity
  8
0
  6
Continuous
 62
     7
370
    25
100
AcDbCircle
 10
-1140.0
 20
94.2726848772
 30
0.0
 40
4.0
  0
CIRCLE
  5
F3
330
E4
100
AcDbEntity
  8
0
  6
Continuous
 62
     7
370
    25
100
AcDbCircle
 10
-360.0
 20
-22.7273151228
 30
0.0
 40
3.999999999999943
  0
CIRCLE
  5
F4
330
E4
100
AcDbEntity
  8
0
  6
Continuous
 62
     7
370
    25
100
AcDbCircle
 10
-360.0
 20
34.2726848772
 30
0.0
 40
3.999999999999886
  0
CIRCLE
  5
F5
330
E4
100
AcDbEntity
  8
0
  6
Continuous
 62
     7
370
    25
100
AcDbCircle
 10
-360.0
 20
94.2726848772
 30
0.0
 40
3.999999999999886
  0
CIRCLE
  5
F6
330
E4
100
AcDbEntity
  8
0
  6
Continuous
 62
     7
370
    25
100
AcDbCircle
 10
-168.75
 20
-11.7273151228
 30
0.0
 40
7.999999999999858
  0
CIRCLE
  5
F7
330
E4
100
AcDbEntity
  8
0
  6
Continuous
 62
     7
370
    25
100
AcDbCircle
 10
-168.75
 20
84.2726848772
 30
0.0
 40
7.999999999999886
  0
LINE
  5
FE
330
E4
100
AcDbEntity
  8
0
  6
Continuous
 62
     7
370
    25
100
AcDbLine
 10
0.0
 20
130.2726848772
 30
0.0
 11
-1500.0
 21
130.2726848772
 31
0.0
  0
LINE
  5
FF
330
E4
100
AcDbEntity
  8
0
  6
Continuous
 62
     7
370
    25
100
AcDbLine
 10
0.0
 20
-65.7273151228
 30
0.0
 11
0.0
 21
134.2726848772
 31
0.0
  0
LINE
  5
100
330
E4
100
AcDbEntity
  8
0
  6
Continuous
 62
     7
370
    25
100
AcDbLine
 10
-1500.0
 20
-61.7273151228
 30
0.0
 11
0.0
 21
-61.7273151228
 31
0.0
  0
LINE
  5
101
330
E4
100
AcDbEntity
  8
0
  6
Continuous
 62
     7
370
    25
100
AcDbLine
 10
-1500.0
 20
-65.7273151228
 30
0.0
 11
-1500.0
 21
134.2726848772
 31
0.0
  0
LINE
  5
102
330
E4
100
AcDbEntity
  8
0
  6
Continuous
 62
     7
370
    25
100
AcDbLine
 10
-1500.0
 20
134.2726848772
 30
0.0
 11
0.0
 21
134.2726848772
 31
0.0
  0
LINE
  5
103
330
E4
100
AcDbEntity
  8
0
  6
Continuous
 62
     7
370
    25
100
AcDbLine
 10
0.0
 20
-65.7273151228
 30
0.0
 11
-1500.0
 21
-65.7273151228
 31
0.0
  0
VIEWPORT
  5
16D
330
E4
100
AcDbEntity
  8
0
100
AcDbViewport
 10
0.0
 20
0.0
 30
0.0
 40
205.6
 41
156.0
 68
     1
 69
     1
 12
-705.7094206017
 22
-38.4549555257
 13
0.0
 23
0.0
 14
10.0
 24
10.0
 15
10.0
 25
10.0
 16
0.0
 26
0.0
 36
1.0
 17
0.0
 27
0.0
 37
0.0
 42
50.0
 43
0.0
 44
0.0
 45
1133.9753011543
 50
0.0
 51
0.0
 72
   100
 90
   557152
  1

281
     0
 71
     1
 74
     0
110
0.0
120
0.0
130
0.0
111
1.0
121
0.0
131
0.0
112
0.0
122
1.0
132
0.0
 79
     0
146
0.0
  0
ENDBLK
  5
E7
330
E4
100
AcDbEntity
  8
0
100
AcDbBlockEnd
  0
BLOCK
  5
106
330
104
100
AcDbEntity
  8
0
100
AcDbBlockBegin
  2
*Paper_Space3
 70
     0
 10
0.0
 20
0.0
 30
0.0
  3
*Paper_Space3
  1

  0
CIRCLE
  5
10F
330
104
100
AcDbEntity
  8
0
  6
Continuous
 62
     7
370
    25
100
AcDbCircle
 10
8.6882554112
 20
94.2726848772
 30
0.0
 40
4.025000000000034
  0
CIRCLE
  5
110
330
104
100
AcDbEntity
  8
0
  6
Continuous
 62
     7
370
    25
100
AcDbCircle
 10
8.6882554112
 20
-25.7273151228
 30
0.0
 40
4.025000000000002
  0
CIRCLE
  5
112
330
104
100
AcDbEntity
  8
0
  6
Continuous
 62
     7
370
    25
100
AcDbCircle
 10
8.6882554112
 20
-25.7273151228
 30
0.0
 40
3.999999999999993
  0
CIRCLE
  5
113
330
104
100
AcDbEntity
  8
0
  6
Continuous
 62
     7
370
    25
100
AcDbCircle
 10
8.6882554112
 20
94.2726848772
 30
0.0
 40
3.999999999999972
  0
LINE
  5
114
330
104
100
AcDbEntity
  8
0
  6
Continuous
 62
     7
370
    25
100
AcDbLine
 10
-13.8117445888
 20
-61.7273151228
 30
0.0
 11
-13.8117445888
 21
130.2726848772
 31
0.0
  0
LINE
  5
115
330
104
100
AcDbEntity
  8
0
  6
Continuous
 62
     7
370
    25
100
AcDbLine
 10
-9.8117445888
 20
134.2726848772
 30
0.0
 11
27.1882554112
 21
134.2726848772
 31
0.0
  0
LINE
  5
116
330
104
100
AcDbEntity
  8
0
  6
Continuous
 62
     7
370
    25
100
AcDbLine
 10
31.1882554112
 20
130.2726848772
 30
0.0
 11
31.1882554112
 21
-61.7273151228
 31
0.0
  0
LINE
  5
117
330
104
100
AcDbEntity
  8
0
  6
Continuous
 62
     7
370
    25
100
AcDbLine
 10
27.1882554112
 20
-65.7273151228
 30
0.0
 11
-9.8117445888
 21
-65.7273151228
 31
0.0
  0
ARC
  5
118
330
104
100
AcDbEntity
  8
0
  6
Continuous
 62
     7
370
    25
100
AcDbCircle
 10
-9.8117445888
 20
-61.7273151228
 30
0.0
 40
4.000000000000014
100
AcDbArc
 50
180.0
 51
270.0
  0
ARC
  5
119
330
104
100
AcDbEntity
  8
0
  6
Continuous
 62
     7
370
    25
100
AcDbCircle
 10
27.1882554112
 20
130.2726848772
 30
0.0
 40
4.000000000000014
100
AcDbArc
 50
0.0
 51
90.0
  0
ARC
  5
11A
330
104
100
AcDbEntity
  8
0
  6
Continuous
 62
     7
370
    25
100
AcDbCircle
 10
27.1882554112
 20
-61.7273151228
 30
0.0
 40
4.0
100
AcDbArc
 50
270.0
 51
0.0
  0
ARC
  5
11B
330
104
100
AcDbEntity
  8
0
  6
Continuous
 62
     7
370
    25
100
AcDbCircle
 10
-9.8117445888
 20
130.2726848772
 30
0.0
 40
4.000000000000028
100
AcDbArc
 50
90.0
 51
180.0
  0
VIEWPORT
  5
16F
330
104
100
AcDbEntity
  8
0
100
AcDbViewport
 10
0.0
 20
0.0
 30
0.0
 40
205.6
 41
156.0
 68
     1
 69
     1
 12
-705.7094206017
 22
-38.4549555257
 13
0.0
 23
0.0
 14
10.0
 24
10.0
 15
10.0
 25
10.0
 16
0.0
 26
0.0
 36
1.0
 17
0.0
 27
0.0
 37
0.0
 42
50.0
 43
0.0
 44
0.0
 45
1133.9753011543
 50
0.0
 51
0.0
 72
   100
 90
   557152
  1

281
     0
 71
     1
 74
     0
110
0.0
120
0.0
130
0.0
111
1.0
121
0.0
131
0.0
112
0.0
122
1.0
132
0.0
 79
     0
146
0.0
  0
ENDBLK
  5
107
330
104
100
AcDbEntity
  8
0
100
AcDbBlockEnd
  0
BLOCK
  5
11E
330
11C
100
AcDbEntity
  8
0
100
AcDbBlockBegin
  2
*Paper_Space4
 70
     0
 10
0.0
 20
0.0
 30
0.0
  3
*Paper_Space4
  1

  0
CIRCLE
  5
124
330
11C
100
AcDbEntity
  8
0
  6
Continuous
 62
     7
370
    25
100
AcDbCircle
 10
50.0
 20
-22.7273151228
 30
0.0
 40
17.99999999999998
  0
CIRCLE
  5
125
330
11C
100
AcDbEntity
  8
0
  6
Continuous
 62
     7
370
    25
100
AcDbCircle
 10
50.0
 20
94.2726848772
 30
0.0
 40
18.00000000000001
  0
CIRCLE
  5
126
330
11C
100
AcDbEntity
  8
0
  6
Continuous
 62
     7
370
    25
100
AcDbCircle
 10
1450.0
 20
-22.7273151228
 30
0.0
 40
18.00000000000009
  0
CIRCLE
  5
127
330
11C
100
AcDbEntity
  8
0
  6
Continuous
 62
     7
370
    25
100
AcDbCircle
 10
1450.0
 20
94.2726848772
 30
0.0
 40
18.00000000000014
  0
CIRCLE
  5
128
330
11C
100
AcDbEntity
  8
0
  6
Continuous
 62
     7
370
    25
100
AcDbCircle
 10
1331.25
 20
-11.7273151228
 30
0.0
 40
8.000000000000227
  0
CIRCLE
  5
129
330
11C
100
AcDbEntity
  8
0
  6
Continuous
 62
     7
370
    25
100
AcDbCircle
 10
1331.25
 20
84.2726848772
 30
0.0
 40
8.000000000000227
  0
CIRCLE
  5
12A
330
11C
100
AcDbEntity
  8
0
  6
Continuous
 62
     7
370
    25
100
AcDbCircle
 10
750.0
 20
-11.7273151228
 30
0.0
 40
8.000000000000227
  0
CIRCLE
  5
12B
330
11C
100
AcDbEntity
  8
0
  6
Continuous
 62
     7
370
    25
100
AcDbCircle
 10
750.0
 20
84.2726848772
 30
0.0
 40
8.000000000000227
  0
CIRCLE
  5
12C
330
11C
100
AcDbEntity
  8
0
  6
Continuous
 62
     7
370
    25
100
AcDbCircle
 10
1140.0
 20
-22.7273151228
 30
0.0
 40
4.025000000000091
  0
CIRCLE
  5
12D
330
11C
100
AcDbEntity
  8
0
  6
Continuous
 62
     7
370
    25
100
AcDbCircle
 10
1140.0
 20
34.2726848772
 30
0.0
 40
4.025000000000091
  0
CIRCLE
  5
12E
330
11C
100
AcDbEntity
  8
0
  6
Continuous
 62
     7
370
    25
100
AcDbCircle
 10
1140.0
 20
94.2726848772
 30
0.0
 40
4.025000000000091
  0
CIRCLE
  5
12F
330
11C
100
AcDbEntity
  8
0
  6
Continuous
 62
     7
370
    25
100
AcDbCircle
 10
360.0
 20
-22.7273151228
 30
0.0
 40
4.024999999999977
  0
CIRCLE
  5
130
330
11C
100
AcDbEntity
  8
0
  6
Continuous
 62
     7
370
    25
100
AcDbCircle
 10
360.0
 20
34.2726848772
 30
0.0
 40
4.024999999999977
  0
CIRCLE
  5
131
330
11C
100
AcDbEntity
  8
0
  6
Continuous
 62
     7
370
    25
100
AcDbCircle
 10
360.0
 20
94.2726848772
 30
0.0
 40
4.024999999999977
  0
CIRCLE
  5
132
330
11C
100
AcDbEntity
  8
0
  6
Continuous
 62
     7
370
    25
100
AcDbCircle
 10
168.75
 20
-11.7273151228
 30
0.0
 40
7.999999999999823
  0
CIRCLE
  5
133
330
11C
100
AcDbEntity
  8
0
  6
Continuous
 62
     7
370
    25
100
AcDbCircle
 10
168.75
 20
84.2726848772
 30
0.0
 40
7.999999999999858
  0
CIRCLE
  5
13A
330
11C
100
AcDbEntity
  8
0
  6
Continuous
 62
     7
370
    25
100
AcDbCircle
 10
360.0
 20
94.2726848772
 30
0.0
 40
3.999999999999943
  0
CIRCLE
  5
13B
330
11C
100
AcDbEntity
  8
0
  6
Continuous
 62
     7
370
    25
100
AcDbCircle
 10
360.0
 20
-22.7273151228
 30
0.0
 40
3.999999999999943
  0
CIRCLE
  5
13C
330
11C
100
AcDbEntity
  8
0
  6
Continuous
 62
     7
370
    25
100
AcDbCircle
 10
360.0
 20
34.2726848772
 30
0.0
 40
3.999999999999943
  0
CIRCLE
  5
13D
330
11C
100
AcDbEntity
  8
0
  6
Continuous
 62
     7
370
    25
100
AcDbCircle
 10
1140.0
 20
94.2726848772
 30
0.0
 40
4.0
  0
CIRCLE
  5
13E
330
11C
100
AcDbEntity
  8
0
  6
Continuous
 62
     7
370
    25
100
AcDbCircle
 10
1140.0
 20
34.2726848772
 30
0.0
 40
4.0
  0
CIRCLE
  5
13F
330
11C
100
AcDbEntity
  8
0
  6
Continuous
 62
     7
370
    25
100
AcDbCircle
 10
1140.0
 20
-22.7273151228
 30
0.0
 40
4.0
  0
LINE
  5
140
330
11C
100
AcDbEntity
  8
0
  6
Continuous
 62
     7
370
    25
100
AcDbLine
 10
1500.0
 20
130.2726848772
 30
0.0
 11
0.0
 21
130.2726848772
 31
0.0
  0
LINE
  5
141
330
11C
100
AcDbEntity
  8
0
  6
Continuous
 62
     7
370
    25
100
AcDbLine
 10
1500.0
 20
134.2726848772
 30
0.0
 11
1500.0
 21
-65.7273151228
 31
0.0
  0
LINE
  5
142
330
11C
100
AcDbEntity
  8
0
  6
Continuous
 62
     7
370
    25
100
AcDbLine
 10
0.0
 20
-61.7273151228
 30
0.0
 11
1500.0
 21
-61.7273151228
 31
0.0
  0
LINE
  5
143
330
11C
100
AcDbEntity
  8
0
  6
Continuous
 62
     7
370
    25
100
AcDbLine
 10
0.0
 20
134.2726848772
 30
0.0
 11
0.0
 21
-65.7273151228
 31
0.0
  0
LINE
  5
144
330
11C
100
AcDbEntity
  8
0
  6
Continuous
 62
     7
370
    25
100
AcDbLine
 10
0.0
 20
134.2726848772
 30
0.0
 11
1500.0
 21
134.2726848772
 31
0.0
  0
LINE
  5
145
330
11C
100
AcDbEntity
  8
0
  6
Continuous
 62
     7
370
    25
100
AcDbLine
 10
1500.0
 20
-65.7273151228
 30
0.0
 11
0.0
 21
-65.7273151228
 31
0.0
  0
VIEWPORT
  5
171
330
11C
100
AcDbEntity
  8
0
100
AcDbViewport
 10
0.0
 20
0.0
 30
0.0
 40
205.6
 41
156.0
 68
     1
 69
     1
 12
-705.7094206017
 22
-38.4549555257
 13
0.0
 23
0.0
 14
10.0
 24
10.0
 15
10.0
 25
10.0
 16
0.0
 26
0.0
 36
1.0
 17
0.0
 27
0.0
 37
0.0
 42
50.0
 43
0.0
 44
0.0
 45
1133.9753011543
 50
0.0
 51
0.0
 72
   100
 90
   557152
  1

281
     0
 71
     1
 74
     0
110
0.0
120
0.0
130
0.0
111
1.0
121
0.0
131
0.0
112
0.0
122
1.0
132
0.0
 79
     0
146
0.0
  0
ENDBLK
  5
11F
330
11C
100
AcDbEntity
  8
0
100
AcDbBlockEnd
  0
ENDSEC
  0
SECTION
  2
ENTITIES
  0
LWPOLYLINE
  5
77
330
1F
100
AcDbEntity
  8
0
  6
Continuous
 62
     7
370
    25
100
AcDbPolyline
 90
        9
 70
   128
 43
0.0
 10
-1411.5387388068
 20
-145.9784052696
 10
-1411.4092240897
 20
-146.6600411311
 10
-1411.2419358243
 20
-147.2529914422
 10
-1411.0433028051
 20
-147.734469455
 10
-1410.8209583874
 20
-148.0859722395
 10
-1410.5834471427
 20
-148.2939917407
 10
-1410.3398964947
 20
-148.350533886
 10
-1410.0996659584
 20
-148.2534257923
 10
-1409.8719874585
 20
-148.0063992692
  0
LWPOLYLINE
  5
7B
330
1F
100
AcDbEntity
  8
0
  6
Continuous
 62
     7
370
    25
100
AcDbPolyline
 90
        9
 70
   128
 43
0.0
 10
-1425.6303006478
 20
47.7125880761
 10
-1425.759815365
 20
48.3942239376
 10
-1425.9271036303
 20
48.9871742487
 10
-1426.1257366495
 20
49.4686522615
 10
-1426.3480810672
 20
49.820155046
 10
-1426.585592312
 20
50.0281745472
 10
-1426.8291429599
 20
50.0847166925
 10
-1427.0693734963
 20
49.9876085988
 10
-1427.2970519962
 20
49.7405820757
  0
LWPOLYLINE
  5
7D
330
1F
100
AcDbEntity
  8
0
  6
Continuous
 62
     7
370
    25
100
AcDbPolyline
 90
       22
 70
   128
 43
0.0
 10
-1428.0184804644
 20
4.0424405299
 10
-1427.8043435241
 20
3.0313367102
 10
-1427.5097699792
 20
2.2554643536
 10
-1427.160933982
 20
1.7837631238
 10
-1426.7888311415
 20
1.6581457452
 10
-1426.4265244282
 20
1.889773873
 10
-1426.1062063834
 20
2.4580663316
 10
-1425.8563386712
 20
3.3125278423
 10
-1425.6991231342
 20
4.3772357499
 10
-1425.648529063
 20
5.5575860846
 10
-1425.7090519627
 20
6.7486995392
 10
-1425.875314108
 20
7.8447404562
 10
-1426.1325423779
 20
8.7483207901
 10
-1426.4578809116
 20
9.379153463
 10
-1426.8224219527
 20
9.6811862236
 10
-1427.1937744299
 20
9.6275821357
 10
-1427.538942046
 20
9.2231041576
 10
-1427.8272551436
 20
8.5036919328
 10
-1428.0330958387
 20
7.5332683945
 10
-1428.1381742822
 20
6.3980599328
 10
-1428.1331537933
 20
5.1989348012
 10
-1428.0184804644
 20
4.0424405299
  0
LWPOLYLINE
  5
7E
330
1F
100
AcDbEntity
  8
0
  6
Continuous
 62
     7
370
    25
100
AcDbPolyline
 90
       22
 70
   128
 43
0.0
 10
-1411.3893591935
 20
-105.5808130608
 10
-1411.1752222532
 20
-106.5919168805
 10
-1410.8806487084
 20
-107.3677892371
 10
-1410.5318127111
 20
-107.8394904669
 10
-1410.1597098706
 20
-107.9651078456
 10
-1409.7974031573
 20
-107.7334797178
 10
-1409.4770851125
 20
-107.1651872591
 10
-1409.2272174003
 20
-106.3107257484
 10
-1409.0700018634
 20
-105.2460178408
 10
-1409.0194077921
 20
-104.0656675061
 10
-1409.0799306918
 20
-102.8745540515
 10
-1409.2461928372
 20
-101.7785131346
 10
-1409.503421107
 20
-100.8749328006
 10
-1409.8287596407
 20
-100.2441001277
 10
-1410.1933006818
 20
-99.9420673671
 10
-1410.564653159
 20
-99.995671455
 10
-1410.9098207752
 20
-100.4001494331
 10
-1411.1981338728
 20
-101.1195616579
 10
-1411.4039745678
 20
-102.0899851962
 10
-1411.5090530113
 20
-103.225193658
 10
-1411.5040325224
 20
-104.4243187896
 10
-1411.3893591935
 20
-105.5808130608
  0
LWPOLYLINE
  5
84
330
1F
100
AcDbEntity
  8
0
  6
Continuous
 62
     7
370
    25
100
AcDbPolyline
 90
       46
 70
   128
 43
0.0
 10
-44.4950127824
 20
49.1725613017
 10
-46.8518506781
 20
48.9768683943
 10
-49.1142653655
 20
48.4649306362
 10
-51.2382215161
 20
47.6467123137
 10
-53.1823787394
 20
46.5381391156
 10
-54.9088962267
 20
45.1607881582
 10
-56.3841692787
 20
43.5414680113
 10
-57.5794833838
 20
41.7116968995
 10
-58.4715731124
 20
39.7070892363
 10
-59.0430749528
 20
37.5666624295
 10
-59.2828652717
 20
35.3320774522
 10
-59.1862768233
 20
33.0468279593
 10
-58.7551895919
 20
30.7553937326
 10
-57.9979942
 20
28.502374933
 10
-56.9294285948
 20
26.3316240086
 10
-55.5702911901
 20
24.2853921569
 10
-53.9470360497
 20
22.4035069534
 10
-52.0912579884
 20
20.722597153
 10
-50.0390776152
 20
19.2753797529
 10
-47.8304382868
 20
18.0900231936
 10
-45.5083286554
 20
17.1895990923
 10
-43.1179459436
 20
16.5916331798
 10
-40.705816232
 20
16.3077641824
 10
-38.3188888815
 20
16.3435172874
 10
-36.003622718
 20
16.6981966011
 10
-33.8050817637
 20
17.3648986942
 10
-31.7660581176
 20
18.3306469688
 10
-29.9262390555
 20
19.5766442332
 10
-28.3214345628
 20
21.0786385681
 10
-26.9828803334
 20
22.8073953621
 10
-25.9366298029
 20
24.7292663307
 10
-25.2030470476
 20
26.8068444416
 10
-24.7964104216
 20
28.9996920001
 10
-24.7246346442
 20
31.2651277227
 10
-24.9891167492
 20
33.5590574801
 10
-25.5847088934
 20
35.8368325388
 10
-26.4998185531
 20
38.0541185982
 10
-27.7166341597
 20
40.1677587073
 10
-29.2114717815
 20
42.1366132656
 10
-30.9552361047
 20
43.9223607587
 10
-32.91398674
 20
45.4902436429
 10
-35.0495988345
 20
46.8097448612
 10
-37.320505128
 20
47.8551818235
 10
-39.6825050126
 20
48.6062062882
 10
-42.0896248473
 20
49.0482004186
 10
-44.4950127824
 20
49.1725613017
  0
LWPOLYLINE
  5
85
330
1F
100
AcDbEntity
  8
0
  6
Continuous
 62
     7
370
    25
100
AcDbPolyline
 90
       46
 70
   128
 43
0.0
 10
-28.2816195434
 20
-57.7101109493
 10
-30.638457439
 20
-57.9058038567
 10
-32.9008721264
 20
-58.4177416147
 10
-35.024828277
 20
-59.2359599373
 10
-36.9689855004
 20
-60.3445331354
 10
-38.6955029876
 20
-61.7218840927
 10
-40.1707760396
 20
-63.3412042396
 10
-41.3660901447
 20
-65.1709753514
 10
-42.2581798733
 20
-67.1755830147
 10
-42.8296817137
 20
-69.3160098215
 10
-43.0694720326
 20
-71.5505947988
 10
-42.9728835842
 20
-73.8358442917
 10
-42.5417963528
 20
-76.1272785183
 10
-41.7846009609
 20
-78.380297318
 10
-40.7160353557
 20
-80.5510482424
 10
-39.356897951
 20
-82.597280094
 10
-37.7336428106
 20
-84.4791652975
 10
-35.8778647493
 20
-86.160075098
 10
-33.8256843761
 20
-87.6072924981
 10
-31.6170450477
 20
-88.7926490573
 10
-29.2949354163
 20
-89.6930731587
 10
-26.9045527045
 20
-90.2910390712
 10
-24.4924229929
 20
-90.5749080685
 10
-22.1054956424
 20
-90.5391549636
 10
-19.7902294789
 20
-90.1844756499
 10
-17.5916885246
 20
-89.5177735568
 10
-15.5526648785
 20
-88.5520252822
 10
-13.7128458165
 20
-87.3060280177
 10
-12.1080413237
 20
-85.8040336829
 10
-10.7694870943
 20
-84.0752768889
 10
-9.7232365638
 20
-82.1534059203
 10
-8.9896538085
 20
-80.0758278094
 10
-8.5830171825
 20
-77.8829802509
 10
-8.5112414051
 20
-75.6175445283
 10
-8.7757235101
 20
-73.3236147709
 10
-9.3713156543
 20
-71.0458397122
 10
-10.286425314
 20
-68.8285536528
 10
-11.5032409206
 20
-66.7149135436
 10
-12.9980785424
 20
-64.7460589853
 10
-14.7418428656
 20
-62.9603114922
 10
-16.7005935009
 20
-61.3924286081
 10
-18.8362055954
 20
-60.0729273897
 10
-21.1071118889
 20
-59.0274904275
 10
-23.4691117735
 20
-58.2764659627
 10
-25.8762316082
 20
-57.8344718323
 10
-28.2816195434
 20
-57.7101109493
  0
LWPOLYLINE
  5
86
330
1F
100
AcDbEntity
  8
0
  6
Continuous
 62
     7
370
    25
100
AcDbPolyline
 90
       46
 70
   128
 43
0.0
 10
-1375.195197817
 20
29.2403822358
 10
-1377.5520357127
 20
29.0446893283
 10
-1379.8144504
 20
28.5327515703
 10
-1381.9384065506
 20
27.7145332477
 10
-1383.882563774
 20
26.6059600496
 10
-1385.6090812612
 20
25.2286090923
 10
-1387.0843543133
 20
23.6092889454
 10
-1388.2796684184
 20
21.7795178336
 10
-1389.171758147
 20
19.7749101703
 10
-1389.7432599874
 20
17.6344833635
 10
-1389.9830503063
 20
15.3998983862
 10
-1389.8864618579
 20
13.1146488933
 10
-1389.4553746264
 20
10.8232146667
 10
-1388.6981792346
 20
8.5701958671
 10
-1387.6296136293
 20
6.3994449426
 10
-1386.2704762247
 20
4.353213091
 10
-1384.6472210843
 20
2.4713278875
 10
-1382.791443023
 20
0.7904180871
 10
-1380.7392626498
 20
-0.656799313
 10
-1378.5306233214
 20
-1.8421558723
 10
-1376.20851369
 20
-2.7425799737
 10
-1373.8181309782
 20
-3.3405458862
 10
-1371.4060012665
 20
-3.6244148835
 10
-1369.0190739161
 20
-3.5886617786
 10
-1366.7038077526
 20
-3.2339824648
 10
-1364.5052667983
 20
-2.5672803718
 10
-1362.4662431522
 20
-1.6015320972
 10
-1360.6264240901
 20
-0.3555348327
 10
-1359.0216195974
 20
1.1464595021
 10
-1357.683065368
 20
2.8752162961
 10
-1356.6368148374
 20
4.7970872647
 10
-1355.9032320822
 20
6.8746653756
 10
-1355.4965954562
 20
9.0675129341
 10
-1355.4248196788
 20
11.3329486568
 10
-1355.6893017838
 20
13.6268784141
 10
-1356.284893928
 20
15.9046534728
 10
-1357.2000035876
 20
18.1219395323
 10
-1358.4168191943
 20
20.2355796414
 10
-1359.9116568161
 20
22.2044341997
 10
-1361.6554211392
 20
23.9901816928
 10
-1363.6141717746
 20
25.558064577
 10
-1365.7497838691
 20
26.8775657953
 10
-1368.0206901626
 20
27.9230027575
 10
-1370.3826900472
 20
28.6740272223
 10
-1372.7898098818
 20
29.1160213527
 10
-1375.195197817
 20
29.2403822358
  0
LWPOLYLINE
  5
87
330
1F
100
AcDbEntity
  8
0
  6
Continuous
 62
     7
370
    25
100
AcDbPolyline
 90
       46
 70
   128
 43
0.0
 10
-1358.9818045779
 20
-77.6422900152
 10
-1361.3386424736
 20
-77.8379829226
 10
-1363.6010571609
 20
-78.3499206807
 10
-1365.7250133115
 20
-79.1681390032
 10
-1367.6691705349
 20
-80.2767122013
 10
-1369.3956880221
 20
-81.6540631587
 10
-1370.8709610742
 20
-83.2733833056
 10
-1372.0662751793
 20
-85.1031544174
 10
-1372.9583649079
 20
-87.1077620806
 10
-1373.5298667483
 20
-89.2481888874
 10
-1373.7696570672
 20
-91.4827738647
 10
-1373.6730686188
 20
-93.7680233576
 10
-1373.2419813873
 20
-96.0594575843
 10
-1372.4847859955
 20
-98.3124763839
 10
-1371.4162203902
 20
-100.4832273083
 10
-1370.0570829856
 20
-102.52945916
 10
-1368.4338278452
 20
-104.4113443635
 10
-1366.5780497839
 20
-106.0922541639
 10
-1364.5258694107
 20
-107.539471564
 10
-1362.3172300823
 20
-108.7248281233
 10
-1359.9951204509
 20
-109.6252522246
 10
-1357.6047377391
 20
-110.2232181371
 10
-1355.1926080275
 20
-110.5070871345
 10
-1352.805680677
 20
-110.4713340295
 10
-1350.4904145135
 20
-110.1166547158
 10
-1348.2918735592
 20
-109.4499526227
 10
-1346.2528499131
 20
-108.4842043481
 10
-1344.413030851
 20
-107.2382070837
 10
-1342.8082263583
 20
-105.7362127488
 10
-1341.4696721289
 20
-104.0074559548
 10
-1340.4234215983
 20
-102.0855849862
 10
-1339.6898388431
 20
-100.0080068753
 10
-1339.2832022171
 20
-97.8151593169
 10
-1339.2114264397
 20
-95.5497235942
 10
-1339.4759085447
 20
-93.2557938368
 10
-1340.0715006889
 20
-90.9780187781
 10
-1340.9866103486
 20
-88.7607327187
 10
-1342.2034259552
 20
-86.6470926096
 10
-1343.698263577
 20
-84.6782380513
 10
-1345.4420279001
 20
-82.8924905582
 10
-1347.4007785355
 20
-81.324607674
 10
-1349.53639063
 20
-80.0051064557
 10
-1351.8072969235
 20
-78.9596694934
 10
-1354.1692968081
 20
-78.2086450287
 10
-1356.5764166427
 20
-77.7666508983
 10
-1358.9818045779
 20
-77.6422900152
  0
LWPOLYLINE
  5
88
330
1F
100
AcDbEntity
  8
0
  6
Continuous
 62
     7
370
    25
100
AcDbPolyline
 90
       30
 70
   128
 43
0.0
 10
-1265.9086038723
 20
4.3248736882
 10
-1265.4925085852
 20
2.7564859585
 10
-1264.7403148131
 20
1.2667600477
 10
-1263.6871943007
 20
-0.0746461166
 10
-1262.3823897928
 20
-1.2050098728
 10
-1260.8869124979
 20
-2.071476668
 10
-1259.2706892723
 20
-2.633531478
 10
-1257.6092929177
 20
-2.8648932445
 10
-1255.980408481
 20
-2.7547437484
 10
-1254.4602007883
 20
-2.3082334577
 10
-1253.1197530616
 20
-1.5462406975
 10
-1252.0217431468
 20
-0.5043954021
 10
-1251.2175127673
 20
0.7685869002
 10
-1250.7446668416
 20
2.2131829719
 10
-1250.6253151197
 20
3.7618451061
 10
-1250.8650383556
 20
5.3421595827
 10
-1251.4526273571
 20
6.8802326532
 10
-1252.3606071156
 20
8.3041457302
 10
-1253.5465215067
 20
9.5473182208
 10
-1254.9549184916
 20
10.5516207611
 10
-1256.5199429925
 20
11.2700932804
 10
-1258.1684162033
 20
11.6691408023
 10
-1259.8232573486
 20
11.7301043082
 10
-1261.4070878958
 20
11.4501332123
 10
-1262.8458496888
 20
10.8423186518
 10
-1264.0722678252
 20
9.9350813601
 10
-1265.028996356
 20
8.7708427446
 10
-1265.6712997185
 20
7.404041309
 10
-1265.9691445212
 20
5.8985871694
 10
-1265.9086038723
 20
4.3248736882
  0
LWPOLYLINE
  5
89
330
1F
100
AcDbEntity
  8
0
  6
Continuous
 62
     7
370
    25
100
AcDbPolyline
 90
       30
 70
   128
 43
0.0
 10
-1252.6053068556
 20
-83.3737291844
 10
-1252.1892115685
 20
-84.942116914
 10
-1251.4370177964
 20
-86.4318428249
 10
-1250.383897284
 20
-87.7732489891
 10
-1249.0790927761
 20
-88.9036127454
 10
-1247.5836154812
 20
-89.7700795406
 10
-1245.9673922556
 20
-90.3321343506
 10
-1244.305995901
 20
-90.5634961171
 10
-1242.6771114643
 20
-90.453346621
 10
-1241.1569037716
 20
-90.0068363303
 10
-1239.8164560449
 20
-89.24484357
 10
-1238.7184461301
 20
-88.2029982747
 10
-1237.9142157506
 20
-86.9300159724
 10
-1237.4413698249
 20
-85.4854199007
 10
-1237.322018103
 20
-83.9367577665
 10
-1237.5617413389
 20
-82.3564432899
 10
-1238.1493303404
 20
-80.8183702194
 10
-1239.0573100989
 20
-79.3944571424
 10
-1240.24322449
 20
-78.1512846517
 10
-1241.6516214749
 20
-77.1469821115
 10
-1243.2166459758
 20
-76.4285095921
 10
-1244.8651191866
 20
-76.0294620702
 10
-1246.5199603319
 20
-75.9684985644
 10
-1248.1037908791
 20
-76.2484696603
 10
-1249.5425526721
 20
-76.8562842208
 10
-1250.7689708085
 20
-77.7635215125
 10
-1251.7256993393
 20
-78.927760128
 10
-1252.3680027018
 20
-80.2945615635
 10
-1252.6658475045
 20
-81.8000157031
 10
-1252.6053068556
 20
-83.3737291844
  0
LWPOLYLINE
  5
8A
330
1F
100
AcDbEntity
  8
0
  6
Continuous
 62
     7
370
    25
100
AcDbPolyline
 90
       30
 70
   128
 43
0.0
 10
-713.4304020499
 20
12.6002873182
 10
-713.0143067629
 20
11.0318995886
 10
-712.2621129907
 20
9.5421736777
 10
-711.2089924783
 20
8.2007675135
 10
-709.9041879704
 20
7.0704037573
 10
-708.4087106755
 20
6.203936962
 10
-706.7924874499
 20
5.641882152
 10
-705.1310910953
 20
5.4105203855
 10
-703.5022066587
 20
5.5206698816
 10
-701.9819989659
 20
5.9671801723
 10
-700.6415512392
 20
6.7291729326
 10
-699.5435413245
 20
7.771018228
 10
-698.7393109449
 20
9.0440005303
 10
-698.2664650192
 20
10.4885966019
 10
-698.1471132973
 20
12.0372587362
 10
-698.3868365332
 20
13.6175732128
 10
-698.9744255347
 20
15.1556462833
 10
-699.8824052932
 20
16.5795593603
 10
-701.0683196843
 20
17.8227318509
 10
-702.4767166692
 20
18.8270343912
 10
-704.0417411702
 20
19.5455069105
 10
-705.6902143809
 20
19.9445544324
 10
-707.3450555262
 20
20.0055179383
 10
-708.9288860734
 20
19.7255468423
 10
-710.3676478664
 20
19.1177322818
 10
-711.5940660028
 20
18.2104949902
 10
-712.5507945336
 20
17.0462563747
 10
-713.1930978961
 20
15.6794549391
 10
-713.4909426988
 20
14.1740007995
 10
-713.4304020499
 20
12.6002873182
  0
LWPOLYLINE
  5
8B
330
1F
100
AcDbEntity
  8
0
  6
Continuous
 62
     7
370
    25
100
AcDbPolyline
 90
       30
 70
   128
 43
0.0
 10
-700.1271050333
 20
-75.0983155544
 10
-699.7110097462
 20
-76.666703284
 10
-698.958815974
 20
-78.1564291949
 10
-697.9056954617
 20
-79.4978353591
 10
-696.6008909537
 20
-80.6281991153
 10
-695.1054136588
 20
-81.4946659106
 10
-693.4891904332
 20
-82.0567207206
 10
-691.8277940786
 20
-82.288082487
 10
-690.198909642
 20
-82.1779329909
 10
-688.6787019492
 20
-81.7314227003
 10
-687.3382542225
 20
-80.96942994
 10
-686.2402443078
 20
-79.9275846446
 10
-685.4360139282
 20
-78.6546023423
 10
-684.9631680025
 20
-77.2100062707
 10
-684.8438162806
 20
-75.6613441364
 10
-685.0835395165
 20
-74.0810296598
 10
-685.671128518
 20
-72.5429565893
 10
-686.5791082765
 20
-71.1190435123
 10
-687.7650226677
 20
-69.8758710217
 10
-689.1734196525
 20
-68.8715684814
 10
-690.7384441535
 20
-68.1530959621
 10
-692.3869173642
 20
-67.7540484402
 10
-694.0417585095
 20
-67.6930849343
 10
-695.6255890567
 20
-67.9730560303
 10
-697.0643508497
 20
-68.5808705907
 10
-698.2907689861
 20
-69.4881078824
 10
-699.2474975169
 20
-70.6523464979
 10
-699.8898008794
 20
-72.0191479335
 10
-700.1876456821
 20
-73.5246020731
 10
-700.1271050333
 20
-75.0983155544
  0
LWPOLYLINE
  5
8C
330
1F
100
AcDbEntity
  8
0
  6
Continuous
 62
     7
370
    25
100
AcDbPolyline
 90
       22
 70
   128
 43
0.0
 10
-1081.8715516864
 20
17.1531431184
 10
-1081.5371786346
 20
16.0718899739
 10
-1080.8925802613
 20
15.0918027184
 10
-1079.9950319608
 20
14.2999664055
 10
-1078.9242848385
 20
13.7667391665
 10
-1077.7754794749
 20
13.5395005817
 10
-1076.6506922682
 20
13.6384417966
 10
-1075.6498654977
 20
14.0547714499
 10
-1074.861927014
 20
14.751496825
 10
-1074.3568886092
 20
15.6667108148
 10
-1074.1796251619
 20
16.7190926399
 10
-1074.3458873073
 20
17.8151335568
 10
-1074.8409019241
 20
18.8574455202
 10
-1075.6206847913
 20
19.7534145381
 10
-1076.6159487792
 20
20.4234298313
 10
-1077.7382603147
 20
20.8079576006
 10
-1078.8878970928
 20
20.8728308664
 10
-1079.9627088406
 20
20.6122853542
 10
-1080.8671938176
 20
20.0494716762
 10
-1081.5209845643
 20
19.2343982976
 10
-1081.8659889038
 20
18.2394880649
 10
-1081.8715516864
 20
17.1531431184
  0
LWPOLYLINE
  5
8D
330
1F
100
AcDbEntity
  8
0
  6
Continuous
 62
     7
370
    25
100
AcDbPolyline
 90
       22
 70
   128
 43
0.0
 10
-1073.9727190828
 20
-34.9179023372
 10
-1073.6383460309
 20
-35.9991554817
 10
-1072.9937476577
 20
-36.9792427372
 10
-1072.0961993572
 20
-37.7710790501
 10
-1071.0254522348
 20
-38.3043062891
 10
-1069.8766468713
 20
-38.5315448739
 10
-1068.7518596646
 20
-38.432603659
 10
-1067.7510328941
 20
-38.0162740057
 10
-1066.9630944104
 20
-37.3195486306
 10
-1066.4580560056
 20
-36.4043346408
 10
-1066.2807925582
 20
-35.3519528157
 10
-1066.4470547036
 20
-34.2559118988
 10
-1066.9420693205
 20
-33.2135999354
 10
-1067.7218521877
 20
-32.3176309175
 10
-1068.7171161755
 20
-31.6476156243
 10
-1069.8394277111
 20
-31.263087855
 10
-1070.9890644891
 20
-31.1982145892
 10
-1072.0638762369
 20
-31.4587601014
 10
-1072.9683612139
 20
-32.0215737794
 10
-1073.6221519606
 20
-32.836647158
 10
-1073.9671563001
 20
-33.8315573907
 10
-1073.9727190828
 20
-34.9179023372
  0
LWPOLYLINE
  5
8E
330
1F
100
AcDbEntity
  8
0
  6
Continuous
 62
     7
370
    25
100
AcDbPolyline
 90
       22
 70
   128
 43
0.0
 10
-1065.6581584473
 20
-89.7295291326
 10
-1065.3237853955
 20
-90.810782277
 10
-1064.6791870222
 20
-91.7908695326
 10
-1063.7816387217
 20
-92.5827058455
 10
-1062.7108915994
 20
-93.1159330844
 10
-1061.5620862358
 20
-93.3431716692
 10
-1060.4372990291
 20
-93.2442304544
 10
-1059.4364722586
 20
-92.827900801
 10
-1058.6485337749
 20
-92.1311754259
 10
-1058.1434953701
 20
-91.2159614362
 10
-1057.9662319228
 20
-90.1635796111
 10
-1058.1324940682
 20
-89.0675386942
 10
-1058.627508685
 20
-88.0252267307
 10
-1059.4072915523
 20
-87.1292577129
 10
-1060.4025555401
 20
-86.4592424197
 10
-1061.5248670756
 20
-86.0747146503
 10
-1062.6745038537
 20
-86.0098413846
 10
-1063.7493156015
 20
-86.2703868968
 10
-1064.6538005785
 20
-86.8332005748
 10
-1065.3075913252
 20
-87.6482739534
 10
-1065.6525956647
 20
-88.6431841861
 10
-1065.6581584473
 20
-89.7295291326
  0
LWPOLYLINE
  5
8F
330
1F
100
AcDbEntity
  8
0
  6
Continuous
 62
     7
370
    25
100
AcDbPolyline
 90
       22
 70
   128
 43
0.0
 10
-340.4814485957
 20
28.2582143123
 10
-340.1470755439
 20
27.1769611678
 10
-339.5024771706
 20
26.1968739123
 10
-338.6049288701
 20
25.4050375994
 10
-337.5341817478
 20
24.8718103604
 10
-336.3853763842
 20
24.6445717756
 10
-335.2605891775
 20
24.7435129905
 10
-334.259762407
 20
25.1598426438
 10
-333.4718239233
 20
25.8565680189
 10
-332.9667855185
 20
26.7717820087
 10
-332.7895220712
 20
27.8241638337
 10
-332.9557842166
 20
28.9202047507
 10
-333.4507988334
 20
29.9625167141
 10
-334.2305817007
 20
30.858485732
 10
-335.2258456885
 20
31.5285010252
 10
-336.348157224
 20
31.9130287945
 10
-337.4977940021
 20
31.9779020603
 10
-338.5726057499
 20
31.7173565481
 10
-339.4770907269
 20
31.1545428701
 10
-340.1308814736
 20
30.3394694915
 10
-340.4758858131
 20
29.3445592588
 10
-340.4814485957
 20
28.2582143123
  0
LWPOLYLINE
  5
90
330
1F
100
AcDbEntity
  8
0
  6
Continuous
 62
     7
370
    25
100
AcDbPolyline
 90
       22
 70
   128
 43
0.0
 10
-332.5826159921
 20
-23.8128311433
 10
-332.2482429402
 20
-24.8940842878
 10
-331.603644567
 20
-25.8741715433
 10
-330.7060962665
 20
-26.6660078562
 10
-329.6353491441
 20
-27.1992350952
 10
-328.4865437806
 20
-27.42647368
 10
-327.3617565739
 20
-27.3275324651
 10
-326.3609298034
 20
-26.9112028118
 10
-325.5729913197
 20
-26.2144774367
 10
-325.0679529149
 20
-25.2992634469
 10
-324.8906894676
 20
-24.2468816219
 10
-325.0569516129
 20
-23.1508407049
 10
-325.5519662298
 20
-22.1085287415
 10
-326.331749097
 20
-21.2125597236
 10
-327.3270130849
 20
-20.5425444304
 10
-328.4493246204
 20
-20.1580166611
 10
-329.5989613985
 20
-20.0931433953
 10
-330.6737731462
 20
-20.3536889075
 10
-331.5782581232
 20
-20.9165025855
 10
-332.2320488699
 20
-21.7315759641
 10
-332.5770532094
 20
-22.7264861968
 10
-332.5826159921
 20
-23.8128311433
  0
LWPOLYLINE
  5
91
330
1F
100
AcDbEntity
  8
0
  6
Continuous
 62
     7
370
    25
100
AcDbPolyline
 90
       22
 70
   128
 43
0.0
 10
-324.2680553566
 20
-78.6244579387
 10
-323.9336823048
 20
-79.7057110832
 10
-323.2890839315
 20
-80.6857983387
 10
-322.3915356311
 20
-81.4776346516
 10
-321.3207885087
 20
-82.0108618905
 10
-320.1719831451
 20
-82.2381004753
 10
-319.0471959384
 20
-82.1391592605
 10
-318.0463691679
 20
-81.7228296072
 10
-317.2584306842
 20
-81.0261042321
 10
-316.7533922794
 20
-80.1108902423
 10
-316.5761288321
 20
-79.0585084172
 10
-316.7423909775
 20
-77.9624675003
 10
-317.2374055943
 20
-76.9201555368
 10
-318.0171884616
 20
-76.024186519
 10
-319.0124524494
 20
-75.3541712258
 10
-320.1347639849
 20
-74.9696434565
 10
-321.284400763
 20
-74.9047701907
 10
-322.3592125108
 20
-75.1653157029
 10
-323.2636974878
 20
-75.7281293809
 10
-323.9174882345
 20
-76.5432027595
 10
-324.262492574
 20
-77.5381129922
 10
-324.2680553566
 20
-78.6244579387
  0
LWPOLYLINE
  5
92
330
1F
100
AcDbEntity
  8
0
  6
Continuous
 62
     7
370
    25
100
AcDbPolyline
 90
       30
 70
   128
 43
0.0
 10
-152.2395910855
 20
13.6813822083
 10
-153.9001451811
 20
13.8277595194
 10
-155.5348908947
 20
14.3090164902
 10
-157.0673893336
 20
15.1026500795
 10
-158.425982574
 20
16.1715508628
 10
-159.5471443061
 20
17.4657382275
 10
-160.3784502532
 20
18.9246974108
 10
-160.8810294732
 20
20.4802091028
 10
-161.0313819204
 20
22.0595393055
 10
-160.8224772814
 20
23.5888402941
 10
-160.2640837051
 20
24.9966036539
 10
-159.3823110543
 20
26.217003935
 10
-158.2183900383
 20
27.1929765765
 10
-156.8267443101
 20
27.8788861824
 10
-155.2724456773
 20
28.2426603819
 10
-153.6281714164
 20
28.2672894977
 10
-151.9708059645
 20
27.9516218998
 10
-150.3778458881
 20
27.3104178542
 10
-148.9237762298
 20
26.3736593493
 10
-147.6765876708
 20
25.1851481719
 10
-146.694597362
 20
23.8004577835
 10
-146.0237220787
 20
22.2843347678
 10
-145.6953312038
 20
20.707671352
 10
-145.7247799293
 20
19.144190565
 10
-146.1106912658
 20
17.6669990307
 10
-146.8350204279
 20
16.3451685835
 10
-147.8638985892
 20
15.2405065461
 10
-149.1492165503
 20
14.4046656874
 10
-150.6308742718
 20
13.8767289972
 10
-152.2395910855
 20
13.6813822083
  0
LWPOLYLINE
  5
93
330
1F
100
AcDbEntity
  8
0
  6
Continuous
 62
     7
370
    25
100
AcDbPolyline
 90
       30
 70
   128
 43
0.0
 10
-138.9362940688
 20
-74.0172206643
 10
-140.5968481644
 20
-73.8708433532
 10
-142.231593878
 20
-73.3895863824
 10
-143.7640923169
 20
-72.5959527931
 10
-145.1226855573
 20
-71.5270520097
 10
-146.2438472894
 20
-70.2328646451
 10
-147.0751532365
 20
-68.7739054618
 10
-147.5777324565
 20
-67.2183937698
 10
-147.7280849037
 20
-65.6390635671
 10
-147.5191802647
 20
-64.1097625785
 10
-146.9607866884
 20
-62.7019992187
 10
-146.0790140376
 20
-61.4815989376
 10
-144.9150930216
 20
-60.5056262961
 10
-143.5234472934
 20
-59.8197166902
 10
-141.9691486606
 20
-59.4559424907
 10
-140.3248743998
 20
-59.4313133749
 10
-138.6675089479
 20
-59.7469809728
 10
-137.0745488714
 20
-60.3881850184
 10
-135.6204792131
 20
-61.3249435232
 10
-134.3732906541
 20
-62.5134547007
 10
-133.3913003453
 20
-63.8981450891
 10
-132.7204250621
 20
-65.4142681047
 10
-132.3920341871
 20
-66.9909315206
 10
-132.4214829126
 20
-68.5544123076
 10
-132.8073942491
 20
-70.0316038419
 10
-133.5317234112
 20
-71.3534342891
 10
-134.5606015725
 20
-72.4580963265
 10
-135.8459195336
 20
-73.2939371851
 10
-137.3275772551
 20
-73.8218738753
 10
-138.9362940688
 20
-74.0172206643
  0
LWPOLYLINE
  5
97
330
1F
100
AcDbEntity
  8
0
  6
Continuous
 62
     7
370
    25
100
AcDbPolyline
 90
       14
 70
   128
 43
0.0
 10
-1347.5590875612
 20
-109.1456157173
 10
-1347.5547812346
 20
-107.7455819945
 10
-1347.8192633397
 20
-105.4516522371
 10
-1348.4148554838
 20
-103.1738771784
 10
-1349.3299651435
 20
-100.956591119
 10
-1350.5467807501
 20
-98.8429510099
 10
-1352.041618372
 20
-96.8740964516
 10
-1353.7853826951
 20
-95.0883489585
 10
-1355.7441333304
 20
-93.5204660743
 10
-1357.879745425
 20
-92.200964856
 10
-1360.1506517185
 20
-91.1555278938
 10
-1362.512651603
 20
-90.404503429
 10
-1364.9197714377
 20
-89.9625092986
 10
-1367.3251593729
 20
-89.8381484155
  0
LWPOLYLINE
  5
98
330
1F
100
AcDbEntity
  8
0
  6
Continuous
 62
     7
370
    25
100
AcDbPolyline
 90
        6
 70
   128
 43
0.0
 10
-1411.3586438946
 20
-105.5702939137
 10
-1411.1458369974
 20
-106.5751175855
 10
-1410.8530931018
 20
-107.3461708591
 10
-1410.5064237878
 20
-107.8149422676
 10
-1410.1366321451
 20
-107.9397794141
 10
-1409.7842057912
 20
-107.7184364364
  0
LWPOLYLINE
  5
99
330
1F
100
AcDbEntity
  8
0
  6
Continuous
 62
     7
370
    25
100
AcDbPolyline
 90
        9
 70
   128
 43
0.0
 10
-1409.8974547293
 20
-100.1577787508
 10
-1410.1700143177
 20
-99.9665714852
 10
-1410.5390602578
 20
-100.0198426285
 10
-1410.8820839757
 20
-100.421808321
 10
-1411.1686063087
 20
-101.1367521469
 10
-1411.3731684902
 20
-102.1011482098
 10
-1411.4775942725
 20
-103.2293056873
 10
-1411.4726049667
 20
-104.4209828367
 10
-1411.3586438946
 20
-105.5702939137
  0
LWPOLYLINE
  5
9C
330
1F
100
AcDbEntity
  8
0
  6
Continuous
 62
     7
370
    25
100
AcDbPolyline
 90
       14
 70
   128
 43
0.0
 10
-1363.7724808003
 20
-2.2629434664
 10
-1363.7681744737
 20
-0.8629097436
 10
-1364.0326565787
 20
1.4310200138
 10
-1364.6282487229
 20
3.7087950725
 10
-1365.5433583826
 20
5.9260811319
 10
-1366.7601739892
 20
8.0397212411
 10
-1368.255011611
 20
10.0085757994
 10
-1369.9987759342
 20
11.7943232925
 10
-1371.9575265695
 20
13.3622061766
 10
-1374.0931386641
 20
14.681707395
 10
-1376.3640449576
 20
15.7271443572
 10
-1378.7260448421
 20
16.478168822
 10
-1381.1331646768
 20
16.9201629524
 10
-1383.538552612
 20
17.0445238354
  0
LWPOLYLINE
  5
9D
330
1F
100
AcDbEntity
  8
0
  6
Continuous
 62
     7
370
    25
100
AcDbPolyline
 90
        7
 70
   128
 43
0.0
 10
-1.052457843
 20
71.4419311165
 10
-0.8353940607
 20
71.3840806893
 10
-0.5978828159
 20
71.1760611881
 10
-0.3755383982
 20
70.8245584036
 10
-0.176905379
 20
70.3430803908
 10
-0.0096171136
 20
69.7501300797
 10
0.1198976035
 20
69.0684942182
  0
LWPOLYLINE
  5
9E
330
1F
100
AcDbEntity
  8
0
  6
Continuous
 62
     7
370
    25
100
AcDbPolyline
 90
        6
 70
   128
 43
0.0
 10
-1427.9877651654
 20
4.052959677
 10
-1427.7749582682
 20
3.0481360053
 10
-1427.4822143727
 20
2.2770827316
 10
-1427.1355450587
 20
1.8083113231
 10
-1426.765753416
 20
1.6834741766
 10
-1426.4133270621
 20
1.9048171543
  0
LWPOLYLINE
  5
9F
330
1F
100
AcDbEntity
  8
0
  6
Continuous
 62
     7
370
    25
100
AcDbPolyline
 90
        9
 70
   128
 43
0.0
 10
-1426.5265760001
 20
9.46547484
 10
-1426.7991355886
 20
9.6566821056
 10
-1427.1681815287
 20
9.6034109623
 10
-1427.5112052466
 20
9.2014452698
 10
-1427.7977275796
 20
8.4865014439
 10
-1428.002289761
 20
7.522105381
 10
-1428.1067155434
 20
6.3939479035
 10
-1428.1017262376
 20
5.202270754
 10
-1427.9877651654
 20
4.052959677
  0
LWPOLYLINE
  5
A0
330
1F
100
AcDbEntity
  8
0
  6
Continuous
 62
     7
370
    25
100
AcDbPolyline
 90
       22
 70
   128
 43
0.0
 10
-1065.6413487397
 20
-89.7393364162
 10
-1065.3090525391
 20
-90.8138737026
 10
-1064.6684578824
 20
-91.7878734596
 10
-1063.7764844161
 20
-92.5747915345
 10
-1062.712387897
 20
-93.1047068031
 10
-1061.5707179705
 20
-93.3305339681
 10
-1060.4529170197
 20
-93.232207295
 10
-1059.4583065646
 20
-92.8184635401
 10
-1058.6752621087
 20
-92.1260656518
 10
-1058.1733605884
 20
-91.216536221
 10
-1057.9971981563
 20
-90.170690929
 10
-1058.1624276176
 20
-89.0814577196
 10
-1058.6543676094
 20
-88.0456197435
 10
-1059.4293071048
 20
-87.1552157506
 10
-1060.4183893288
 20
-86.4893620431
 10
-1061.5337299852
 20
-86.107222645
 10
-1062.6762261622
 20
-86.0427523187
 10
-1063.7443620606
 20
-86.3016795358
 10
-1064.6432291185
 20
-86.8609974767
 10
-1065.2929590531
 20
-87.6710082878
 10
-1065.6358205085
 20
-88.6597389538
 10
-1065.6413487397
 20
-89.7393364162
  0
LWPOLYLINE
  5
A1
330
1F
100
AcDbEntity
  8
0
  6
Continuous
 62
     7
370
    25
100
AcDbPolyline
 90
       22
 70
   128
 43
0.0
 10
-1073.9559093751
 20
-34.9277096208
 10
-1073.6236131745
 20
-36.0022469072
 10
-1072.9830185179
 20
-36.9762466642
 10
-1072.0910450516
 20
-37.7631647392
 10
-1071.0269485324
 20
-38.2930800077
 10
-1069.8852786059
 20
-38.5189071727
 10
-1068.7674776552
 20
-38.4205804996
 10
-1067.7728672
 20
-38.0068367447
 10
-1066.9898227442
 20
-37.3144388564
 10
-1066.4879212239
 20
-36.4049094256
 10
-1066.3117587918
 20
-35.3590641336
 10
-1066.476988253
 20
-34.2698309242
 10
-1066.9689282449
 20
-33.2339929481
 10
-1067.7438677403
 20
-32.3435889552
 10
-1068.7329499642
 20
-31.6777352477
 10
-1069.8482906206
 20
-31.2955958496
 10
-1070.9907867976
 20
-31.2311255234
 10
-1072.058922696
 20
-31.4900527405
 10
-1072.9577897539
 20
-32.0493706813
 10
-1073.6075196885
 20
-32.8593814924
 10
-1073.9503811439
 20
-33.8481121584
 10
-1073.9559093751
 20
-34.9277096208
  0
LWPOLYLINE
  5
A2
330
1F
100
AcDbEntity
  8
0
  6
Continuous
 62
     7
370
    25
100
AcDbPolyline
 90
       22
 70
   128
 43
0.0
 10
-1081.8547419788
 20
17.1433358348
 10
-1081.5224457782
 20
16.0687985484
 10
-1080.8818511215
 20
15.0947987913
 10
-1079.9898776552
 20
14.3078807164
 10
-1078.9257811361
 20
13.7779654479
 10
-1077.7841112096
 20
13.5521382829
 10
-1076.6663102588
 20
13.650464956
 10
-1075.6716998037
 20
14.0642087109
 10
-1074.8886553478
 20
14.7566065992
 10
-1074.3867538275
 20
15.66613603
 10
-1074.2105913954
 20
16.711981322
 10
-1074.3758208567
 20
17.8012145314
 10
-1074.8677608485
 20
18.8370525075
 10
-1075.6427003439
 20
19.7274565004
 10
-1076.6317825679
 20
20.3933102079
 10
-1077.7471232243
 20
20.775449606
 10
-1078.8896194013
 20
20.8399199322
 10
-1079.9577552997
 20
20.5809927151
 10
-1080.8566223576
 20
20.0216747743
 10
-1081.5063522922
 20
19.2116639632
 10
-1081.8492137476
 20
18.2229332972
 10
-1081.8547419788
 20
17.1433358348
  0
LWPOLYLINE
  5
A3
330
1F
100
AcDbEntity
  8
0
  6
Continuous
 62
     7
370
    25
100
AcDbPolyline
 90
       22
 70
   128
 43
0.0
 10
-324.251245649
 20
-78.6342652223
 10
-323.9189494484
 20
-79.7088025087
 10
-323.2783547918
 20
-80.6828022657
 10
-322.3863813254
 20
-81.4697203407
 10
-321.3222848063
 20
-81.9996356092
 10
-320.1806148798
 20
-82.2254627742
 10
-319.062813929
 20
-82.1271361011
 10
-318.0682034739
 20
-81.7133923462
 10
-317.285159018
 20
-81.0209944579
 10
-316.7832574977
 20
-80.1114650271
 10
-316.6070950656
 20
-79.0656197351
 10
-316.7723245269
 20
-77.9763865257
 10
-317.2642645188
 20
-76.9405485496
 10
-318.0392040141
 20
-76.0501445567
 10
-319.0282862381
 20
-75.3842908492
 10
-320.1436268945
 20
-75.0021514511
 10
-321.2861230715
 20
-74.9376811249
 10
-322.3542589699
 20
-75.1966083419
 10
-323.2531260278
 20
-75.7559262828
 10
-323.9028559624
 20
-76.5659370939
 10
-324.2457174178
 20
-77.5546677599
 10
-324.251245649
 20
-78.6342652223
  0
LWPOLYLINE
  5
A4
330
1F
100
AcDbEntity
  8
0
  6
Continuous
 62
     7
370
    25
100
AcDbPolyline
 90
       22
 70
   128
 43
0.0
 10
-332.5658062844
 20
-23.8226384269
 10
-332.2335100839
 20
-24.8971757133
 10
-331.5929154272
 20
-25.8711754704
 10
-330.7009419609
 20
-26.6580935453
 10
-329.6368454417
 20
-27.1880088138
 10
-328.4951755152
 20
-27.4138359788
 10
-327.3773745645
 20
-27.3155093057
 10
-326.3827641093
 20
-26.9017655508
 10
-325.5997196535
 20
-26.2093676625
 10
-325.0978181332
 20
-25.2998382317
 10
-324.9216557011
 20
-24.2539929397
 10
-325.0868851623
 20
-23.1647597303
 10
-325.5788251542
 20
-22.1289217542
 10
-326.3537646496
 20
-21.2385177613
 10
-327.3428468735
 20
-20.5726640538
 10
-328.45818753
 20
-20.1905246557
 10
-329.6006837069
 20
-20.1260543295
 10
-330.6688196053
 20
-20.3849815466
 10
-331.5676866632
 20
-20.9442994874
 10
-332.2174165978
 20
-21.7543102985
 10
-332.5602780532
 20
-22.7430409645
 10
-332.5658062844
 20
-23.8226384269
  0
LWPOLYLINE
  5
A5
330
1F
100
AcDbEntity
  8
0
  6
Continuous
 62
     7
370
    25
100
AcDbPolyline
 90
       22
 70
   128
 43
0.0
 10
-340.4646388881
 20
28.2484070287
 10
-340.1323426875
 20
27.1738697423
 10
-339.4917480308
 20
26.1998699852
 10
-338.5997745645
 20
25.4129519103
 10
-337.5356780454
 20
24.8830366418
 10
-336.3940081189
 20
24.6572094768
 10
-335.2762071681
 20
24.7555361499
 10
-334.281596713
 20
25.1692799048
 10
-333.4985522571
 20
25.8616777931
 10
-332.9966507368
 20
26.7712072239
 10
-332.8204883047
 20
27.8170525159
 10
-332.985717766
 20
28.9062857253
 10
-333.4776577578
 20
29.9421237014
 10
-334.2525972532
 20
30.8325276943
 10
-335.2416794772
 20
31.4983814018
 10
-336.3570201336
 20
31.8805207999
 10
-337.4995163106
 20
31.9449911261
 10
-338.567652209
 20
31.686063909
 10
-339.4665192669
 20
31.1267459682
 10
-340.1162492015
 20
30.3167351571
 10
-340.4591106569
 20
29.328004491
 10
-340.4646388881
 20
28.2484070287
  0
LWPOLYLINE
  5
A7
330
1F
100
AcDbEntity
  8
0
  6
Continuous
 62
     7
370
    25
100
AcDbPolyline
 90
       14
 70
   128
 43
0.0
 10
-16.8589025266
 20
-89.2134366507
 10
-16.8545962
 20
-87.8134029286
 10
-17.1190783051
 20
-85.5194731712
 10
-17.7146704493
 20
-83.2416981125
 10
-18.6297801089
 20
-81.0244120531
 10
-19.8465957155
 20
-78.910771944
 10
-21.3414333374
 20
-76.9419173856
 10
-23.0851976605
 20
-75.1561698925
 10
-25.0439482959
 20
-73.5882870084
 10
-27.1795603904
 20
-72.26878579
 10
-29.4504666839
 20
-71.2233488278
 10
-31.8124665685
 20
-70.472324363
 10
-34.2195864031
 20
-70.0303302326
 10
-36.6249743383
 20
-69.9059693496
  0
SPLINE
  5
A8
330
1F
100
AcDbEntity
  8
0
  6
Continuous
 62
     7
370
    25
100
AcDbSpline
210
0.0
220
0.0
230
1.0
 70
    11
 71
     3
 72
    68
 73
    64
 74
     0
 42
0.00000001
 43
0.00000001
 40
0.0
 40
0.0
 40
0.0
 40
0.0
 40
0.0312500000000004
 40
0.0312500000000004
 40
0.0625000000000008
 40
0.0625000000000008
 40
0.0937500000000012
 40
0.0937500000000012
 40
0.1250000000000016
 40
0.1250000000000016
 40
0.1562500000000021
 40
0.1562500000000021
 40
0.1875000000000024
 40
0.1875000000000024
 40
0.2187500000000029
 40
0.2187500000000029
 40
0.2500000000000033
 40
0.2500000000000033
 40
0.2812500000000037
 40
0.2812500000000037
 40
0.3125000000000041
 40
0.3125000000000041
 40
0.3437500000000045
 40
0.3437500000000045
 40
0.3750000000000049
 40
0.3750000000000049
 40
0.4062500000000053
 40
0.4062500000000053
 40
0.4375000000000057
 40
0.4375000000000057
 40
0.4687500000000062
 40
0.4687500000000062
 40
0.5000000000000067
 40
0.5000000000000067
 40
0.5312500000000072
 40
0.5312500000000072
 40
0.5625000000000077
 40
0.5625000000000077
 40
0.5937500000000082
 40
0.5937500000000082
 40
0.6250000000000088
 40
0.6250000000000088
 40
0.6562500000000092
 40
0.6562500000000092
 40
0.6875000000000098
 40
0.6875000000000098
 40
0.7500000000000092
 40
0.7500000000000092
 40
0.7812500000000081
 40
0.7812500000000081
 40
0.812500000000007
 40
0.812500000000007
 40
0.8437500000000059
 40
0.8437500000000059
 40
0.8750000000000047
 40
0.8750000000000047
 40
0.9062500000000036
 40
0.9062500000000036
 40
0.9375000000000024
 40
0.9375000000000024
 40
0.9687500000000012
 40
0.9687500000000012
 40
1.0
 40
1.0
 40
1.0
 40
1.0
 10
-14.80925378661257
 20
-86.70473815331418
 30
0.0
 10
-14.88299493931744
 20
-86.81252892558348
 30
0.0
 10
-14.95336396602065
 20
-86.89451876230402
 30
0.0
 10
-15.08832375290215
 20
-87.00918701648438
 30
0.0
 10
-15.15358521084109
 20
-87.04177820466147
 30
0.0
 10
-15.27597332143216
 20
-87.05426770061989
 30
0.0
 10
-15.33312625633665
 20
-87.03489960755294
 30
0.0
 10
-15.44223359864583
 20
-86.9454935688189
 30
0.0
 10
-15.49426227420536
 20
-86.87457435881873
 30
0.0
 10
-15.59186448933669
 20
-86.68725805572333
 30
0.0
 10
-15.63804578809192
 20
-86.57058396294916
 30
0.0
 10
-15.72820178992962
 20
-86.28953439304138
 30
0.0
 10
-15.77119510215053
 20
-86.12799434227075
 30
0.0
 10
-15.85429434304631
 20
-85.76925852979824
 30
0.0
 10
-15.89498471939532
 20
-85.56933579655825
 30
0.0
 10
-15.97388490051932
 20
-85.13889687608598
 30
0.0
 10
-16.01158906222267
 20
-84.91163181059918
 30
0.0
 10
-16.08416438952431
 20
-84.43346506206947
 30
0.0
 10
-16.11932333103716
 20
-84.17991707220425
 30
0.0
 10
-16.18325558089406
 20
-83.66935674031802
 30
0.0
 10
-16.2123534710551
 20
-83.41062614186694
 30
0.0
 10
-16.26306112775067
 20
-82.88607501156415
 30
0.0
 10
-16.28430856830509
 20
-82.62289689256016
 30
0.0
 10
-16.31498420156319
 20
-82.11107947643349
 30
0.0
 10
-16.32469369342671
 20
-81.85847728262084
 30
0.0
 10
-16.32905571765109
 20
-81.36921355803352
 30
0.0
 10
-16.32372887608769
 20
-81.13726338983548
 30
0.0
 10
-16.29532107688458
 20
-80.69770516841403
 30
0.0
 10
-16.27178665780593
 20
-80.48808956310226
 30
0.0
 10
-16.20521281231291
 20
-80.10903295451281
 30
0.0
 10
-16.16236354420997
 20
-79.93846964842363
 30
0.0
 10
-16.05545456927215
 20
-79.6355013347385
 30
0.0
 10
-15.99101038871542
 20
-79.50360196216982
 30
0.0
 10
-15.8456400014505
 20
-79.29079604724615
 30
0.0
 10
-15.76415739512049
 20
-79.20791307573923
 30
0.0
 10
-15.58366018211621
 20
-79.09085221229962
 30
0.0
 10
-15.48722376763412
 20
-79.0584866703647
 30
0.0
 10
-15.28580235909471
 20
-79.04437419366616
 30
0.0
 10
-15.17939502889187
 20
-79.06308368350578
 30
0.0
 10
-14.96618763838142
 20
-79.15111996365485
 30
0.0
 10
-14.85976789220878
 20
-79.21963731208331
 30
0.0
 10
-14.65029058048673
 20
-79.40534574082564
 30
0.0
 10
-14.54686425521745
 20
-79.5237072026098
 30
0.0
 10
-14.35516556175798
 20
-79.80034393682776
 30
0.0
 10
-14.26572135716719
 20
-79.95936708116156
 30
0.0
 10
-14.02103294745882
 20
-80.50091215866088
 30
0.0
 10
-13.89699572566616
 20
-80.93360688358447
 30
0.0
 10
-13.78699904675862
 20
-81.65693230444512
 30
0.0
 10
-13.76357033847209
 20
-81.9052064318907
 30
0.0
 10
-13.74188008263322
 20
-82.41570424198842
 30
0.0
 10
-13.74392893432075
 20
-82.6805882002036
 30
0.0
 10
-13.77188374337868
 20
-83.20379101235866
 30
0.0
 10
-13.79747720958891
 20
-83.46384823542121
 30
0.0
 10
-13.86949806558779
 20
-83.98105319812457
 30
0.0
 10
-13.91581996236169
 20
-84.23592235804618
 30
0.0
 10
-14.02255036363487
 20
-84.72188921675135
 30
0.0
 10
-14.08357764674451
 20
-84.95645114360723
 30
0.0
 10
-14.21684985179916
 20
-85.40243530671468
 30
0.0
 10
-14.2873780746694
 20
-85.60845459538808
 30
0.0
 10
-14.43333963449267
 20
-85.98764887170752
 30
0.0
 10
-14.50958589225793
 20
-86.1623149350613
 30
0.0
 10
-14.66068316065694
 20
-86.466692019648
 30
0.0
 10
-14.73551263390771
 20
-86.59694738104488
 30
0.0
 10
-14.80925378661257
 20
-86.70473815331417
 30
0.0
  0
LWPOLYLINE
  5
AA
330
1F
100
AcDbEntity
  8
0
  6
Continuous
 62
     7
370
    25
100
AcDbPolyline
 90
       14
 70
   128
 43
0.0
 10
-33.0722957657
 20
17.6692356003
 10
-33.0679894391
 20
19.0692693224
 10
-33.3324715442
 20
21.3631990798
 10
-33.9280636883
 20
23.6409741385
 10
-34.843173348
 20
25.8582601979
 10
-36.0599889546
 20
27.971900307
 10
-37.5548265765
 20
29.9407548653
 10
-39.2985908996
 20
31.7265023584
 10
-41.257341535
 20
33.2943852426
 10
-43.3929536295
 20
34.6138864609
 10
-45.663859923
 20
35.6593234231
 10
-48.0258598076
 20
36.4103478879
 10
-50.4329796422
 20
36.8523420183
 10
-52.8383675774
 20
36.9767029014
  0
SPLINE
  5
AB
330
1F
100
AcDbEntity
  8
0
  6
Continuous
 62
     7
370
    25
100
AcDbSpline
210
0.0
220
0.0
230
1.0
 70
    11
 71
     3
 72
    70
 73
    66
 74
     0
 42
0.00000001
 43
0.00000001
 40
0.0
 40
0.0
 40
0.0
 40
0.0
 40
0.0312500000000001
 40
0.0312500000000001
 40
0.0625000000000001
 40
0.0625000000000001
 40
0.0937500000000002
 40
0.0937500000000002
 40
0.1250000000000002
 40
0.1250000000000002
 40
0.1562500000000003
 40
0.1562500000000003
 40
0.1875000000000004
 40
0.1875000000000004
 40
0.2187500000000004
 40
0.2187500000000004
 40
0.2500000000000005
 40
0.2500000000000005
 40
0.2812500000000006
 40
0.2812500000000006
 40
0.3125000000000006
 40
0.3125000000000006
 40
0.3437500000000007
 40
0.3437500000000007
 40
0.3750000000000008
 40
0.3750000000000008
 40
0.4062500000000008
 40
0.4062500000000008
 40
0.4375000000000009
 40
0.4375000000000009
 40
0.4687500000000009
 40
0.4687500000000009
 40
0.5000000000000009
 40
0.5000000000000009
 40
0.5312500000000009
 40
0.5312500000000009
 40
0.5625000000000008
 40
0.5625000000000008
 40
0.5937500000000008
 40
0.5937500000000008
 40
0.6250000000000007
 40
0.6250000000000007
 40
0.6562500000000007
 40
0.6562500000000007
 40
0.6875000000000006
 40
0.6875000000000006
 40
0.7187500000000006
 40
0.7187500000000006
 40
0.7500000000000004
 40
0.7500000000000004
 40
0.7812500000000004
 40
0.7812500000000004
 40
0.8125000000000004
 40
0.8125000000000004
 40
0.8437500000000003
 40
0.8437500000000003
 40
0.8750000000000003
 40
0.8750000000000003
 40
0.9062500000000002
 40
0.9062500000000002
 40
0.9375000000000002
 40
0.9375000000000002
 40
0.9687500000000001
 40
0.9687500000000001
 40
1.0
 40
1.0
 40
1.0
 40
1.0
 10
-31.03700548389221
 20
22.92452743794064
 30
0.0
 10
-31.11128585425571
 20
22.8159484668744
 30
0.0
 10
-31.18652530728316
 20
22.73342171029642
 30
0.0
 10
-31.33948337950465
 20
22.61832860871525
 30
0.0
 10
-31.41808975962956
 20
22.58584497115654
 30
0.0
 10
-31.57486442345392
 20
22.57451938237816
 30
0.0
 10
-31.65285507474569
 20
22.59495333500752
 30
0.0
 10
-31.81078531387282
 20
22.68768053491049
 30
0.0
 10
-31.89107962056836
 20
22.76099729171572
 30
0.0
 10
-32.04983477815393
 20
22.95405079216097
 30
0.0
 10
-32.12915983337383
 20
23.07404898089555
 30
0.0
 10
-32.29095704101659
 20
23.36225756895768
 30
0.0
 10
-32.37169842426302
 20
23.52759566100678
 30
0.0
 10
-32.53258030259498
 20
23.89288466307849
 30
0.0
 10
-32.61400155655847
 20
24.09592399831192
 30
0.0
 10
-32.77508769709103
 20
24.52914978940605
 30
0.0
 10
-32.85400459579913
 20
24.75692919286534
 30
0.0
 10
-33.00942061345036
 20
25.23393818050109
 30
0.0
 10
-33.08635614574141
 20
25.48497902621782
 30
0.0
 10
-33.23116008179095
 20
25.98824494349723
 30
0.0
 10
-33.29981648162106
 20
26.24270063511496
 30
0.0
 10
-33.42812579080923
 20
26.75764810156322
 30
0.0
 10
-33.48675194678841
 20
27.01440613649164
 30
0.0
 10
-33.58831082499491
 20
27.51543428285782
 30
0.0
 10
-33.63190643299219
 20
27.76279142963776
 30
0.0
 10
-33.69965136175446
 20
28.24382193638251
 30
0.0
 10
-33.72315604684495
 20
28.472490065821
 30
0.0
 10
-33.74638309763623
 20
28.9071543912242
 30
0.0
 10
-33.74588400610779
 20
29.11538679053124
 30
0.0
 10
-33.71635284515573
 20
29.49493597185986
 30
0.0
 10
-33.68774660398821
 20
29.6659391661102
 30
0.0
 10
-33.60020783134343
 20
29.97010756087278
 30
0.0
 10
-33.54031924279899
 20
30.10374986196781
 30
0.0
 10
-33.39391581868056
 20
30.31870970016105
 30
0.0
 10
-33.30715257556882
 20
30.40208615745258
 30
0.0
 10
-33.10674098944077
 20
30.51960404416292
 30
0.0
 10
-32.99543445861275
 20
30.55204482506845
 30
0.0
 10
-32.75748591631444
 20
30.5660284007064
 30
0.0
 10
-32.62884310221293
 20
30.54724072512195
 30
0.0
 10
-32.36613729307014
 20
30.46047420115856
 30
0.0
 10
-32.23209140103689
 20
30.39316164694069
 30
0.0
 10
-31.96171045904283
 20
30.2113096699931
 30
0.0
 10
-31.82572315451404
 20
30.09641274940763
 30
0.0
 10
-31.56492266593547
 20
29.82789551133914
 30
0.0
 10
-31.43870713455199
 20
29.67345369708124
 30
0.0
 10
-31.19728035813951
 20
29.32205122727482
 30
0.0
 10
-31.08520781804081
 20
29.12942973333965
 30
0.0
 10
-30.88156211459559
 20
28.71451014587772
 30
0.0
 10
-30.7889772866794
 20
28.48978916420802
 30
0.0
 10
-30.62846895916616
 20
28.01525174763137
 30
0.0
 10
-30.5617472708537
 20
27.76975604884142
 30
0.0
 10
-30.45442287023214
 20
27.26255415149269
 30
0.0
 10
-30.41364536456803
 20
26.99770085842263
 30
0.0
 10
-30.36071131285056
 20
26.47141314207532
 30
0.0
 10
-30.34799935850874
 20
26.20915443950102
 30
0.0
 10
-30.34767054738907
 20
25.68664429973668
 30
0.0
 10
-30.36038647275929
 20
25.42710262217152
 30
0.0
 10
-30.40699342228703
 20
24.93334994398259
 30
0.0
 10
-30.44090792357379
 20
24.69568376670649
 30
0.0
 10
-30.52710404625858
 20
24.24213926453308
 30
0.0
 10
-30.57803647444402
 20
24.03299124141087
 30
0.0
 10
-30.69228678254044
 20
23.64864481225918
 30
0.0
 10
-30.75634234687297
 20
23.47199261490771
 30
0.0
 10
-30.89159955843201
 20
23.16454845988541
 30
0.0
 10
-30.96272511352871
 20
23.03310640900687
 30
0.0
 10
-31.03700548389221
 20
22.92452743794064
 30
0.0
  0
LINE
  5
AC
330
1F
100
AcDbEntity
  8
0
  6
Continuous
 62
     7
370
    25
100
AcDbLine
 10
-1410.3663833603
 20
-148.3518421679
 30
0.0
 11
15.383814891
 21
-126.9959360258
 31
0.0
  0
LINE
  5
AD
330
1F
100
AcDbEntity
  8
0
  6
Continuous
 62
     7
370
    25
100
AcDbLine
 10
-1.052457843
 20
71.4419311165
 30
0.0
 11
-1426.8026560943
 21
50.0860249744
 31
0.0
  0
LINE
  5
AE
330
1F
100
AcDbEntity
  8
0
  6
Continuous
 62
     7
370
    25
100
AcDbLine
 10
-1409.8719874585
 20
-148.0063992692
 30
0.0
 11
-1399.581849878
 21
-132.9648405755
 31
0.0
  0
LINE
  5
AF
330
1F
100
AcDbEntity
  8
0
  6
Continuous
 62
     7
370
    25
100
AcDbLine
 10
-1438.1453328402
 20
29.4188004756
 30
0.0
 11
-1411.5387388068
 21
-145.9784052696
 31
0.0
  0
LINE
  5
B0
330
1F
100
AcDbEntity
  8
0
  6
Continuous
 62
     7
370
    25
100
AcDbLine
 10
-1427.2970519962
 20
49.7405820757
 30
0.0
 11
-1437.5871895766
 21
34.699023382
 31
0.0
  0
LINE
  5
B1
330
1F
100
AcDbEntity
  8
0
  6
Continuous
 62
     7
370
    25
100
AcDbLine
 10
-1399.0237066144
 20
-127.6846176691
 30
0.0
 11
-1425.6303006478
 21
47.7125880761
 31
0.0
  0
LINE
  5
B2
330
1F
100
AcDbEntity
  8
0
  6
Continuous
 62
     7
370
    25
100
AcDbLine
 10
-1399.0237066144
 20
-127.6846176691
 30
0.0
 11
26.7264916369
 21
-106.328711527
 31
0.0
  0
LINE
  5
B3
330
1F
100
AcDbEntity
  8
0
  6
Continuous
 62
     7
370
    25
100
AcDbLine
 10
26.1683483733
 20
-111.6089344334
 30
0.0
 11
-1399.581849878
 21
-132.9648405755
 31
0.0
  0
LINE
  5
B4
330
1F
100
AcDbEntity
  8
0
  6
Continuous
 62
     7
370
    25
100
AcDbLine
 10
0.1198976035
 20
69.0684942182
 30
0.0
 11
-1425.6303006478
 21
47.7125880761
 31
0.0
  0
LINE
  5
B5
330
1F
100
AcDbEntity
  8
0
  6
Continuous
 62
     7
370
    25
100
AcDbLine
 10
26.7264916369
 20
-106.328711527
 30
0.0
 11
0.1198976035
 21
69.0684942182
 31
0.0
  0
LINE
  5
B6
330
1F
100
AcDbEntity
  8
0
  6
Continuous
 62
     7
370
    25
100
AcDbLine
 10
-1409.8719874585
 20
-148.0063992692
 30
0.0
 11
15.8782107928
 21
-126.6504931271
 31
0.0
  0
LINE
  5
B7
330
1F
100
AcDbEntity
  8
0
  6
Continuous
 62
     7
370
    25
100
AcDbLine
 10
15.8782107928
 20
-126.6504931271
 30
0.0
 11
26.1683483733
 21
-111.6089344334
 31
0.0
  0
ARC
  5
B8
330
1F
100
AcDbEntity
  8
0
  6
Continuous
 62
     7
370
    25
100
AcDbCircle
 10
-1407.7657132433
 20
-129.4301589038
 30
0.0
 40
8.914572008922322
100
AcDbArc
 50
336.640064744
 51
11.2919070562
  0
ARC
  5
B9
330
1F
100
AcDbEntity
  8
0
  6
Continuous
 62
     7
370
    25
100
AcDbCircle
 10
-1429.4033262113
 20
31.1643417103
 30
0.0
 40
8.914572008919217
100
AcDbArc
 50
156.640064744
 51
191.2919070562
  0
ARC
  5
BA
330
1F
100
AcDbEntity
  8
0
  6
Continuous
 62
     7
370
    25
100
AcDbCircle
 10
17.984485008
 20
-108.0742527617
 30
0.0
 40
8.914572008922471
100
AcDbArc
 50
336.640064744
 51
11.2919070562
  0
ARC
  5
BB
330
1F
100
AcDbEntity
  8
0
  6
Continuous
 62
     7
370
    25
100
AcDbCircle
 10
-1367.1744800532
 20
-106.1896529651
 30
0.0
 40
16.3521987907577
100
AcDbArc
 50
90.5279663834
 51
113.7456591444
  0
ARC
  5
BC
330
1F
100
AcDbEntity
  8
0
  6
Continuous
 62
     7
370
    25
100
AcDbCircle
 10
15.3316579706
 20
-126.3947795959
 30
0.0
 40
0.6034147807094931
100
AcDbArc
 50
274.9586208527
 51
334.9267003102
  0
ARC
  5
BD
330
1F
100
AcDbEntity
  8
0
  6
Continuous
 62
     7
370
    25
100
AcDbCircle
 10
-1383.3878732923
 20
0.6930192859
 30
0.0
 40
16.3521987907576
100
AcDbArc
 50
90.5279663834
 51
113.7456591444
  0
ARC
  5
BE
330
1F
100
AcDbEntity
  8
0
  6
Continuous
 62
     7
370
    25
100
AcDbCircle
 10
-36.4742950186
 20
-86.2574738993
 30
0.0
 40
16.35219879085955
100
AcDbArc
 50
90.5279663835
 51
113.7456591416
  0
ARC
  5
BF
330
1F
100
AcDbEntity
  8
0
  6
Continuous
 62
     7
370
    25
100
AcDbCircle
 10
-52.6876882577
 20
20.6251983517
 30
0.0
 40
16.35219879086001
100
AcDbArc
 50
90.5279663835
 51
113.7456591416
  0
CIRCLE
  5
14E
330
146
100
AcDbEntity
 67
     1
  8
0
  6
Continuous
 62
     7
370
    25
100
AcDbCircle
 10
-8.6882554113
 20
750.0
 30
0.0
 40
3.0
  0
CIRCLE
  5
14F
330
146
100
AcDbEntity
 67
     1
  8
0
  6
Continuous
 62
     7
370
    25
100
AcDbCircle
 10
-8.6882554113
 20
457.5
 30
0.0
 40
3.000000000000057
  0
CIRCLE
  5
150
330
146
100
AcDbEntity
 67
     1
  8
0
  6
Continuous
 62
     7
370
    25
100
AcDbCircle
 10
-8.6882554113
 20
555.0
 30
0.0
 40
3.0
  0
CIRCLE
  5
151
330
146
100
AcDbEntity
 67
     1
  8
0
  6
Continuous
 62
     7
370
    25
100
AcDbCircle
 10
-8.6882554113
 20
652.5
 30
0.0
 40
3.0
  0
CIRCLE
  5
152
330
146
100
AcDbEntity
 67
     1
  8
0
  6
Continuous
 62
     7
370
    25
100
AcDbCircle
 10
-8.6882554113
 20
847.5
 30
0.0
 40
2.999999999999886
  0
CIRCLE
  5
153
330
146
100
AcDbEntity
 67
     1
  8
0
  6
Continuous
 62
     7
370
    25
100
AcDbCircle
 10
-8.6882554113
 20
945.0
 30
0.0
 40
3.0
  0
CIRCLE
  5
154
330
146
100
AcDbEntity
 67
     1
  8
0
  6
Continuous
 62
     7
370
    25
100
AcDbCircle
 10
-8.6882554113
 20
1042.5
 30
0.0
 40
3.0
  0
CIRCLE
  5
155
330
146
100
AcDbEntity
 67
     1
  8
0
  6
Continuous
 62
     7
370
    25
100
AcDbCircle
 10
-8.6882554113
 20
139.6299791515
 30
0.0
 40
3.0
  0
CIRCLE
  5
156
330
146
100
AcDbEntity
 67
     1
  8
0
  6
Continuous
 62
     7
370
    25
100
AcDbCircle
 10
-8.6882554113
 20
250.4899791515
 30
0.0
 40
3.000000000000028
  0
CIRCLE
  5
157
330
146
100
AcDbEntity
 67
     1
  8
0
  6
Continuous
 62
     7
370
    25
100
AcDbCircle
 10
-8.6882554113
 20
1250.8649240737
 30
0.0
 40
2.999999999999773
  0
CIRCLE
  5
158
330
146
100
AcDbEntity
 67
     1
  8
0
  6
Continuous
 62
     7
370
    25
100
AcDbCircle
 10
-8.6882554113
 20
1361.7249240737
 30
0.0
 40
3.0
  0
CIRCLE
  5
159
330
146
100
AcDbEntity
 67
     1
  8
0
  6
Continuous
 62
     7
370
    25
100
AcDbCircle
 10
-8.6882554113
 20
28.7699791515
 30
0.0
 40
3.000000000000007
  0
CIRCLE
  5
15A
330
146
100
AcDbEntity
 67
     1
  8
0
  6
Continuous
 62
     7
370
    25
100
AcDbCircle
 10
-8.6882554113
 20
360.0
 30
0.0
 40
3.000000000000057
  0
CIRCLE
  5
15B
330
146
100
AcDbEntity
 67
     1
  8
0
  6
Continuous
 62
     7
370
    25
100
AcDbCircle
 10
-8.6882554113
 20
1140.0
 30
0.0
 40
3.0
  0
CIRCLE
  5
15C
330
146
100
AcDbEntity
 67
     1
  8
0
  6
Continuous
 62
     7
370
    25
100
AcDbCircle
 10
-8.6882554113
 20
1472.5849240737
 30
0.0
 40
2.999999999999773
  0
LINE
  5
163
330
146
100
AcDbEntity
 67
     1
  8
0
  6
Continuous
 62
     7
370
    25
100
AcDbLine
 10
9.8117445888
 20
0.0
 30
0.0
 11
9.8117445888
 21
1500.0
 31
0.0
  0
LINE
  5
164
330
146
100
AcDbEntity
 67
     1
  8
0
  6
Continuous
 62
     7
370
    25
100
AcDbLine
 10
-31.1882554112
 20
0.0
 30
0.0
 11
13.8117445888
 21
0.0
 31
0.0
  0
LINE
  5
165
330
146
100
AcDbEntity
 67
     1
  8
0
  6
Continuous
 62
     7
370
    25
100
AcDbLine
 10
-27.1882554112
 20
1500.0
 30
0.0
 11
-27.1882554112
 21
0.0
 31
0.0
  0
LINE
  5
166
330
146
100
AcDbEntity
 67
     1
  8
0
  6
Continuous
 62
     7
370
    25
100
AcDbLine
 10
-31.1882554112
 20
1500.0
 30
0.0
 11
13.8117445888
 21
1500.0
 31
0.0
  0
LINE
  5
167
330
146
100
AcDbEntity
 67
     1
  8
0
  6
Continuous
 62
     7
370
    25
100
AcDbLine
 10
-31.1882554112
 20
0.0
 30
0.0
 11
-31.1882554112
 21
1500.0
 31
0.0
  0
LINE
  5
168
330
146
100
AcDbEntity
 67
     1
  8
0
  6
Continuous
 62
     7
370
    25
100
AcDbLine
 10
13.8117445888
 20
1500.0
 30
0.0
 11
13.8117445888
 21
0.0
 31
0.0
  0
VIEWPORT
  5
173
330
146
100
AcDbEntity
 67
     1
  8
0
100
AcDbViewport
 10
0.0
 20
0.0
 30
0.0
 40
205.6
 41
156.0
 68
     1
 69
     1
 12
-705.7094206017
 22
-38.4549555257
 13
0.0
 23
0.0
 14
10.0
 24
10.0
 15
10.0
 25
10.0
 16
0.0
 26
0.0
 36
1.0
 17
0.0
 27
0.0
 37
0.0
 42
50.0
 43
0.0
 44
0.0
 45
1133.9753011543
 50
0.0
 51
0.0
 72
   100
 90
   557152
  1

281
     0
 71
     1
 74
     0
110
0.0
120
0.0
130
0.0
111
1.0
121
0.0
131
0.0
112
0.0
122
1.0
132
0.0
 79
     0
146
0.0
  0
ENDSEC
  0
SECTION
  2
OBJECTS
  0
DICTIONARY
  5
C
330
0
100
AcDbDictionary
281
     1
  3
ACAD_GROUP
350
D
  3
ACAD_LAYOUT
350
1A
  3
ACAD_MLINESTYLE
350
17
  3
ACAD_PLOTSETTINGS
350
19
  3
ACAD_PLOTSTYLENAME
350
E
  3
ACAD_SCALELIST
350
47
  3
DWGPROPS
350
175
  0
DICTIONARY
  5
D
102
{ACAD_REACTORS
330
C
102
}
330
C
100
AcDbDictionary
281
     1
  0
DICTIONARY
  5
1A
102
{ACAD_REACTORS
330
C
102
}
330
C
100
AcDbDictionary
281
     1
  3
_Back
350
105
  3
_Bottom
350
147
  3
_Front
350
26
  3
_Left
350
11D
  3
_Right
350
E5
  3
_Top
350
1E
  3
Model
350
22
  0
DICTIONARY
  5
17
102
{ACAD_REACTORS
330
C
102
}
330
C
100
AcDbDictionary
281
     1
  3
Standard
350
18
  0
DICTIONARY
  5
19
102
{ACAD_REACTORS
330
C
102
}
330
C
100
AcDbDictionary
281
     1
  0
ACDBDICTIONARYWDFLT
  5
E
102
{ACAD_REACTORS
330
C
102
}
330
C
100
AcDbDictionary
281
     1
  3
Normal
350
F
100
AcDbDictionaryWithDefault
340
F
  0
DICTIONARY
  5
47
102
{ACAD_REACTORS
330
C
102
}
330
C
100
AcDbDictionary
281
     1
  3
A0
350
48
  3
A1
350
49
  3
A2
350
4A
  3
A3
350
4B
  3
A4
350
4C
  3
A5
350
4D
  3
A6
350
4E
  3
A7
350
4F
  3
A8
350
50
  3
A9
350
51
  3
B0
350
52
  3
B1
350
53
  3
B2
350
54
  3
B3
350
55
  3
B4
350
56
  3
B5
350
57
  3
B6
350
58
  3
B7
350
59
  3
B8
350
5A
  3
B9
350
5B
  3
C0
350
5C
  3
C1
350
5D
  3
C2
350
5E
  3
C3
350
5F
  3
C4
350
60
  3
C5
350
61
  3
C6
350
62
  3
C7
350
63
  3
C8
350
64
  3
C9
350
65
  3
D0
350
66
  3
D1
350
67
  3
D2
350
68
  0
XRECORD
  5
175
102
{ACAD_REACTORS
330
C
102
}
330
C
100
AcDbXrecord
280
     1
  1
DWGPROPS COOKIE
  2

  3

  4

  6

  7

  8
rihar
  9

300
=
301
=
302
=
303
=
304
=
305
=
306
=
307
=
308
=
309
=
 40
0.0
 41
2459255.299354965
 42
2459255.300081597
  1

 90
        0
  0
LAYOUT
  5
105
102
{ACAD_REACTORS
330
1A
102
}
330
1A
100
AcDbPlotSettings
  1

  2
none_device
  4
ISO_A4_(210.00_x_297.00_MM)
  6

 40
7.5
 41
20.0
 42
7.5
 43
20.0
 44
210.0
 45
297.0
 46
0.0
 47
0.0
 48
0.0
 49
0.0
140
0.0
141
0.0
142
1.0
143
7.6923076923
 70
   688
 72
     1
 73
     1
 74
     1
  7

 75
     0
147
0.13
148
31.1882554112
149
1500.0
100
AcDbLayout
  1
_Back
 70
     1
 71
     4
 10
0.0
 20
0.0
 11
0.0
 21
0.0
 12
0.0
 22
0.0
 32
0.0
 14
0.0
 24
0.0
 34
0.0
 15
0.0
 25
0.0
 35
0.0
146
0.0
 13
0.0
 23
0.0
 33
0.0
 16
1.0
 26
0.0
 36
0.0
 17
0.0
 27
1.0
 37
0.0
 76
     0
330
104
331
16F
  0
LAYOUT
  5
147
102
{ACAD_REACTORS
330
1A
102
}
330
1A
100
AcDbPlotSettings
  1

  2
none_device
  4
ANSI_A_(11.00_x_8.50_Inches)
  6

 40
6.35
 41
19.05
 42
6.35000508
 43
19.05000254
 44
279.4
 45
215.9
 46
266.5749504591
 47
96.1595867317
 48
0.0
 49
0.0
140
0.0
141
0.0
142
0.0074323464
143
1.0
 70
   672
 72
     0
 73
     0
 74
     1
  7

 75
     0
147
0.0046666666
148
792.1816874452
149
0.0
100
AcDbLayout
  1
_Bottom
 70
     1
 71
     6
 10
0.0
 20
0.0
 11
0.0
 21
0.0
 12
0.0
 22
0.0
 32
0.0
 14
-1438.3178982202
 24
-148.3518421679
 34
0.0
 15
26.8990570169
 25
71.4419311165
 35
0.0
146
0.0
 13
0.0
 23
0.0
 33
0.0
 16
1.0
 26
0.0
 36
0.0
 17
0.0
 27
1.0
 37
0.0
 76
     0
330
146
331
173
  0
LAYOUT
  5
26
102
{ACAD_REACTORS
330
1A
102
}
330
1A
100
AcDbPlotSettings
  1

  2
none_device
  4
ISO_A4_(210.00_x_297.00_MM)
  6

 40
7.5
 41
20.0
 42
7.5
 43
20.0
 44
210.0
 45
297.0
 46
0.0
 47
0.0
 48
0.0
 49
0.0
140
0.0
141
0.0
142
1.0
143
7.6923076923
 70
   688
 72
     1
 73
     1
 74
     1
  7

 75
     0
147
0.13
148
31.1882554112
149
1500.0
100
AcDbLayout
  1
_Front
 70
     1
 71
     2
 10
0.0
 20
0.0
 11
0.0
 21
0.0
 12
0.0
 22
0.0
 32
0.0
 14
0.0
 24
0.0
 34
0.0
 15
0.0
 25
0.0
 35
0.0
146
0.0
 13
0.0
 23
0.0
 33
0.0
 16
1.0
 26
0.0
 36
0.0
 17
0.0
 27
1.0
 37
0.0
 76
     0
330
23
331
16B
  0
LAYOUT
  5
11D
102
{ACAD_REACTORS
330
1A
102
}
330
1A
100
AcDbPlotSettings
  1

  2
none_device
  4
ISO_A4_(210.00_x_297.00_MM)
  6

 40
7.5
 41
20.0
 42
7.5
 43
20.0
 44
210.0
 45
297.0
 46
0.0
 47
0.0
 48
0.0
 49
0.0
140
0.0
141
0.0
142
1.0
143
7.6923076923
 70
   688
 72
     1
 73
     1
 74
     1
  7

 75
     0
147
0.13
148
31.1882554112
149
1500.0
100
AcDbLayout
  1
_Left
 70
     1
 71
     5
 10
0.0
 20
0.0
 11
0.0
 21
0.0
 12
0.0
 22
0.0
 32
0.0
 14
0.0
 24
0.0
 34
0.0
 15
0.0
 25
0.0
 35
0.0
146
0.0
 13
0.0
 23
0.0
 33
0.0
 16
1.0
 26
0.0
 36
0.0
 17
0.0
 27
1.0
 37
0.0
 76
     0
330
11C
331
171
  0
LAYOUT
  5
E5
102
{ACAD_REACTORS
330
1A
102
}
330
1A
100
AcDbPlotSettings
  1

  2
none_device
  4
ISO_A4_(210.00_x_297.00_MM)
  6

 40
7.5
 41
20.0
 42
7.5
 43
20.0
 44
210.0
 45
297.0
 46
0.0
 47
0.0
 48
0.0
 49
0.0
140
0.0
141
0.0
142
1.0
143
7.6923076923
 70
   688
 72
     1
 73
     1
 74
     1
  7

 75
     0
147
0.13
148
31.1882554112
149
1500.0
100
AcDbLayout
  1
_Right
 70
     1
 71
     3
 10
0.0
 20
0.0
 11
0.0
 21
0.0
 12
0.0
 22
0.0
 32
0.0
 14
0.0
 24
0.0
 34
0.0
 15
0.0
 25
0.0
 35
0.0
146
0.0
 13
0.0
 23
0.0
 33
0.0
 16
1.0
 26
0.0
 36
0.0
 17
0.0
 27
1.0
 37
0.0
 76
     0
330
E4
331
16D
  0
LAYOUT
  5
1E
102
{ACAD_REACTORS
330
1A
102
}
330
1A
100
AcDbPlotSettings
  1

  2
none_device
  4
ISO_A4_(210.00_x_297.00_MM)
  6

 40
7.5
 41
20.0
 42
7.5
 43
20.0
 44
210.0
 45
297.0
 46
0.0
 47
0.0
 48
0.0
 49
0.0
140
0.0
141
0.0
142
1.0
143
7.6923076923
 70
   688
 72
     1
 73
     1
 74
     1
  7

 75
     0
147
0.13
148
31.1882554112
149
1500.0
100
AcDbLayout
  1
_Top
 70
     1
 71
     1
 10
-185.0344092574
 20
-1557.6923076923
 11
2099.580975358
 21
57.6923076923
 12
0.0
 22
0.0
 32
0.0
 14
1.0000000000E+20
 24
1.0000000000E+20
 34
1.0000000000E+20
 15
-1.0000000000E+20
 25
-1.0000000000E+20
 35
-1.0000000000E+20
146
0.0
 13
0.0
 23
0.0
 33
0.0
 16
1.0
 26
0.0
 36
0.0
 17
0.0
 27
1.0
 37
0.0
 76
     0
330
1B
331
169
  0
LAYOUT
  5
22
102
{ACAD_REACTORS
330
1A
102
}
330
1A
100
AcDbPlotSettings
  1

  2
none_device
  4
Letter_(8.50_x_11.00_Inches)
  6

 40
6.35
 41
6.35
 42
6.35000508
 43
6.35000508
 44
215.9
 45
279.4
 46
0.0
 47
0.0
 48
0.0
 49
0.0
140
0.0
141
0.0
142
1.0
143
1.0
 70
  1712
 72
     1
 73
     0
 74
     0
  7

 75
     0
147
1.0
148
0.0
149
0.0
100
AcDbLayout
  1
Model
 70
     1
 71
     0
 10
0.0
 20
0.0
 11
420.0
 21
297.0
 12
0.0
 22
0.0
 32
0.0
 14
-1438.3178982202
 24
-148.3518421679
 34
0.0
 15
26.8990570169
 25
71.4419311165
 35
0.0
146
0.0
 13
0.0
 23
0.0
 33
0.0
 16
1.0
 26
0.0
 36
0.0
 17
0.0
 27
1.0
 37
0.0
 76
     0
330
1F
331
29
  0
MLINESTYLE
  5
18
102
{ACAD_REACTORS
330
17
102
}
330
17
100
AcDbMlineStyle
  2
Standard
 70
     0
  3

 62
   256
 51
90.0
 52
90.0
 71
     2
 49
0.5
 62
   256
  6
BYLAYER
 49
-0.5
 62
   256
  6
BYLAYER
  0
ACDBPLACEHOLDER
  5
F
102
{ACAD_REACTORS
330
E
102
}
330
E
  0
SCALE
  5
48
102
{ACAD_REACTORS
330
47
102
}
330
47
100
AcDbScale
 70
     0
300
1:1
140
1.0
141
1.0
290
     1
  0
SCALE
  5
49
102
{ACAD_REACTORS
330
47
102
}
330
47
100
AcDbScale
 70
     0
300
1:2
140
1.0
141
2.0
290
     0
  0
SCALE
  5
4A
102
{ACAD_REACTORS
330
47
102
}
330
47
100
AcDbScale
 70
     0
300
1:4
140
1.0
141
4.0
290
     0
  0
SCALE
  5
4B
102
{ACAD_REACTORS
330
47
102
}
330
47
100
AcDbScale
 70
     0
300
1:5
140
1.0
141
5.0
290
     0
  0
SCALE
  5
4C
102
{ACAD_REACTORS
330
47
102
}
330
47
100
AcDbScale
 70
     0
300
1:8
140
1.0
141
8.0
290
     0
  0
SCALE
  5
4D
102
{ACAD_REACTORS
330
47
102
}
330
47
100
AcDbScale
 70
     0
300
1:10
140
1.0
141
10.0
290
     0
  0
SCALE
  5
4E
102
{ACAD_REACTORS
330
47
102
}
330
47
100
AcDbScale
 70
     0
300
1:16
140
1.0
141
16.0
290
     0
  0
SCALE
  5
4F
102
{ACAD_REACTORS
330
47
102
}
330
47
100
AcDbScale
 70
     0
300
1:20
140
1.0
141
20.0
290
     0
  0
SCALE
  5
50
102
{ACAD_REACTORS
330
47
102
}
330
47
100
AcDbScale
 70
     0
300
1:30
140
1.0
141
30.0
290
     0
  0
SCALE
  5
51
102
{ACAD_REACTORS
330
47
102
}
330
47
100
AcDbScale
 70
     0
300
1:40
140
1.0
141
40.0
290
     0
  0
SCALE
  5
52
102
{ACAD_REACTORS
330
47
102
}
330
47
100
AcDbScale
 70
     0
300
1:50
140
1.0
141
50.0
290
     0
  0
SCALE
  5
53
102
{ACAD_REACTORS
330
47
102
}
330
47
100
AcDbScale
 70
     0
300
1:100
140
1.0
141
100.0
290
     0
  0
SCALE
  5
54
102
{ACAD_REACTORS
330
47
102
}
330
47
100
AcDbScale
 70
     0
300
2:1
140
2.0
141
1.0
290
     0
  0
SCALE
  5
55
102
{ACAD_REACTORS
330
47
102
}
330
47
100
AcDbScale
 70
     0
300
4:1
140
4.0
141
1.0
290
     0
  0
SCALE
  5
56
102
{ACAD_REACTORS
330
47
102
}
330
47
100
AcDbScale
 70
     0
300
8:1
140
8.0
141
1.0
290
     0
  0
SCALE
  5
57
102
{ACAD_REACTORS
330
47
102
}
330
47
100
AcDbScale
 70
     0
300
10:1
140
10.0
141
1.0
290
     0
  0
SCALE
  5
58
102
{ACAD_REACTORS
330
47
102
}
330
47
100
AcDbScale
 70
     0
300
100:1
140
100.0
141
1.0
290
     0
  0
SCALE
  5
59
102
{ACAD_REACTORS
330
47
102
}
330
47
100
AcDbScale
 70
     0
300
1/128" = 1'-0"
140
0.0078125
141
12.0
290
     0
  0
SCALE
  5
5A
102
{ACAD_REACTORS
330
47
102
}
330
47
100
AcDbScale
 70
     0
300
1/64" = 1'-0"
140
0.015625
141
12.0
290
     0
  0
SCALE
  5
5B
102
{ACAD_REACTORS
330
47
102
}
330
47
100
AcDbScale
 70
     0
300
1/32" = 1'-0"
140
0.03125
141
12.0
290
     0
  0
SCALE
  5
5C
102
{ACAD_REACTORS
330
47
102
}
330
47
100
AcDbScale
 70
     0
300
1/16" = 1'-0"
140
0.0625
141
12.0
290
     0
  0
SCALE
  5
5D
102
{ACAD_REACTORS
330
47
102
}
330
47
100
AcDbScale
 70
     0
300
3/32" = 1'-0"
140
0.09375
141
12.0
290
     0
  0
SCALE
  5
5E
102
{ACAD_REACTORS
330
47
102
}
330
47
100
AcDbScale
 70
     0
300
1/8" = 1'-0"
140
0.125
141
12.0
290
     0
  0
SCALE
  5
5F
102
{ACAD_REACTORS
330
47
102
}
330
47
100
AcDbScale
 70
     0
300
3/16" = 1'-0"
140
0.1875
141
12.0
290
     0
  0
SCALE
  5
60
102
{ACAD_REACTORS
330
47
102
}
330
47
100
AcDbScale
 70
     0
300
1/4" = 1'-0"
140
0.25
141
12.0
290
     0
  0
SCALE
  5
61
102
{ACAD_REACTORS
330
47
102
}
330
47
100
AcDbScale
 70
     0
300
3/8" = 1'-0"
140
0.375
141
12.0
290
     0
  0
SCALE
  5
62
102
{ACAD_REACTORS
330
47
102
}
330
47
100
AcDbScale
 70
     0
300
1/2" = 1'-0"
140
0.5
141
12.0
290
     0
  0
SCALE
  5
63
102
{ACAD_REACTORS
330
47
102
}
330
47
100
AcDbScale
 70
     0
300
3/4" = 1'-0"
140
0.75
141
12.0
290
     0
  0
SCALE
  5
64
102
{ACAD_REACTORS
330
47
102
}
330
47
100
AcDbScale
 70
     0
300
1" = 1'-0"
140
1.0
141
12.0
290
     0
  0
SCALE
  5
65
102
{ACAD_REACTORS
330
47
102
}
330
47
100
AcDbScale
 70
     0
300
1-1/2" = 1'-0"
140
1.5
141
12.0
290
     0
  0
SCALE
  5
66
102
{ACAD_REACTORS
330
47
102
}
330
47
100
AcDbScale
 70
     0
300
3" = 1'-0"
140
3.0
141
12.0
290
     0
  0
SCALE
  5
67
102
{ACAD_REACTORS
330
47
102
}
330
47
100
AcDbScale
 70
     0
300
6" = 1'-0"
140
6.0
141
12.0
290
     0
  0
SCALE
  5
68
102
{ACAD_REACTORS
330
47
102
}
330
47
100
AcDbScale
 70
     0
300
1'-0" = 1'-0"
140
12.0
141
12.0
290
     0
  0
ENDSEC
  0
EOF
