  0
SECTION
  2
HEADER
  9
$ACADVER
  1
AC1015
  9
$ACADMAINTVER
 70
     6
  9
$DWGCODEPAGE
  3
ANSI_1252
  9
$INSBASE
 10
0.0
 20
0.0
 30
0.0
  9
$EXTMIN
 10
-1446.9775615267
 20
-458.621837381
 30
0.0
  9
$EXTMAX
 10
13.9118394024
 20
34.4926290276
 30
0.0
  9
$LIMMIN
 10
0.0
 20
0.0
  9
$LIMMAX
 10
420.0
 20
297.0
  9
$ORTHOMODE
 70
     0
  9
$REGENMODE
 70
     1
  9
$FILLMODE
 70
     1
  9
$QTEXTMODE
 70
     0
  9
$MIRRTEXT
 70
     1
  9
$LTSCALE
 40
1.0
  9
$ATTMODE
 70
     1
  9
$TEXTSIZE
 40
3.5
  9
$TRACEWID
 40
1.0
  9
$TEXTSTYLE
  7
Standard
  9
$CLAYER
  8
0
  9
$CELTYPE
  6
ByLayer
  9
$CECOLOR
 62
   256
  9
$CELTSCALE
 40
1.0
  9
$DISPSILH
 70
     0
  9
$DIMSCALE
 40
1.0
  9
$DIMASZ
 40
3.302
  9
$DIMEXO
 40
0.0
  9
$DIMDLI
 40
3.75
  9
$DIMRND
 40
0.0
  9
$DIMDLE
 40
0.0
  9
$DIMEXE
 40
1.0
  9
$DIMTP
 40
0.0
  9
$DIMTM
 40
0.0
  9
$DIMTXT
 40
3.5
  9
$DIMCEN
 40
2.5
  9
$DIMTSZ
 40
0.0
  9
$DIMTOL
 70
     0
  9
$DIMLIM
 70
     0
  9
$DIMTIH
 70
     1
  9
$DIMTOH
 70
     1
  9
$DIMSE1
 70
     0
  9
$DIMSE2
 70
     0
  9
$DIMTAD
 70
     1
  9
$DIMZIN
 70
     1
  9
$DIMBLK
  1

  9
$DIMASO
 70
     1
  9
$DIMSHO
 70
     1
  9
$DIMPOST
  1

  9
$DIMAPOST
  1

  9
$DIMALT
 70
     0
  9
$DIMALTD
 70
     3
  9
$DIMALTF
 40
0.0393700787
  9
$DIMLFAC
 40
1.0
  9
$DIMTOFL
 70
     1
  9
$DIMTVP
 40
0.0
  9
$DIMTIX
 70
     0
  9
$DIMSOXD
 70
     0
  9
$DIMSAH
 70
     0
  9
$DIMBLK1
  1

  9
$DIMBLK2
  1

  9
$DIMSTYLE
  2
ISO-25
  9
$DIMCLRD
 70
     0
  9
$DIMCLRE
 70
     0
  9
$DIMCLRT
 70
     0
  9
$DIMTFAC
 40
1.0
  9
$DIMGAP
 40
1.524
  9
$DIMJUST
 70
     0
  9
$DIMSD1
 70
     0
  9
$DIMSD2
 70
     0
  9
$DIMTOLJ
 70
     0
  9
$DIMTZIN
 70
     1
  9
$DIMALTZ
 70
     0
  9
$DIMALTTZ
 70
     0
  9
$DIMUPT
 70
     0
  9
$DIMDEC
 70
     2
  9
$DIMTDEC
 70
     2
  9
$DIMALTU
 70
     2
  9
$DIMALTTD
 70
     3
  9
$DIMTXSTY
  7
Standard
  9
$DIMAUNIT
 70
     0
  9
$DIMADEC
 70
     2
  9
$DIMALTRND
 40
0.0
  9
$DIMAZIN
 70
     0
  9
$DIMDSEP
 70
    44
  9
$DIMATFIT
 70
     3
  9
$DIMFRAC
 70
     0
  9
$DIMLDRBLK
  1

  9
$DIMLUNIT
 70
     2
  9
$DIMLWD
 70
    -2
  9
$DIMLWE
 70
    -2
  9
$DIMTMOVE
 70
     0
  9
$LUNITS
 70
     2
  9
$LUPREC
 70
     2
  9
$SKETCHINC
 40
1.0
  9
$FILLETRAD
 40
10.0
  9
$AUNITS
 70
     0
  9
$AUPREC
 70
     2
  9
$MENU
  1
.
  9
$ELEVATION
 40
0.0
  9
$PELEVATION
 40
0.0
  9
$THICKNESS
 40
0.0
  9
$LIMCHECK
 70
     0
  9
$CHAMFERA
 40
0.0
  9
$CHAMFERB
 40
0.0
  9
$CHAMFERC
 40
0.0
  9
$CHAMFERD
 40
0.0
  9
$SKPOLY
 70
     0
  9
$TDCREATE
 40
2459241.474294791
  9
$TDUCREATE
 40
2459241.390961458
  9
$TDUPDATE
 40
2459241.474345648
  9
$TDUUPDATE
 40
2459241.391012315
  9
$TDINDWG
 40
0.0000000116
  9
$TDUSRTIMER
 40
0.0000000116
  9
$USRTIMER
 70
     1
  9
$ANGBASE
 50
0.0
  9
$ANGDIR
 70
     0
  9
$PDMODE
 70
     0
  9
$PDSIZE
 40
-1.0
  9
$PLINEWID
 40
0.0
  9
$SPLFRAME
 70
     0
  9
$SPLINETYPE
 70
     6
  9
$SPLINESEGS
 70
     8
  9
$HANDSEED
  5
E7
  9
$SURFTAB1
 70
     6
  9
$SURFTAB2
 70
     6
  9
$SURFTYPE
 70
     6
  9
$SURFU
 70
     6
  9
$SURFV
 70
     6
  9
$UCSBASE
  2

  9
$UCSNAME
  2

  9
$UCSORG
 10
0.0
 20
0.0
 30
0.0
  9
$UCSXDIR
 10
1.0
 20
0.0
 30
0.0
  9
$UCSYDIR
 10
0.0
 20
1.0
 30
0.0
  9
$UCSORTHOREF
  2

  9
$UCSORTHOVIEW
 70
     0
  9
$UCSORGTOP
 10
0.0
 20
0.0
 30
0.0
  9
$UCSORGBOTTOM
 10
0.0
 20
0.0
 30
0.0
  9
$UCSORGLEFT
 10
0.0
 20
0.0
 30
0.0
  9
$UCSORGRIGHT
 10
0.0
 20
0.0
 30
0.0
  9
$UCSORGFRONT
 10
0.0
 20
0.0
 30
0.0
  9
$UCSORGBACK
 10
0.0
 20
0.0
 30
0.0
  9
$PUCSBASE
  2

  9
$PUCSNAME
  2

  9
$PUCSORG
 10
0.0
 20
0.0
 30
0.0
  9
$PUCSXDIR
 10
1.0
 20
0.0
 30
0.0
  9
$PUCSYDIR
 10
0.0
 20
1.0
 30
0.0
  9
$PUCSORTHOREF
  2

  9
$PUCSORTHOVIEW
 70
     0
  9
$PUCSORGTOP
 10
0.0
 20
0.0
 30
0.0
  9
$PUCSORGBOTTOM
 10
0.0
 20
0.0
 30
0.0
  9
$PUCSORGLEFT
 10
0.0
 20
0.0
 30
0.0
  9
$PUCSORGRIGHT
 10
0.0
 20
0.0
 30
0.0
  9
$PUCSORGFRONT
 10
0.0
 20
0.0
 30
0.0
  9
$PUCSORGBACK
 10
0.0
 20
0.0
 30
0.0
  9
$USERI1
 70
     0
  9
$USERI2
 70
     0
  9
$USERI3
 70
     0
  9
$USERI4
 70
     0
  9
$USERI5
 70
     0
  9
$USERR1
 40
0.0
  9
$USERR2
 40
0.0
  9
$USERR3
 40
0.0
  9
$USERR4
 40
0.0
  9
$USERR5
 40
0.0
  9
$WORLDVIEW
 70
     1
  9
$SHADEDGE
 70
     3
  9
$SHADEDIF
 70
    70
  9
$TILEMODE
 70
     1
  9
$MAXACTVP
 70
    64
  9
$PINSBASE
 10
0.0
 20
0.0
 30
0.0
  9
$PLIMCHECK
 70
     0
  9
$PEXTMIN
 10
1.0000000000E+20
 20
1.0000000000E+20
 30
1.0000000000E+20
  9
$PEXTMAX
 10
-1.0000000000E+20
 20
-1.0000000000E+20
 30
-1.0000000000E+20
  9
$PLIMMIN
 10
0.0
 20
0.0
  9
$PLIMMAX
 10
420.0
 20
297.0
  9
$UNITMODE
 70
     0
  9
$VISRETAIN
 70
     1
  9
$PLINEGEN
 70
     0
  9
$PSLTSCALE
 70
     1
  9
$TREEDEPTH
 70
  3020
  9
$CMLSTYLE
  2
Standard
  9
$CMLJUST
 70
     0
  9
$CMLSCALE
 40
20.0
  9
$PROXYGRAPHICS
 70
     1
  9
$MEASUREMENT
 70
     1
  9
$CELWEIGHT
370
    -1
  9
$ENDCAPS
280
     0
  9
$JOINSTYLE
280
     0
  9
$LWDISPLAY
290
     1
  9
$INSUNITS
 70
     4
  9
$HYPERLINKBASE
  1

  9
$STYLESHEET
  1

  9
$XEDIT
290
     1
  9
$CEPSNTYPE
380
     0
  9
$PSTYLEMODE
290
     1
  9
$FINGERPRINTGUID
  2
{249e67e4-57d8-4f82-833c-e5c7434d4943}
  9
$VERSIONGUID
  2
{FAEB1C32-E019-11D5-929B-00C0DF256EC4}
  9
$EXTNAMES
290
     1
  9
$PSVPSCALE
 40
0.0
  9
$OLESTARTUP
290
     0
  0
ENDSEC
  0
SECTION
  2
CLASSES
  0
CLASS
  1
ACDBDICTIONARYWDFLT
  2
AcDbDictionaryWithDefault
  3
ObjectDBX Classes
 90
        0
280
     0
281
     0
  0
CLASS
  1
VISUALSTYLE
  2
AcDbVisualStyle
  3
ObjectDBX Classes
 90
     4095
280
     0
281
     0
  0
CLASS
  1
MATERIAL
  2
AcDbMaterial
  3
ObjectDBX Classes
 90
     1153
280
     0
281
     0
  0
CLASS
  1
SCALE
  2
AcDbScale
  3
ObjectDBX Classes
 90
     1153
280
     0
281
     0
  0
CLASS
  1
TABLESTYLE
  2
AcDbTableStyle
  3
ObjectDBX Classes
 90
     4095
280
     0
281
     0
  0
CLASS
  1
MLEADERSTYLE
  2
AcDbMLeaderStyle
  3
ACDB_MLEADERSTYLE_CLASS
 90
     4095
280
     0
281
     0
  0
CLASS
  1
SUN
  2
AcDbSun
  3
SCENEOE
 90
     1153
280
     0
281
     0
  0
CLASS
  1
ACDBPLACEHOLDER
  2
AcDbPlaceHolder
  3
ObjectDBX Classes
 90
        0
280
     0
281
     0
  0
CLASS
  1
LAYOUT
  2
AcDbLayout
  3
ObjectDBX Classes
 90
        0
280
     0
281
     0
  0
ENDSEC
  0
SECTION
  2
TABLES
  0
TABLE
  2
VPORT
  5
8
330
0
100
AcDbSymbolTable
 70
     1
  0
VPORT
  5
29
330
8
100
AcDbSymbolTableRecord
100
AcDbViewportTableRecord
  2
*Active
 70
     0
 10
0.0
 20
0.0
 11
1.0
 21
1.0
 12
-716.5328610621
 22
-212.0646041767
 13
0.0
 23
0.0
 14
10.0
 24
10.0
 15
10.0
 25
10.0
 16
0.0
 26
0.0
 36
1.0
 17
0.0
 27
0.0
 37
0.0
 40
502.9767557367
 41
2.9625766439
 42
50.0
 43
0.0
 44
0.0
 50
0.0
 51
0.0
 71
     0
 72
   100
 73
     1
 74
     3
 75
     0
 76
     0
 77
     0
 78
     0
281
     0
 65
     1
110
0.0
120
0.0
130
0.0
111
1.0
121
0.0
131
0.0
112
0.0
122
1.0
132
0.0
 79
     0
146
0.0
  0
ENDTAB
  0
TABLE
  2
LTYPE
  5
5
330
0
100
AcDbSymbolTable
 70
     6
  0
LTYPE
  5
14
330
5
100
AcDbSymbolTableRecord
100
AcDbLinetypeTableRecord
  2
ByBlock
 70
     0
  3

 72
    65
 73
     0
 40
0.0
  0
LTYPE
  5
15
330
5
100
AcDbSymbolTableRecord
100
AcDbLinetypeTableRecord
  2
ByLayer
 70
     0
  3

 72
    65
 73
     0
 40
0.0
  0
LTYPE
  5
16
330
5
100
AcDbSymbolTableRecord
100
AcDbLinetypeTableRecord
  2
Continuous
 70
     0
  3
Solid line
 72
    65
 73
     0
 40
0.0
  0
LTYPE
  5
6E
330
5
100
AcDbSymbolTableRecord
100
AcDbLinetypeTableRecord
  2
HIDDEN
 70
     0
  3
Hidden __ __ __ __ __ __ __ __ __ __ __ __ __ __
 72
    65
 73
     2
 40
1.905
 49
1.27
 74
     0
 49
-0.635
 74
     0
  0
LTYPE
  5
6F
330
5
100
AcDbSymbolTableRecord
100
AcDbLinetypeTableRecord
  2
PHANTOM
 70
     0
  3
Phantom ______  __  __  ______  __  __  ______
 72
    65
 73
     6
 40
12.7
 49
6.35
 74
     0
 49
-1.27
 74
     0
 49
1.27
 74
     0
 49
-1.27
 74
     0
 49
1.27
 74
     0
 49
-1.27
 74
     0
  0
LTYPE
  5
70
330
5
100
AcDbSymbolTableRecord
100
AcDbLinetypeTableRecord
  2
CENTER
 70
     0
  3
Center ____ _ ____ _ ____ _ ____ _ ____ _ ____
 72
    65
 73
     4
 40
10.16
 49
6.35
 74
     0
 49
-1.27
 74
     0
 49
1.27
 74
     0
 49
-1.27
 74
     0
  0
LTYPE
  5
71
330
5
100
AcDbSymbolTableRecord
100
AcDbLinetypeTableRecord
  2
CENTERX2
 70
     0
  3
Center (2x) ________  __  ________  __  _____
 72
    65
 73
     4
 40
20.32
 49
12.7
 74
     0
 49
-2.54
 74
     0
 49
2.54
 74
     0
 49
-2.54
 74
     0
  0
LTYPE
  5
72
330
5
100
AcDbSymbolTableRecord
100
AcDbLinetypeTableRecord
  2
DOT2
 70
     0
  3
Dot (.5x) ........................................
 72
    65
 73
     2
 40
0.635
 49
0.0
 74
     0
 49
-0.635
 74
     0
  0
ENDTAB
  0
TABLE
  2
LAYER
  5
2
330
0
100
AcDbSymbolTable
 70
     1
  0
LAYER
  5
10
330
2
100
AcDbSymbolTableRecord
100
AcDbLayerTableRecord
  2
0
 70
     0
 62
     7
  6
Continuous
370
    -3
390
F
  0
ENDTAB
  0
TABLE
  2
STYLE
  5
3
330
0
100
AcDbSymbolTable
 70
     1
  0
STYLE
  5
11
330
3
100
AcDbSymbolTableRecord
100
AcDbTextStyleTableRecord
  2
Standard
 70
     0
 40
0.0
 41
1.0
 50
0.0
 71
     0
 42
3.5
  3
txt
  4

  0
ENDTAB
  0
TABLE
  2
VIEW
  5
6
330
0
100
AcDbSymbolTable
 70
     0
  0
ENDTAB
  0
TABLE
  2
UCS
  5
7
330
0
100
AcDbSymbolTable
 70
     0
  0
ENDTAB
  0
TABLE
  2
APPID
  5
9
330
0
100
AcDbSymbolTable
 70
     1
  0
APPID
  5
12
330
9
100
AcDbSymbolTableRecord
100
AcDbRegAppTableRecord
  2
ACAD
 70
     0
  0
ENDTAB
  0
TABLE
  2
DIMSTYLE
  5
A
330
0
100
AcDbSymbolTable
 70
     1
100
AcDbDimStyleTable
  0
DIMSTYLE
105
27
330
A
100
AcDbSymbolTableRecord
100
AcDbDimStyleTableRecord
  2
ISO-25
 70
     0
 41
2.5
 42
0.625
 43
3.75
 44
1.25
 73
     0
 74
     0
 77
     1
 78
     8
140
2.5
141
2.5
143
0.0393700787
147
0.625
171
     3
172
     1
178
     0
271
     2
272
     2
274
     3
278
    44
283
     0
284
     8
340
11
  0
ENDTAB
  0
TABLE
  2
BLOCK_RECORD
  5
1
330
0
100
AcDbSymbolTable
 70
     1
  0
BLOCK_RECORD
  5
1F
330
1
100
AcDbSymbolTableRecord
100
AcDbBlockTableRecord
  2
*Model_Space
340
22
  0
BLOCK_RECORD
  5
1B
330
1
100
AcDbSymbolTableRecord
100
AcDbBlockTableRecord
  2
*Paper_Space
340
1E
  0
BLOCK_RECORD
  5
23
330
1
100
AcDbSymbolTableRecord
100
AcDbBlockTableRecord
  2
*Paper_Space0
340
26
  0
ENDTAB
  0
ENDSEC
  0
SECTION
  2
BLOCKS
  0
BLOCK
  5
20
330
1F
100
AcDbEntity
  8
0
100
AcDbBlockBegin
  2
*Model_Space
 70
     0
 10
0.0
 20
0.0
 30
0.0
  3
*Model_Space
  1

  0
ENDBLK
  5
21
330
1F
100
AcDbEntity
  8
0
100
AcDbBlockEnd
  0
BLOCK
  5
1C
330
1B
100
AcDbEntity
 67
     1
  8
0
100
AcDbBlockBegin
  2
*Paper_Space
 70
     0
 10
0.0
 20
0.0
 30
0.0
  3
*Paper_Space
  1

  0
ENDBLK
  5
1D
330
1B
100
AcDbEntity
 67
     1
  8
0
100
AcDbBlockEnd
  0
BLOCK
  5
24
330
23
100
AcDbEntity
  8
0
100
AcDbBlockBegin
  2
*Paper_Space0
 70
     0
 10
0.0
 20
0.0
 30
0.0
  3
*Paper_Space0
  1

  0
ENDBLK
  5
25
330
23
100
AcDbEntity
  8
0
100
AcDbBlockEnd
  0
ENDSEC
  0
SECTION
  2
ENTITIES
  0
LWPOLYLINE
  5
7D
330
1F
100
AcDbEntity
  8
0
  6
Continuous
 62
     7
370
    25
100
AcDbPolyline
 90
       22
 70
   128
 43
0.0
 10
-1436.6511923411
 20
-429.0296733178
 10
-1436.6114302114
 20
-428.9500438482
 10
-1436.677013468
 20
-428.5363520685
 10
-1436.8421147508
 20
-427.8253563089
 10
-1437.0920640863
 20
-426.8802316627
 10
-1437.4046523791
 20
-425.7849566023
 10
-1437.7521047877
 20
-424.6368511235
 10
-1438.1035486407
 20
-423.5379294364
 10
-1438.4277566096
 20
-422.5858355553
 10
-1438.6959213936
 20
-421.8651671999
 10
-1438.8842153747
 20
-421.4399589162
 10
-1438.9759078064
 20
-421.347992326
 10
-1438.9628514139
 20
-421.5974390646
 10
-1438.8462063148
 20
-422.1661346946
 10
-1438.6363369381
 20
-423.0035481135
 10
-1438.3518910989
 20
-424.0352714642
 10
-1438.0181430584
 20
-425.1696315992
 10
-1437.6647477945
 20
-426.3058356426
 10
-1437.3231060272
 20
-427.342926879
 10
-1437.023574127
 20
-428.1887552007
 10
-1436.7927668175
 20
-428.7681650496
 10
-1436.6511923411
 20
-429.0296733178
  0
LWPOLYLINE
  5
7E
330
1F
100
AcDbEntity
  8
0
  6
Continuous
 62
     7
370
    25
100
AcDbPolyline
 90
       22
 70
   128
 43
0.0
 10
-1427.4803461229
 20
-438.2279401676
 10
-1427.4405839931
 20
-438.148310698
 10
-1427.5061672497
 20
-437.7346189183
 10
-1427.6712685325
 20
-437.0236231587
 10
-1427.921217868
 20
-436.0784985125
 10
-1428.2338061609
 20
-434.9832234521
 10
-1428.5812585694
 20
-433.8351179733
 10
-1428.9327024225
 20
-432.7361962862
 10
-1429.2569103914
 20
-431.7841024051
 10
-1429.5250751753
 20
-431.0634340497
 10
-1429.7133691564
 20
-430.638225766
 10
-1429.8050615882
 20
-430.5462591758
 10
-1429.7920051956
 20
-430.7957059144
 10
-1429.6753600965
 20
-431.3644015444
 10
-1429.4654907198
 20
-432.2018149633
 10
-1429.1810448807
 20
-433.233538314
 10
-1428.8472968401
 20
-434.367898449
 10
-1428.4939015762
 20
-435.5041024924
 10
-1428.152259809
 20
-436.5411937288
 10
-1427.8527279087
 20
-437.3870220505
 10
-1427.6219205992
 20
-437.9664318994
 10
-1427.4803461229
 20
-438.2279401676
  0
CIRCLE
  5
84
330
1F
100
AcDbEntity
  8
0
  6
Continuous
 62
     7
370
    25
100
AcDbCircle
 10
-708.8850350659
 20
-219.7155591011
 30
0.0
 40
2.986742741738984
  0
CIRCLE
  5
85
330
1F
100
AcDbEntity
  8
0
  6
Continuous
 62
     7
370
    25
100
AcDbCircle
 10
-429.3803257631
 20
-134.8028430815
 30
0.0
 40
2.98674274173887
  0
CIRCLE
  5
86
330
1F
100
AcDbEntity
  8
0
  6
Continuous
 62
     7
370
    25
100
AcDbCircle
 10
-522.5485621974
 20
-163.1070817547
 30
0.0
 40
2.986742741738984
  0
CIRCLE
  5
87
330
1F
100
AcDbEntity
  8
0
  6
Continuous
 62
     7
370
    25
100
AcDbCircle
 10
-615.7167986316
 20
-191.4113204279
 30
0.0
 40
2.986742741738981
  0
CIRCLE
  5
88
330
1F
100
AcDbEntity
  8
0
  6
Continuous
 62
     7
370
    25
100
AcDbCircle
 10
-802.0532715002
 20
-248.0197977743
 30
0.0
 40
2.986742741739008
  0
CIRCLE
  5
89
330
1F
100
AcDbEntity
  8
0
  6
Continuous
 62
     7
370
    25
100
AcDbCircle
 10
-895.2215079345
 20
-276.3240364475
 30
0.0
 40
2.986742741739049
  0
CIRCLE
  5
8A
330
1F
100
AcDbEntity
  8
0
  6
Continuous
 62
     7
370
    25
100
AcDbCircle
 10
-988.3897443687
 20
-304.6282751207
 30
0.0
 40
2.986742741738968
  0
CIRCLE
  5
8B
330
1F
100
AcDbEntity
  8
0
  6
Continuous
 62
     7
370
    25
100
AcDbCircle
 10
-125.632743632
 20
-42.5252129569
 30
0.0
 40
2.986742741739007
  0
CIRCLE
  5
8C
330
1F
100
AcDbEntity
  8
0
  6
Continuous
 62
     7
370
    25
100
AcDbCircle
 10
-231.567417387
 20
-74.707858078
 30
0.0
 40
2.986742741738994
  0
CIRCLE
  5
8D
330
1F
100
AcDbEntity
  8
0
  6
Continuous
 62
     7
370
    25
100
AcDbCircle
 10
-1187.4973598632
 20
-365.116588373
 30
0.0
 40
2.986742741739
  0
CIRCLE
  5
8E
330
1F
100
AcDbEntity
  8
0
  6
Continuous
 62
     7
370
    25
100
AcDbCircle
 10
-1293.4320336181
 20
-397.2992334942
 30
0.0
 40
2.986742741738766
  0
CIRCLE
  5
8F
330
1F
100
AcDbEntity
  8
0
  6
Continuous
 62
     7
370
    25
100
AcDbCircle
 10
-19.6980698771
 20
-10.3425678357
 30
0.0
 40
2.986742741738966
  0
CIRCLE
  5
90
330
1F
100
AcDbEntity
  8
0
  6
Continuous
 62
     7
370
    25
100
AcDbCircle
 10
-336.2120893288
 20
-106.4986044083
 30
0.0
 40
2.986742741739021
  0
CIRCLE
  5
91
330
1F
100
AcDbEntity
  8
0
  6
Continuous
 62
     7
370
    25
100
AcDbCircle
 10
-1081.557980803
 20
-332.9325137939
 30
0.0
 40
2.986742741739017
  0
CIRCLE
  5
92
330
1F
100
AcDbEntity
  8
0
  6
Continuous
 62
     7
370
    25
100
AcDbCircle
 10
-1399.366707373
 20
-429.4818786153
 30
0.0
 40
2.986742741739365
  0
LWPOLYLINE
  5
97
330
1F
100
AcDbEntity
  8
0
  6
Continuous
 62
     7
370
    25
100
AcDbPolyline
 90
       46
 70
   128
 43
0.0
 10
-59.7697621071
 20
18.3560991454
 10
-62.1501922697
 20
17.6154367796
 10
-64.4575150534
 20
16.862335494
 10
-66.6468210447
 20
16.1114535486
 10
-68.6754978928
 20
15.3774060062
 10
-70.5040597105
 20
14.6744802674
 10
-72.096915622
 20
14.0163579821
 10
-73.4230624987
 20
13.4158487519
 10
-74.4566884002
 20
12.884640806
 10
-75.177674974
 20
12.4330735028
 10
-75.5719890367
 20
12.0699360861
 10
-75.6319557134
 20
11.8022966128
 10
-75.3564078211
 20
11.6353643808
 10
-74.750708586
 20
11.572388536
 10
-73.8266472547
 20
11.6145948317
 10
-72.6022096301
 20
11.7611617702
 10
-71.1012279976
 20
12.009236593
 10
-69.3529172574
 20
12.3539908057
 10
-67.3913062894
 20
12.7887141597
 10
-65.2545756197
 20
13.3049452595
 10
-62.9843142805
 20
13.8926362538
 10
-60.6247103261
 20
14.540348406
 10
-58.2216907637
 20
15.2354747358
 10
-55.8220276356
 20
15.9644853999
 10
-53.472427655
 20
16.7131910349
 10
-51.218623113
 20
17.4670189373
 10
-49.1044817511
 20
18.2112967044
 10
-47.1711529263
 20
18.9315378161
 10
-45.4562666851
 20
19.6137235985
 10
-43.9932013373
 20
20.2445760812
 10
-42.8104337859
 20
20.8118164382
 10
-41.9309852558
 20
21.3044039813
 10
-41.3719732124
 20
21.7127510542
 10
-41.144278189
 20
22.0289096456
 10
-41.2523320105
 20
22.2467260882
 10
-41.6940315321
 20
22.3619608326
 10
-42.460779575
 20
22.3723709658
 10
-43.5376522606
 20
22.2777538661
 10
-44.9036894872
 20
22.079951148
 10
-46.532302894
 20
21.7828128162
 10
-48.3917933734
 20
21.3921223305
 10
-50.4459680586
 20
20.9154840367
 10
-52.6548447757
 20
20.362175157
 10
-54.9754302521
 20
19.7429652194
 10
-57.362556931
 20
19.0699064411
 10
-59.7697621071
 20
18.3560991454
  0
LWPOLYLINE
  5
98
330
1F
100
AcDbEntity
  8
0
  6
Continuous
 62
     7
370
    25
100
AcDbPolyline
 90
       46
 70
   128
 43
0.0
 10
-50.8281870443
 20
9.3877889669
 10
-53.2086172069
 20
8.647126601
 10
-55.5159399906
 20
7.8940253155
 10
-57.7052459819
 20
7.14314337
 10
-59.73392283
 20
6.4090958277
 10
-61.5624846477
 20
5.7061700889
 10
-63.1553405592
 20
5.0480478035
 10
-64.4814874359
 20
4.4475385734
 10
-65.5151133374
 20
3.9163306275
 10
-66.2360999112
 20
3.4647633242
 10
-66.6304139739
 20
3.1016259076
 10
-66.6903806506
 20
2.8339864343
 10
-66.4148327583
 20
2.6670542022
 10
-65.8091335232
 20
2.6040783574
 10
-64.8850721919
 20
2.6462846531
 10
-63.6606345673
 20
2.7928515917
 10
-62.1596529348
 20
3.0409264144
 10
-60.4113421946
 20
3.3856806271
 10
-58.4497312266
 20
3.8204039812
 10
-56.3130005569
 20
4.3366350809
 10
-54.0427392177
 20
4.9243260753
 10
-51.6831352633
 20
5.5720382275
 10
-49.2801157009
 20
6.2671645573
 10
-46.8804525728
 20
6.9961752213
 10
-44.5308525922
 20
7.7448808563
 10
-42.2770480502
 20
8.4987087587
 10
-40.1629066883
 20
9.2429865258
 10
-38.2295778635
 20
9.9632276376
 10
-36.5146916223
 20
10.6454134199
 10
-35.0516262745
 20
11.2762659026
 10
-33.8688587231
 20
11.8435062597
 10
-32.989410193
 20
12.3360938027
 10
-32.4303981495
 20
12.7444408756
 10
-32.2027031262
 20
13.060599467
 10
-32.3107569477
 20
13.2784159096
 10
-32.7524564693
 20
13.3936506541
 10
-33.5192045121
 20
13.4040607872
 10
-34.5960771978
 20
13.3094436876
 10
-35.9621144244
 20
13.1116409694
 10
-37.5907278312
 20
12.8145026377
 10
-39.4502183106
 20
12.4238121519
 10
-41.5043929958
 20
11.9471738581
 10
-43.7132697129
 20
11.3938649784
 10
-46.0338551892
 20
10.7746550409
 10
-48.4209818682
 20
10.1015962625
 10
-50.8281870443
 20
9.3877889669
  0
LWPOLYLINE
  5
99
330
1F
100
AcDbEntity
  8
0
  6
Continuous
 62
     7
370
    25
100
AcDbPolyline
 90
       46
 70
   128
 43
0.0
 10
-1397.5700801376
 20
-388.0637382133
 10
-1399.9505103002
 20
-388.8044005792
 10
-1402.2578330839
 20
-389.5575018647
 10
-1404.4471390752
 20
-390.3083838102
 10
-1406.4758159234
 20
-391.0424313525
 10
-1408.3043777411
 20
-391.7453570913
 10
-1409.8972336525
 20
-392.4034793767
 10
-1411.2233805292
 20
-393.0039886068
 10
-1412.2570064307
 20
-393.5351965527
 10
-1412.9779930046
 20
-393.986763856
 10
-1413.3723070672
 20
-394.3499012726
 10
-1413.4322737439
 20
-394.6175407459
 10
-1413.1567258516
 20
-394.784472978
 10
-1412.5510266165
 20
-394.8474488228
 10
-1411.6269652853
 20
-394.8052425271
 10
-1410.4025276606
 20
-394.6586755885
 10
-1408.9015460281
 20
-394.4106007658
 10
-1407.1532352879
 20
-394.0658465531
 10
-1405.1916243199
 20
-393.6311231991
 10
-1403.0548936503
 20
-393.1148920993
 10
-1400.784632311
 20
-392.527201105
 10
-1398.4250283567
 20
-391.8794889527
 10
-1396.0220087943
 20
-391.1843626229
 10
-1393.6223456662
 20
-390.4553519589
 10
-1391.2727456856
 20
-389.7066463239
 10
-1389.0189411435
 20
-388.9528184215
 10
-1386.9047997817
 20
-388.2085406544
 10
-1384.9714709569
 20
-387.4882995426
 10
-1383.2565847156
 20
-386.8061137603
 10
-1381.7935193679
 20
-386.1752612776
 10
-1380.6107518165
 20
-385.6080209205
 10
-1379.7313032864
 20
-385.1154333775
 10
-1379.1722912429
 20
-384.7070863046
 10
-1378.9445962196
 20
-384.3909277132
 10
-1379.0526500411
 20
-384.1731112706
 10
-1379.4943495626
 20
-384.0578765261
 10
-1380.2610976055
 20
-384.047466393
 10
-1381.3379702912
 20
-384.1420834926
 10
-1382.7040075178
 20
-384.3398862108
 10
-1384.3326209245
 20
-384.6370245425
 10
-1386.192111404
 20
-385.0277150283
 10
-1388.2462860891
 20
-385.5043533221
 10
-1390.4551628062
 20
-386.0576622018
 10
-1392.7757482826
 20
-386.6768721393
 10
-1395.1628749616
 20
-387.3499309177
 10
-1397.5700801376
 20
-388.0637382133
  0
LWPOLYLINE
  5
9A
330
1F
100
AcDbEntity
  8
0
  6
Continuous
 62
     7
370
    25
100
AcDbPolyline
 90
       46
 70
   128
 43
0.0
 10
-1388.6285050748
 20
-397.0320483919
 10
-1391.0089352374
 20
-397.7727107577
 10
-1393.3162580211
 20
-398.5258120433
 10
-1395.5055640124
 20
-399.2766939887
 10
-1397.5342408606
 20
-400.0107415311
 10
-1399.3628026783
 20
-400.7136672699
 10
-1400.9556585897
 20
-401.3717895552
 10
-1402.2818054664
 20
-401.9722987854
 10
-1403.3154313679
 20
-402.5035067313
 10
-1404.0364179418
 20
-402.9550740345
 10
-1404.4307320044
 20
-403.3182114512
 10
-1404.4906986811
 20
-403.5858509245
 10
-1404.2151507888
 20
-403.7527831565
 10
-1403.6094515537
 20
-403.8157590013
 10
-1402.6853902224
 20
-403.7735527057
 10
-1401.4609525978
 20
-403.6269857671
 10
-1399.9599709653
 20
-403.3789109443
 10
-1398.2116602251
 20
-403.0341567316
 10
-1396.2500492571
 20
-402.5994333776
 10
-1394.1133185875
 20
-402.0832022778
 10
-1391.8430572482
 20
-401.4955112835
 10
-1389.4834532939
 20
-400.8477991313
 10
-1387.0804337315
 20
-400.1526728015
 10
-1384.6807706034
 20
-399.4236621374
 10
-1382.3311706228
 20
-398.6749565024
 10
-1380.0773660807
 20
-397.9211286
 10
-1377.9632247189
 20
-397.1768508329
 10
-1376.0298958941
 20
-396.4566097212
 10
-1374.3150096528
 20
-395.7744239388
 10
-1372.8519443051
 20
-395.1435714561
 10
-1371.6691767536
 20
-394.5763310991
 10
-1370.7897282236
 20
-394.083743556
 10
-1370.2307161801
 20
-393.6753964831
 10
-1370.0030211568
 20
-393.3592378917
 10
-1370.1110749783
 20
-393.1414214491
 10
-1370.5527744998
 20
-393.0261867047
 10
-1371.3195225427
 20
-393.0157765716
 10
-1372.3963952284
 20
-393.1103936712
 10
-1373.762432455
 20
-393.3081963893
 10
-1375.3910458617
 20
-393.6053347211
 10
-1377.2505363412
 20
-393.9960252068
 10
-1379.3047110263
 20
-394.4726635007
 10
-1381.5135877434
 20
-395.0259723803
 10
-1383.8341732198
 20
-395.6451823179
 10
-1386.2212998988
 20
-396.3182410963
 10
-1388.6285050748
 20
-397.0320483919
  0
LWPOLYLINE
  5
9B
330
1F
100
AcDbEntity
  8
0
  6
Continuous
 62
     7
370
    25
100
AcDbPolyline
 90
       30
 70
   128
 43
0.0
 10
-1289.5242314288
 20
-358.1359405681
 10
-1289.2140748312
 20
-358.2134678667
 10
-1288.5609690628
 20
-358.1787772756
 10
-1287.5954526234
 20
-358.0334908882
 10
-1286.3626719886
 20
-357.7844021347
 10
-1284.9202706107
 20
-357.4431581282
 10
-1283.3356935751
 20
-357.0257150592
 10
-1281.6830339429
 20
-356.5515921017
 10
-1280.0395682416
 20
-356.0429587183
 10
-1278.4821431008
 20
-355.5235980406
 10
-1277.0835819892
 20
-355.0177947967
 10
-1275.9092800699
 20
-354.5491997841
 10
-1275.0141463957
 20
-354.1397239848
 10
-1274.4400364221
 20
-353.8085140321
 10
-1274.2137948935
 20
-353.5710569353
 10
-1274.3460006123
 20
-353.4384559242
 10
-1274.8304717861
 20
-353.4169112748
 10
-1275.6445550812
 20
-353.507430391
 10
-1276.7501848675
 20
-353.7057806994
 10
-1278.095663125
 20
-354.0026875602
 10
-1279.6180767858
 20
-354.3842679385
 10
-1281.2462394792
 20
-354.8326795598
 10
-1282.9040201272
 20
-355.3269551952
 10
-1284.5139027491
 20
-355.8439830653
 10
-1286.0006110229
 20
-356.3595875215
 10
-1287.294628122
 20
-356.8496594725
 10
-1288.3354472451
 20
-357.2912836986
 10
-1289.0744008467
 20
-357.6638103418
 10
-1289.4769362777
 20
-357.9498204702
 10
-1289.5242314288
 20
-358.1359405681
  0
LWPOLYLINE
  5
9C
330
1F
100
AcDbEntity
  8
0
  6
Continuous
 62
     7
370
    25
100
AcDbPolyline
 90
       30
 70
   128
 43
0.0
 10
-1282.1875544542
 20
-365.494554048
 10
-1281.8773978566
 20
-365.5720813465
 10
-1281.2242920882
 20
-365.5373907554
 10
-1280.2587756488
 20
-365.3921043681
 10
-1279.0259950139
 20
-365.1430156145
 10
-1277.5835936361
 20
-364.801771608
 10
-1275.9990166005
 20
-364.3843285391
 10
-1274.3463569683
 20
-363.9102055816
 10
-1272.7028912669
 20
-363.4015721981
 10
-1271.1454661262
 20
-362.8822115204
 10
-1269.7469050146
 20
-362.3764082765
 10
-1268.5726030953
 20
-361.9078132639
 10
-1267.677469421
 20
-361.4983374647
 10
-1267.1033594475
 20
-361.167127512
 10
-1266.8771179189
 20
-360.9296704151
 10
-1267.0093236377
 20
-360.797069404
 10
-1267.4937948115
 20
-360.7755247547
 10
-1268.3078781066
 20
-360.8660438708
 10
-1269.4135078929
 20
-361.0643941793
 10
-1270.7589861504
 20
-361.36130104
 10
-1272.2813998112
 20
-361.7428814183
 10
-1273.9095625046
 20
-362.1912930396
 10
-1275.5673431526
 20
-362.685568675
 10
-1277.1772257745
 20
-363.2025965451
 10
-1278.6639340483
 20
-363.7182010014
 10
-1279.9579511474
 20
-364.2082729524
 10
-1280.9987702705
 20
-364.6498971785
 10
-1281.7377238721
 20
-365.0224238216
 10
-1282.1402593031
 20
-365.30843395
 10
-1282.1875544542
 20
-365.494554048
  0
LWPOLYLINE
  5
9D
330
1F
100
AcDbEntity
  8
0
  6
Continuous
 62
     7
370
    25
100
AcDbPolyline
 90
       30
 70
   128
 43
0.0
 10
-734.0982065322
 20
-189.3991330933
 10
-733.7880499346
 20
-189.4766603918
 10
-733.1349441662
 20
-189.4419698007
 10
-732.1694277268
 20
-189.2966834134
 10
-730.936647092
 20
-189.0475946598
 10
-729.4942457141
 20
-188.7063506533
 10
-727.9096686785
 20
-188.2889075844
 10
-726.2570090463
 20
-187.8147846269
 10
-724.6135433449
 20
-187.3061512435
 10
-723.0561182042
 20
-186.7867905658
 10
-721.6575570926
 20
-186.2809873219
 10
-720.4832551733
 20
-185.8123923093
 10
-719.588121499
 20
-185.40291651
 10
-719.0140115255
 20
-185.0717065573
 10
-718.7877699969
 20
-184.8342494604
 10
-718.9199757157
 20
-184.7016484494
 10
-719.4044468895
 20
-184.6801038
 10
-720.2185301846
 20
-184.7706229161
 10
-721.3241599709
 20
-184.9689732246
 10
-722.6696382284
 20
-185.2658800854
 10
-724.1920518892
 20
-185.6474604636
 10
-725.8202145826
 20
-186.095872085
 10
-727.4779952306
 20
-186.5901477204
 10
-729.0878778525
 20
-187.1071755905
 10
-730.5745861263
 20
-187.6227800467
 10
-731.8686032254
 20
-188.1128519977
 10
-732.9094223485
 20
-188.5544762238
 10
-733.6483759501
 20
-188.9270028669
 10
-734.0509113811
 20
-189.2130129953
 10
-734.0982065322
 20
-189.3991330933
  0
LWPOLYLINE
  5
9E
330
1F
100
AcDbEntity
  8
0
  6
Continuous
 62
     7
370
    25
100
AcDbPolyline
 90
       30
 70
   128
 43
0.0
 10
-726.7615295576
 20
-196.7577465731
 10
-726.45137296
 20
-196.8352738717
 10
-725.7982671916
 20
-196.8005832806
 10
-724.8327507522
 20
-196.6552968932
 10
-723.5999701173
 20
-196.4062081397
 10
-722.1575687395
 20
-196.0649641332
 10
-720.5729917039
 20
-195.6475210642
 10
-718.9203320717
 20
-195.1733981067
 10
-717.2768663703
 20
-194.6647647233
 10
-715.7194412296
 20
-194.1454040456
 10
-714.320880118
 20
-193.6396008017
 10
-713.1465781987
 20
-193.1710057891
 10
-712.2514445244
 20
-192.7615299898
 10
-711.6773345509
 20
-192.4303200371
 10
-711.4510930223
 20
-192.1928629403
 10
-711.5832987411
 20
-192.0602619292
 10
-712.0677699149
 20
-192.0387172798
 10
-712.88185321
 20
-192.129236396
 10
-713.9874829963
 20
-192.3275867044
 10
-715.3329612538
 20
-192.6244935652
 10
-716.8553749146
 20
-193.0060739435
 10
-718.483537608
 20
-193.4544855648
 10
-720.141318256
 20
-193.9487612002
 10
-721.7512008779
 20
-194.4657890703
 10
-723.2379091517
 20
-194.9813935265
 10
-724.5319262508
 20
-195.4714654775
 10
-725.5727453739
 20
-195.9130897036
 10
-726.3116989755
 20
-196.2856163468
 10
-726.7142344065
 20
-196.5716264752
 10
-726.7615295576
 20
-196.7577465731
  0
LWPOLYLINE
  5
9F
330
1F
100
AcDbEntity
  8
0
  6
Continuous
 62
     7
370
    25
100
AcDbPolyline
 90
       22
 70
   128
 43
0.0
 10
-1103.813415841
 20
-300.6189712866
 10
-1103.5518727337
 20
-300.6579994184
 10
-1102.9718192705
 20
-300.5897371944
 10
-1102.1247957472
 20
-300.4202500128
 10
-1101.0860639211
 20
-300.1645975534
 10
-1099.9479196731
 20
-299.8454956592
 10
-1098.8114921145
 20
-299.4912979337
 10
-1097.7777578209
 20
-299.1334763994
 10
-1096.9385686207
 20
-298.8038250698
 10
-1096.3684901573
 20
-298.5316349122
 10
-1096.1181764036
 20
-298.3410912165
 10
-1096.2098688354
 20
-298.2491246264
 10
-1096.6354201776
 20
-298.2639067769
 10
-1097.3570183259
 20
-298.3841242091
 10
-1098.3105461182
 20
-298.5990950766
 10
-1099.4112784257
 20
-298.8897182744
 10
-1100.5614103524
 20
-299.230170656
 10
-1101.6587476292
 20
-299.5902015333
 10
-1102.6057870237
 20
-299.9378205829
 10
-1103.3183799294
 20
-300.2421403266
 10
-1103.7332093398
 20
-300.4761206198
 10
-1103.813415841
 20
-300.6189712866
  0
LWPOLYLINE
  5
A0
330
1F
100
AcDbEntity
  8
0
  6
Continuous
 62
     7
370
    25
100
AcDbPolyline
 90
       22
 70
   128
 43
0.0
 10
-1099.4572638874
 20
-304.9881480403
 10
-1099.19572078
 20
-305.0271761721
 10
-1098.6156673168
 20
-304.9589139481
 10
-1097.7686437936
 20
-304.7894267664
 10
-1096.7299119674
 20
-304.533774307
 10
-1095.5917677194
 20
-304.2146724128
 10
-1094.4553401608
 20
-303.8604746874
 10
-1093.4216058672
 20
-303.5026531531
 10
-1092.5824166671
 20
-303.1730018235
 10
-1092.0123382036
 20
-302.9008116658
 10
-1091.76202445
 20
-302.7102679702
 10
-1091.8537168817
 20
-302.61830138
 10
-1092.2792682239
 20
-302.6330835305
 10
-1093.0008663722
 20
-302.7533009628
 10
-1093.9543941645
 20
-302.9682718303
 10
-1095.055126472
 20
-303.2588950281
 10
-1096.2052583987
 20
-303.5993474097
 10
-1097.3025956755
 20
-303.959378287
 10
-1098.24963507
 20
-304.3069973365
 10
-1098.9622279758
 20
-304.6113170803
 10
-1099.3770573861
 20
-304.8452973735
 10
-1099.4572638874
 20
-304.9881480403
  0
LWPOLYLINE
  5
A1
330
1F
100
AcDbEntity
  8
0
  6
Continuous
 62
     7
370
    25
100
AcDbPolyline
 90
       22
 70
   128
 43
0.0
 10
-1094.8718407782
 20
-309.5872814652
 10
-1094.6102976709
 20
-309.626309597
 10
-1094.0302442077
 20
-309.558047373
 10
-1093.1832206844
 20
-309.3885601913
 10
-1092.1444888583
 20
-309.1329077319
 10
-1091.0063446103
 20
-308.8138058377
 10
-1089.8699170517
 20
-308.4596081123
 10
-1088.836182758
 20
-308.101786578
 10
-1087.9969935579
 20
-307.7721352484
 10
-1087.4269150944
 20
-307.4999450907
 10
-1087.1766013408
 20
-307.3094013951
 10
-1087.2682937726
 20
-307.2174348049
 10
-1087.6938451148
 20
-307.2322169554
 10
-1088.4154432631
 20
-307.3524343877
 10
-1089.3689710554
 20
-307.5674052552
 10
-1090.4697033629
 20
-307.858028453
 10
-1091.6198352896
 20
-308.1984808346
 10
-1092.7171725664
 20
-308.5585117119
 10
-1093.6642119608
 20
-308.9061307614
 10
-1094.3768048666
 20
-309.2104505052
 10
-1094.791634277
 20
-309.4444307984
 10
-1094.8718407782
 20
-309.5872814652
  0
LWPOLYLINE
  5
A2
330
1F
100
AcDbEntity
  8
0
  6
Continuous
 62
     7
370
    25
100
AcDbPolyline
 90
       22
 70
   128
 43
0.0
 10
-358.4675243669
 20
-74.185061901
 10
-358.2059812595
 20
-74.2240900328
 10
-357.6259277963
 20
-74.1558278088
 10
-356.7789042731
 20
-73.9863406272
 10
-355.7401724469
 20
-73.7306881678
 10
-354.6020281989
 20
-73.4115862736
 10
-353.4656006403
 20
-73.0573885481
 10
-352.4318663467
 20
-72.6995670138
 10
-351.5926771466
 20
-72.3699156842
 10
-351.0225986831
 20
-72.0977255266
 10
-350.7722849295
 20
-71.9071818309
 10
-350.8639773612
 20
-71.8152152408
 10
-351.2895287034
 20
-71.8299973913
 10
-352.0111268517
 20
-71.9502148235
 10
-352.9646546441
 20
-72.165185691
 10
-354.0653869516
 20
-72.4558088888
 10
-355.2155188782
 20
-72.7962612705
 10
-356.3128561551
 20
-73.1562921477
 10
-357.2598955495
 20
-73.5039111973
 10
-357.9724884553
 20
-73.808230941
 10
-358.3873178656
 20
-74.0422112342
 10
-358.4675243669
 20
-74.185061901
  0
LWPOLYLINE
  5
A3
330
1F
100
AcDbEntity
  8
0
  6
Continuous
 62
     7
370
    25
100
AcDbPolyline
 90
       22
 70
   128
 43
0.0
 10
-354.1113724132
 20
-78.5542386547
 10
-353.8498293058
 20
-78.5932667865
 10
-353.2697758427
 20
-78.5250045625
 10
-352.4227523194
 20
-78.3555173808
 10
-351.3840204932
 20
-78.0998649214
 10
-350.2458762453
 20
-77.7807630272
 10
-349.1094486866
 20
-77.4265653018
 10
-348.075714393
 20
-77.0687437675
 10
-347.2365251929
 20
-76.7390924379
 10
-346.6664467294
 20
-76.4669022802
 10
-346.4161329758
 20
-76.2763585846
 10
-346.5078254076
 20
-76.1843919944
 10
-346.9333767497
 20
-76.199174145
 10
-347.6549748981
 20
-76.3193915772
 10
-348.6085026904
 20
-76.5343624447
 10
-349.7092349979
 20
-76.8249856425
 10
-350.8593669245
 20
-77.1654380241
 10
-351.9567042014
 20
-77.5254689014
 10
-352.9037435958
 20
-77.8730879509
 10
-353.6163365016
 20
-78.1774076947
 10
-354.0311659119
 20
-78.4113879879
 10
-354.1113724132
 20
-78.5542386547
  0
LWPOLYLINE
  5
A4
330
1F
100
AcDbEntity
  8
0
  6
Continuous
 62
     7
370
    25
100
AcDbPolyline
 90
       22
 70
   128
 43
0.0
 10
-349.5259493041
 20
-83.1533720796
 10
-349.2644061967
 20
-83.1924002114
 10
-348.6843527335
 20
-83.1241379874
 10
-347.8373292103
 20
-82.9546508057
 10
-346.7985973841
 20
-82.6989983463
 10
-345.6604531361
 20
-82.3798964521
 10
-344.5240255775
 20
-82.0256987267
 10
-343.4902912839
 20
-81.6678771924
 10
-342.6511020838
 20
-81.3382258628
 10
-342.0810236203
 20
-81.0660357051
 10
-341.8307098667
 20
-80.8754920095
 10
-341.9224022984
 20
-80.7835254193
 10
-342.3479536406
 20
-80.7983075699
 10
-343.0695517889
 20
-80.9185250021
 10
-344.0230795813
 20
-81.1334958696
 10
-345.1238118887
 20
-81.4241190674
 10
-346.2739438154
 20
-81.764571449
 10
-347.3712810923
 20
-82.1246023263
 10
-348.3183204867
 20
-82.4722213758
 10
-349.0309133925
 20
-82.7765411196
 10
-349.4457428028
 20
-83.0105214128
 10
-349.5259493041
 20
-83.1533720796
  0
LWPOLYLINE
  5
A5
330
1F
100
AcDbEntity
  8
0
  6
Continuous
 62
     7
370
    25
100
AcDbPolyline
 90
       30
 70
   128
 43
0.0
 10
-170.4162186418
 20
-18.9531443378
 10
-172.0738698702
 20
-19.4380547972
 10
-173.6825990747
 20
-19.8716180001
 10
-175.1671838655
 20
-20.2335610131
 10
-176.4582067079
 20
-20.5069597831
 10
-177.4953008086
 20
-20.6790304875
 10
-178.2299728001
 20
-20.7417272914
 10
-178.6278702367
 20
-20.692118562
 10
-178.6703878763
 20
-20.5325239482
 10
-178.3555376415
 20
-20.2704059169
 10
-177.6980415793
 20
-19.9180208159
 10
-176.7286434748
 20
-19.4918457808
 10
-175.492671306
 20
-19.0118082827
 10
-174.0479177577
 20
-18.5003543413
 10
-172.4619379003
 20
-17.9813989747
 10
-170.8088903891
 20
-17.4792079589
 10
-169.1660698884
 20
-17.0172631877
 10
-167.6102928592
 20
-16.6171646851
 10
-166.2143057061
 20
-16.2976206126
 10
-165.0433832369
 20
-16.0735724957
 10
-164.1522764848
 20
-15.9554965755
 10
-163.5826526112
 20
-15.9489139506
 10
-163.3611465954
 20
-16.0541324174
 10
-163.4981158124
 20
-16.2662320772
 10
-163.9871557338
 20
-16.5752953857
 10
-164.8053993966
 20
-16.9668708861
 10
-165.9145866364
 20
-17.4226489433
 10
-167.2628530906
 20
-17.9213178817
 10
-168.7871553185
 20
-18.4395604961
 10
-170.4162186418
 20
-18.9531443378
  0
LWPOLYLINE
  5
A6
330
1F
100
AcDbEntity
  8
0
  6
Continuous
 62
     7
370
    25
100
AcDbPolyline
 90
       30
 70
   128
 43
0.0
 10
-163.0795416672
 20
-26.3117578176
 10
-164.7371928956
 20
-26.796668277
 10
-166.3459221001
 20
-27.23023148
 10
-167.8305068909
 20
-27.592174493
 10
-169.1215297333
 20
-27.865573263
 10
-170.158623834
 20
-28.0376439674
 10
-170.8932958255
 20
-28.1003407713
 10
-171.2911932621
 20
-28.0507320418
 10
-171.3337109017
 20
-27.8911374281
 10
-171.0188606669
 20
-27.6290193968
 10
-170.3613646047
 20
-27.2766342957
 10
-169.3919665002
 20
-26.8504592607
 10
-168.1559943314
 20
-26.3704217625
 10
-166.7112407831
 20
-25.8589678212
 10
-165.1252609257
 20
-25.3400124545
 10
-163.4722134144
 20
-24.8378214387
 10
-161.8293929138
 20
-24.3758766675
 10
-160.2736158846
 20
-23.975778165
 10
-158.8776287315
 20
-23.6562340924
 10
-157.7067062623
 20
-23.4321859756
 10
-156.8155995102
 20
-23.3141100553
 10
-156.2459756366
 20
-23.3075274304
 10
-156.0244696208
 20
-23.4127458972
 10
-156.1614388377
 20
-23.624845557
 10
-156.6504787592
 20
-23.9339088656
 10
-157.468722422
 20
-24.325484366
 10
-158.5779096618
 20
-24.7812624231
 10
-159.926176116
 20
-25.2799313615
 10
-161.4504783438
 20
-25.7981739759
 10
-163.0795416672
 20
-26.3117578176
  0
LWPOLYLINE
  5
B2
330
1F
100
AcDbEntity
  8
0
  6
Continuous
 62
     7
370
    25
100
AcDbPolyline
 90
       13
 70
   128
 43
0.0
 10
-1087.1864170891
 20
-307.3242791453
 10
-1087.2845145022
 20
-307.2487433722
 10
-1087.7074226683
 20
-307.2634337081
 10
-1088.4245388405
 20
-307.3829044482
 10
-1089.3721441
 20
-307.5965400929
 10
-1090.4660395608
 20
-307.8853581777
 10
-1091.6090278109
 20
-308.2236959482
 10
-1092.6995493283
 20
-308.5814906089
 10
-1093.6407064905
 20
-308.9269505339
 10
-1094.3488733534
 20
-309.2293800929
 10
-1094.7611261835
 20
-309.4619070923
 10
-1094.8408345078
 20
-309.6038704879
 10
-1094.8408345078
 20
-309.6038704879
  0
LWPOLYLINE
  5
B8
330
1F
100
AcDbEntity
  8
0
  6
Continuous
 62
     7
370
    25
100
AcDbPolyline
 90
       13
 70
   128
 43
0.0
 10
-341.8405341631
 20
-80.8903975497
 10
-341.938623028
 20
-80.8148339866
 10
-342.3615311941
 20
-80.8295243225
 10
-343.0786473664
 20
-80.9489950626
 10
-344.0262526258
 20
-81.1626307073
 10
-345.1201480867
 20
-81.4514487921
 10
-346.2631363368
 20
-81.7897865626
 10
-347.3536578542
 20
-82.1475812233
 10
-348.2948150163
 20
-82.4930411483
 10
-349.0029818792
 20
-82.7954707073
 10
-349.4152347094
 20
-83.0279977067
 10
-349.4949430336
 20
-83.1699611023
 10
-349.4949430336
 20
-83.1699611023
  0
LWPOLYLINE
  5
B9
330
1F
100
AcDbEntity
  8
0
  6
Continuous
 62
     7
370
    25
100
AcDbPolyline
 90
       13
 70
   128
 43
0.0
 10
-1091.7718205052
 20
-302.7250815234
 10
-1091.8699376113
 20
-302.6496099473
 10
-1092.2928457774
 20
-302.6643002832
 10
-1093.0099619497
 20
-302.7837710233
 10
-1093.9575672091
 20
-302.997406668
 10
-1095.05146267
 20
-303.2862247528
 10
-1096.1944509201
 20
-303.6245625233
 10
-1097.2849724374
 20
-303.982357184
 10
-1098.2261295996
 20
-304.327817109
 10
-1098.9342964625
 20
-304.630246668
 10
-1099.3465492926
 20
-304.8627736674
 10
-1099.4262576169
 20
-305.004737063
 10
-1099.4262576169
 20
-305.004737063
  0
LWPOLYLINE
  5
BA
330
1F
100
AcDbEntity
  8
0
  6
Continuous
 62
     7
370
    25
100
AcDbPolyline
 90
       13
 70
   128
 43
0.0
 10
-346.4259583308
 20
-76.2912675629
 10
-346.5240461371
 20
-76.2157005617
 10
-346.9469543033
 20
-76.2303908976
 10
-347.6640704755
 20
-76.3498616377
 10
-348.611675735
 20
-76.5634972824
 10
-349.7055711958
 20
-76.8523153672
 10
-350.8485594459
 20
-77.1906531377
 10
-351.9390809633
 20
-77.5484477984
 10
-352.8802381255
 20
-77.8939077234
 10
-353.5884049884
 20
-78.1963372824
 10
-354.0006578185
 20
-78.4288642818
 10
-354.0803661427
 20
-78.5708276774
 10
-354.0803661427
 20
-78.5708276774
  0
LWPOLYLINE
  5
BD
330
1F
100
AcDbEntity
  8
0
  6
Continuous
 62
     7
370
    25
100
AcDbPolyline
 90
       13
 70
   128
 43
0.0
 10
-1096.1279998795
 20
-298.355994091
 10
-1096.226089565
 20
-298.2804331936
 10
-1096.6489977311
 20
-298.2951235295
 10
-1097.3661139033
 20
-298.4145942696
 10
-1098.3137191628
 20
-298.6282299143
 10
-1099.4076146237
 20
-298.9170479991
 10
-1100.5506028737
 20
-299.2553857697
 10
-1101.6411243911
 20
-299.6131804303
 10
-1102.5822815533
 20
-299.9586403553
 10
-1103.2904484162
 20
-300.2610699143
 10
-1103.7027012463
 20
-300.4935969138
 10
-1103.7824095706
 20
-300.6355603094
 10
-1103.7824095706
 20
-300.6355603094
  0
LWPOLYLINE
  5
BF
330
1F
100
AcDbEntity
  8
0
  6
Continuous
 62
     7
370
    25
100
AcDbPolyline
 90
       13
 70
   128
 43
0.0
 10
-350.7821050773
 20
-71.9220738899
 10
-350.8801980908
 20
-71.846523808
 10
-351.3031062569
 20
-71.8612141439
 10
-352.0202224292
 20
-71.980684884
 10
-352.9678276886
 20
-72.1943205287
 10
-354.0617231495
 20
-72.4831386135
 10
-355.2047113996
 20
-72.8214763841
 10
-356.295232917
 20
-73.1792710447
 10
-357.2363900791
 20
-73.5247309697
 10
-357.944556942
 20
-73.8271605287
 10
-358.3568097722
 20
-74.0596875282
 10
-358.4365180964
 20
-74.2016509238
 10
-358.4365180964
 20
-74.2016509238
  0
LINE
  5
C0
330
1F
100
AcDbEntity
  8
0
  6
Continuous
 62
     7
370
    25
100
AcDbLine
 10
-1419.4456442017
 20
-458.621837381
 30
0.0
 11
13.9118394024
 21
-23.1720116394
 31
0.0
  0
LINE
  5
C1
330
1F
100
AcDbEntity
  8
0
  6
Continuous
 62
     7
370
    25
100
AcDbLine
 10
-13.6200779225
 20
34.4926290276
 30
0.0
 11
-1446.9775615267
 21
-400.957196714
 31
0.0
  0
LINE
  5
C2
330
1F
100
AcDbEntity
  8
0
  6
Continuous
 62
     7
370
    25
100
AcDbLine
 10
-1420.3026664949
 20
-455.1011641085
 30
0.0
 11
-1430.8357955363
 21
-419.8083147361
 31
0.0
  0
LINE
  5
C3
330
1F
100
AcDbEntity
  8
0
  6
Continuous
 62
     7
370
    25
100
AcDbLine
 10
-1434.142998665
 20
-443.8927714292
 30
0.0
 11
-1419.4696447157
 21
-458.6099983889
 31
0.0
  0
LINE
  5
C4
330
1F
100
AcDbEntity
  8
0
  6
Continuous
 62
     7
370
    25
100
AcDbLine
 10
-1446.1205392334
 20
-404.4778699864
 30
0.0
 11
-1435.587410192
 21
-439.7707193589
 31
0.0
  0
LINE
  5
C5
330
1F
100
AcDbEntity
  8
0
  6
Continuous
 62
     7
370
    25
100
AcDbLine
 10
-1432.2802070634
 20
-415.6862626657
 30
0.0
 11
-1446.9535610126
 21
-400.969035706
 31
0.0
  0
LINE
  5
C6
330
1F
100
AcDbEntity
  8
0
  6
Continuous
 62
     7
370
    25
100
AcDbLine
 10
-1432.2802070634
 20
-415.6862626657
 30
0.0
 11
1.0772765407
 21
19.7635630759
 31
0.0
  0
LINE
  5
C7
330
1F
100
AcDbEntity
  8
0
  6
Continuous
 62
     7
370
    25
100
AcDbLine
 10
2.5216880678
 20
15.6415110055
 30
0.0
 11
-1430.8357955363
 21
-419.8083147361
 31
0.0
  0
LINE
  5
C8
330
1F
100
AcDbEntity
  8
0
  6
Continuous
 62
     7
370
    25
100
AcDbLine
 10
-1420.3026664949
 20
-455.1011641085
 30
0.0
 11
13.0548171092
 21
-19.651338367
 31
0.0
  0
LINE
  5
C9
330
1F
100
AcDbEntity
  8
0
  6
Continuous
 62
     7
370
    25
100
AcDbLine
 10
13.0548171092
 20
-19.651338367
 30
0.0
 11
2.5216880678
 21
15.6415110055
 31
0.0
  0
LINE
  5
CA
330
1F
100
AcDbEntity
  8
0
  6
Continuous
 62
     7
370
    25
100
AcDbLine
 10
-13.5960774085
 20
34.4807900355
 30
0.0
 11
-1446.9535610126
 21
-400.969035706
 31
0.0
  0
LINE
  5
CB
330
1F
100
AcDbEntity
  8
0
  6
Continuous
 62
     7
370
    25
100
AcDbLine
 10
1.0772765407
 20
19.7635630759
 30
0.0
 11
-13.5960774085
 21
34.4807900355
 31
0.0
  0
LINE
  5
CC
330
1F
100
AcDbEntity
  8
0
  6
Continuous
 62
     7
370
    25
100
AcDbLine
 10
-1427.4635738105
 20
-438.1968361507
 30
0.0
 11
-1427.4395732965
 21
-438.2086751427
 31
0.0
  0
LINE
  5
CD
330
1F
100
AcDbEntity
  8
0
  6
Continuous
 62
     7
370
    25
100
AcDbLine
 10
-1436.6344200288
 20
-428.9985693009
 30
0.0
 11
-1436.6104195148
 21
-429.0104082929
 31
0.0
  0
LINE
  5
CE
330
1F
100
AcDbEntity
  8
0
  6
Continuous
 62
     7
370
    25
100
AcDbLine
 10
-13.6200779225
 20
34.4926290276
 30
0.0
 11
-13.5960774085
 21
34.4807900355
 31
0.0
  0
ARC
  5
CF
330
1F
100
AcDbEntity
  8
0
  6
Continuous
 62
     7
370
    25
100
AcDbCircle
 10
-1456.9258208964
 20
-426.6364464349
 30
0.0
 40
26.96873756378652
100
AcDbArc
 50
14.666178385
 51
23.9558447129
  0
ARC
  5
D0
330
1F
100
AcDbEntity
  8
0
  6
Continuous
 62
     7
370
    25
100
AcDbCircle
 10
-1432.7307420161
 20
-459.9049758253
 30
0.0
 40
13.32417607842409
100
AcDbArc
 50
5.5773842835
 51
21.1329631437
  0
ARC
  5
D1
330
1F
100
AcDbEntity
  8
0
  6
Continuous
 62
     7
370
    25
100
AcDbCircle
 10
-1409.4973848319
 20
-432.94258766
 30
0.0
 40
26.96873756387889
100
AcDbArc
 50
194.666178385
 51
203.9558447129
  0
ARC
  5
D2
330
1F
100
AcDbEntity
  8
0
  6
Continuous
 62
     7
370
    25
100
AcDbCircle
 10
-1433.6924637123
 20
-399.6740582696
 30
0.0
 40
13.3241760784251
100
AcDbArc
 50
185.5773842835
 51
201.1329631437
  0
ARC
  5
D3
330
1F
100
AcDbEntity
  8
0
  6
Continuous
 62
     7
370
    25
100
AcDbCircle
 10
-23.5683372923
 20
8.8133793066
 30
0.0
 40
26.96873756386794
100
AcDbArc
 50
14.666178385
 51
23.9558447129
  0
ARC
  5
D4
330
1F
100
AcDbEntity
  8
0
  6
Continuous
 62
     7
370
    25
100
AcDbCircle
 10
-1400.6242265895
 20
-428.2403373495
 30
0.0
 40
3.004421814480479
100
AcDbArc
 50
242.2800636575
 51
27.5488790518
  0
ARC
  5
D5
330
1F
100
AcDbEntity
  8
0
  6
Continuous
 62
     7
370
    25
100
AcDbCircle
 10
-2.0611317595
 20
-25.1955957872
 30
0.0
 40
16.10064286117714
100
AcDbArc
 50
7.2202251618
 51
20.1421263919
  0
ARC
  5
D6
330
1F
100
AcDbEntity
  8
0
  6
Continuous
 62
     7
370
    25
100
AcDbCircle
 10
-1294.6895528347
 20
-396.0576922282
 30
0.0
 40
3.004421814614247
100
AcDbArc
 50
242.2800641947
 51
27.548878518
  0
ARC
  5
D7
330
1F
100
AcDbEntity
  8
0
  6
Continuous
 62
     7
370
    25
100
AcDbCircle
 10
-1188.7548790799
 20
-363.875047107
 30
0.0
 40
3.004421814758857
100
AcDbArc
 50
242.2800647771
 51
27.54887794
  0
ARC
  5
D8
330
1F
100
AcDbEntity
  8
0
  6
Continuous
 62
     7
370
    25
100
AcDbCircle
 10
-1082.8155000198
 20
-331.6909725277
 30
0.0
 40
3.004421814839038
100
AcDbArc
 50
242.2800651006
 51
27.5488776195
  0
ARC
  5
D9
330
1F
100
AcDbEntity
  8
0
  6
Continuous
 62
     7
370
    25
100
AcDbCircle
 10
-989.6472635854
 20
-303.3867338547
 30
0.0
 40
3.004421814677285
100
AcDbArc
 50
242.2800644482
 51
27.5488782658
  0
ARC
  5
DA
330
1F
100
AcDbEntity
  8
0
  6
Continuous
 62
     7
370
    25
100
AcDbCircle
 10
-896.4790271512
 20
-275.0824951814
 30
0.0
 40
3.004421814799625
100
AcDbArc
 50
242.2800649423
 51
27.5488777768
  0
ARC
  5
DB
330
1F
100
AcDbEntity
  8
0
  6
Continuous
 62
     7
370
    25
100
AcDbCircle
 10
-803.3107907169
 20
-246.7782565082
 30
0.0
 40
3.00442181471792
100
AcDbArc
 50
242.2800646123
 51
27.5488781031
  0
ARC
  5
DC
330
1F
100
AcDbEntity
  8
0
  6
Continuous
 62
     7
370
    25
100
AcDbCircle
 10
-1398.9067513997
 20
-425.429720146
 30
0.0
 40
31.28084649237247
100
AcDbArc
 50
189.4286229015
 51
204.0883495477
  0
ARC
  5
DD
330
1F
100
AcDbEntity
  8
0
  6
Continuous
 62
     7
370
    25
100
AcDbCircle
 10
-710.1425542827
 20
-218.474017835
 30
0.0
 40
3.004421814784194
100
AcDbArc
 50
242.280064881
 51
27.5488778379
  0
ARC
  5
DE
330
1F
100
AcDbEntity
  8
0
  6
Continuous
 62
     7
370
    25
100
AcDbCircle
 10
-616.9743178484
 20
-190.1697791618
 30
0.0
 40
3.004421814745672
100
AcDbArc
 50
242.2800647249
 51
27.548877992
  0
ARC
  5
DF
330
1F
100
AcDbEntity
  8
0
  6
Continuous
 62
     7
370
    25
100
AcDbCircle
 10
-523.8060814141
 20
-161.8655404886
 30
0.0
 40
3.004421814734994
100
AcDbArc
 50
242.2800646819
 51
27.5488780343
  0
ARC
  5
E0
330
1F
100
AcDbEntity
  8
0
  6
Continuous
 62
     7
370
    25
100
AcDbCircle
 10
-430.6378449798
 20
-133.5613018154
 30
0.0
 40
3.004421814741259
100
AcDbArc
 50
242.280064707
 51
27.5488780097
  0
ARC
  5
E1
330
1F
100
AcDbEntity
  8
0
  6
Continuous
 62
     7
370
    25
100
AcDbCircle
 10
-337.4696085455
 20
-105.2570631422
 30
0.0
 40
3.004421814737951
100
AcDbArc
 50
242.2800646936
 51
27.5488780228
  0
ARC
  5
E2
330
1F
100
AcDbEntity
  8
0
  6
Continuous
 62
     7
370
    25
100
AcDbCircle
 10
-232.8249366037
 20
-73.4663168119
 30
0.0
 40
3.004421814738899
100
AcDbArc
 50
242.2800646976
 51
27.5488780189
  0
ARC
  5
E3
330
1F
100
AcDbEntity
  8
0
  6
Continuous
 62
     7
370
    25
100
AcDbCircle
 10
-126.8902628488
 20
-41.2836716908
 30
0.0
 40
3.004421814737677
100
AcDbArc
 50
242.2800646926
 51
27.5488780238
  0
ARC
  5
E4
330
1F
100
AcDbEntity
  8
0
  6
Continuous
 62
     7
370
    25
100
AcDbCircle
 10
-20.9555890939
 20
-9.1010265697
 30
0.0
 40
3.004421814737896
100
AcDbArc
 50
242.2800646936
 51
27.5488780228
  0
ARC
  5
E5
330
1F
100
AcDbEntity
  8
0
  6
Continuous
 62
     7
370
    25
100
AcDbCircle
 10
-1408.077597618
 20
-416.2314532962
 30
0.0
 40
31.28084649240736
100
AcDbArc
 50
189.4286229015
 51
204.0883495477
  0
ENDSEC
  0
SECTION
  2
OBJECTS
  0
DICTIONARY
  5
C
330
0
100
AcDbDictionary
281
     1
  3
ACAD_GROUP
350
D
  3
ACAD_LAYOUT
350
1A
  3
ACAD_MLINESTYLE
350
17
  3
ACAD_PLOTSETTINGS
350
19
  3
ACAD_PLOTSTYLENAME
350
E
  3
ACAD_SCALELIST
350
47
  3
DWGPROPS
350
E6
  0
DICTIONARY
  5
D
102
{ACAD_REACTORS
330
C
102
}
330
C
100
AcDbDictionary
281
     1
  0
DICTIONARY
  5
1A
102
{ACAD_REACTORS
330
C
102
}
330
C
100
AcDbDictionary
281
     1
  3
Layout1
350
1E
  3
Layout2
350
26
  3
Model
350
22
  0
DICTIONARY
  5
17
102
{ACAD_REACTORS
330
C
102
}
330
C
100
AcDbDictionary
281
     1
  3
Standard
350
18
  0
DICTIONARY
  5
19
102
{ACAD_REACTORS
330
C
102
}
330
C
100
AcDbDictionary
281
     1
  0
ACDBDICTIONARYWDFLT
  5
E
102
{ACAD_REACTORS
330
C
102
}
330
C
100
AcDbDictionary
281
     1
  3
Normal
350
F
100
AcDbDictionaryWithDefault
340
F
  0
DICTIONARY
  5
47
102
{ACAD_REACTORS
330
C
102
}
330
C
100
AcDbDictionary
281
     1
  3
A0
350
48
  3
A1
350
49
  3
A2
350
4A
  3
A3
350
4B
  3
A4
350
4C
  3
A5
350
4D
  3
A6
350
4E
  3
A7
350
4F
  3
A8
350
50
  3
A9
350
51
  3
B0
350
52
  3
B1
350
53
  3
B2
350
54
  3
B3
350
55
  3
B4
350
56
  3
B5
350
57
  3
B6
350
58
  3
B7
350
59
  3
B8
350
5A
  3
B9
350
5B
  3
C0
350
5C
  3
C1
350
5D
  3
C2
350
5E
  3
C3
350
5F
  3
C4
350
60
  3
C5
350
61
  3
C6
350
62
  3
C7
350
63
  3
C8
350
64
  3
C9
350
65
  3
D0
350
66
  3
D1
350
67
  3
D2
350
68
  0
XRECORD
  5
E6
102
{ACAD_REACTORS
330
C
102
}
330
C
100
AcDbXrecord
280
     1
  1
DWGPROPS COOKIE
  2

  3

  4

  6

  7

  8
rihar
  9

300
=
301
=
302
=
303
=
304
=
305
=
306
=
307
=
308
=
309
=
 40
0.0
 41
2459241.390961458
 42
2459241.391012315
  1

 90
        0
  0
LAYOUT
  5
1E
102
{ACAD_REACTORS
330
1A
102
}
330
1A
100
AcDbPlotSettings
  1

  2
none_device
  4

  6

 40
0.0
 41
0.0
 42
0.0
 43
0.0
 44
0.0
 45
0.0
 46
0.0
 47
0.0
 48
0.0
 49
0.0
140
0.0
141
0.0
142
1.0
143
1.0
 70
   688
 72
     1
 73
     0
 74
     5
  7

 75
    16
147
1.0
148
0.0
149
0.0
100
AcDbLayout
  1
Layout1
 70
     1
 71
     1
 10
0.0
 20
0.0
 11
420.0
 21
297.0
 12
0.0
 22
0.0
 32
0.0
 14
1.0000000000E+20
 24
1.0000000000E+20
 34
1.0000000000E+20
 15
-1.0000000000E+20
 25
-1.0000000000E+20
 35
-1.0000000000E+20
146
0.0
 13
0.0
 23
0.0
 33
0.0
 16
1.0
 26
0.0
 36
0.0
 17
0.0
 27
1.0
 37
0.0
 76
     0
330
1B
  0
LAYOUT
  5
26
102
{ACAD_REACTORS
330
1A
102
}
330
1A
100
AcDbPlotSettings
  1

  2
none_device
  4

  6

 40
0.0
 41
0.0
 42
0.0
 43
0.0
 44
0.0
 45
0.0
 46
0.0
 47
0.0
 48
0.0
 49
0.0
140
0.0
141
0.0
142
1.0
143
1.0
 70
   688
 72
     1
 73
     0
 74
     5
  7

 75
    16
147
1.0
148
0.0
149
0.0
100
AcDbLayout
  1
Layout2
 70
     1
 71
     2
 10
0.0
 20
0.0
 11
0.0
 21
0.0
 12
0.0
 22
0.0
 32
0.0
 14
0.0
 24
0.0
 34
0.0
 15
0.0
 25
0.0
 35
0.0
146
0.0
 13
0.0
 23
0.0
 33
0.0
 16
1.0
 26
0.0
 36
0.0
 17
0.0
 27
1.0
 37
0.0
 76
     0
330
23
  0
LAYOUT
  5
22
102
{ACAD_REACTORS
330
1A
102
}
330
1A
100
AcDbPlotSettings
  1

  2
none_device
  4
ANSI_A_(11.00_x_8.50_Inches)
  6

 40
6.35
 41
19.05
 42
6.35000508
 43
19.05000254
 44
279.4
 45
215.9
 46
269.0189183522
 47
129.0524851986
 48
0.0
 49
0.0
140
0.0
141
0.0
142
0.0074543631
143
1.0
 70
  1696
 72
     0
 73
     0
 74
     0
  7

 75
     0
147
0.0179189148
148
-1300.4909072572
149
0.0
100
AcDbLayout
  1
Model
 70
     1
 71
     0
 10
0.0
 20
0.0
 11
420.0
 21
297.0
 12
0.0
 22
0.0
 32
0.0
 14
-1446.9775615267
 24
-458.621837381
 34
0.0
 15
13.9118394024
 25
34.4926290276
 35
0.0
146
0.0
 13
0.0
 23
0.0
 33
0.0
 16
1.0
 26
0.0
 36
0.0
 17
0.0
 27
1.0
 37
0.0
 76
     0
330
1F
331
29
  0
MLINESTYLE
  5
18
102
{ACAD_REACTORS
330
17
102
}
330
17
100
AcDbMlineStyle
  2
Standard
 70
     0
  3

 62
   256
 51
90.0
 52
90.0
 71
     2
 49
0.5
 62
   256
  6
BYLAYER
 49
-0.5
 62
   256
  6
BYLAYER
  0
ACDBPLACEHOLDER
  5
F
102
{ACAD_REACTORS
330
E
102
}
330
E
  0
SCALE
  5
48
102
{ACAD_REACTORS
330
47
102
}
330
47
100
AcDbScale
 70
     0
300
1:1
140
1.0
141
1.0
290
     1
  0
SCALE
  5
49
102
{ACAD_REACTORS
330
47
102
}
330
47
100
AcDbScale
 70
     0
300
1:2
140
1.0
141
2.0
290
     0
  0
SCALE
  5
4A
102
{ACAD_REACTORS
330
47
102
}
330
47
100
AcDbScale
 70
     0
300
1:4
140
1.0
141
4.0
290
     0
  0
SCALE
  5
4B
102
{ACAD_REACTORS
330
47
102
}
330
47
100
AcDbScale
 70
     0
300
1:5
140
1.0
141
5.0
290
     0
  0
SCALE
  5
4C
102
{ACAD_REACTORS
330
47
102
}
330
47
100
AcDbScale
 70
     0
300
1:8
140
1.0
141
8.0
290
     0
  0
SCALE
  5
4D
102
{ACAD_REACTORS
330
47
102
}
330
47
100
AcDbScale
 70
     0
300
1:10
140
1.0
141
10.0
290
     0
  0
SCALE
  5
4E
102
{ACAD_REACTORS
330
47
102
}
330
47
100
AcDbScale
 70
     0
300
1:16
140
1.0
141
16.0
290
     0
  0
SCALE
  5
4F
102
{ACAD_REACTORS
330
47
102
}
330
47
100
AcDbScale
 70
     0
300
1:20
140
1.0
141
20.0
290
     0
  0
SCALE
  5
50
102
{ACAD_REACTORS
330
47
102
}
330
47
100
AcDbScale
 70
     0
300
1:30
140
1.0
141
30.0
290
     0
  0
SCALE
  5
51
102
{ACAD_REACTORS
330
47
102
}
330
47
100
AcDbScale
 70
     0
300
1:40
140
1.0
141
40.0
290
     0
  0
SCALE
  5
52
102
{ACAD_REACTORS
330
47
102
}
330
47
100
AcDbScale
 70
     0
300
1:50
140
1.0
141
50.0
290
     0
  0
SCALE
  5
53
102
{ACAD_REACTORS
330
47
102
}
330
47
100
AcDbScale
 70
     0
300
1:100
140
1.0
141
100.0
290
     0
  0
SCALE
  5
54
102
{ACAD_REACTORS
330
47
102
}
330
47
100
AcDbScale
 70
     0
300
2:1
140
2.0
141
1.0
290
     0
  0
SCALE
  5
55
102
{ACAD_REACTORS
330
47
102
}
330
47
100
AcDbScale
 70
     0
300
4:1
140
4.0
141
1.0
290
     0
  0
SCALE
  5
56
102
{ACAD_REACTORS
330
47
102
}
330
47
100
AcDbScale
 70
     0
300
8:1
140
8.0
141
1.0
290
     0
  0
SCALE
  5
57
102
{ACAD_REACTORS
330
47
102
}
330
47
100
AcDbScale
 70
     0
300
10:1
140
10.0
141
1.0
290
     0
  0
SCALE
  5
58
102
{ACAD_REACTORS
330
47
102
}
330
47
100
AcDbScale
 70
     0
300
100:1
140
100.0
141
1.0
290
     0
  0
SCALE
  5
59
102
{ACAD_REACTORS
330
47
102
}
330
47
100
AcDbScale
 70
     0
300
1/128" = 1'-0"
140
0.0078125
141
12.0
290
     0
  0
SCALE
  5
5A
102
{ACAD_REACTORS
330
47
102
}
330
47
100
AcDbScale
 70
     0
300
1/64" = 1'-0"
140
0.015625
141
12.0
290
     0
  0
SCALE
  5
5B
102
{ACAD_REACTORS
330
47
102
}
330
47
100
AcDbScale
 70
     0
300
1/32" = 1'-0"
140
0.03125
141
12.0
290
     0
  0
SCALE
  5
5C
102
{ACAD_REACTORS
330
47
102
}
330
47
100
AcDbScale
 70
     0
300
1/16" = 1'-0"
140
0.0625
141
12.0
290
     0
  0
SCALE
  5
5D
102
{ACAD_REACTORS
330
47
102
}
330
47
100
AcDbScale
 70
     0
300
3/32" = 1'-0"
140
0.09375
141
12.0
290
     0
  0
SCALE
  5
5E
102
{ACAD_REACTORS
330
47
102
}
330
47
100
AcDbScale
 70
     0
300
1/8" = 1'-0"
140
0.125
141
12.0
290
     0
  0
SCALE
  5
5F
102
{ACAD_REACTORS
330
47
102
}
330
47
100
AcDbScale
 70
     0
300
3/16" = 1'-0"
140
0.1875
141
12.0
290
     0
  0
SCALE
  5
60
102
{ACAD_REACTORS
330
47
102
}
330
47
100
AcDbScale
 70
     0
300
1/4" = 1'-0"
140
0.25
141
12.0
290
     0
  0
SCALE
  5
61
102
{ACAD_REACTORS
330
47
102
}
330
47
100
AcDbScale
 70
     0
300
3/8" = 1'-0"
140
0.375
141
12.0
290
     0
  0
SCALE
  5
62
102
{ACAD_REACTORS
330
47
102
}
330
47
100
AcDbScale
 70
     0
300
1/2" = 1'-0"
140
0.5
141
12.0
290
     0
  0
SCALE
  5
63
102
{ACAD_REACTORS
330
47
102
}
330
47
100
AcDbScale
 70
     0
300
3/4" = 1'-0"
140
0.75
141
12.0
290
     0
  0
SCALE
  5
64
102
{ACAD_REACTORS
330
47
102
}
330
47
100
AcDbScale
 70
     0
300
1" = 1'-0"
140
1.0
141
12.0
290
     0
  0
SCALE
  5
65
102
{ACAD_REACTORS
330
47
102
}
330
47
100
AcDbScale
 70
     0
300
1-1/2" = 1'-0"
140
1.5
141
12.0
290
     0
  0
SCALE
  5
66
102
{ACAD_REACTORS
330
47
102
}
330
47
100
AcDbScale
 70
     0
300
3" = 1'-0"
140
3.0
141
12.0
290
     0
  0
SCALE
  5
67
102
{ACAD_REACTORS
330
47
102
}
330
47
100
AcDbScale
 70
     0
300
6" = 1'-0"
140
6.0
141
12.0
290
     0
  0
SCALE
  5
68
102
{ACAD_REACTORS
330
47
102
}
330
47
100
AcDbScale
 70
     0
300
1'-0" = 1'-0"
140
12.0
141
12.0
290
     0
  0
ENDSEC
  0
EOF
